<?xml version="1.0" encoding="UTF-8"?>
<svg width="1008px" height="1280px" viewBox="0 0 1008 1280" version="1.1" xmlns="http://www.w3.org/2000/svg" xmlns:xlink="http://www.w3.org/1999/xlink">
    <!-- Generator: Sketch 64 (93537) - https://sketch.com -->
    <title>303394</title>
    <desc>Created with Sketch.</desc>
    <g id="Page-1" stroke="none" stroke-width="1" fill="none" fill-rule="evenodd" opacity="0.33">
        <g id="303394" fill="#FF1659" fill-rule="nonzero">
            <g id="Group" transform="translate(503.700000, 639.950000) scale(-1, 1) rotate(-180.000000) translate(-503.700000, -639.950000) translate(0.200000, -0.000000)">
                <path d="M575.8,1278.4 C574.3,1276.6 574.7,1272.8 577.8,1258.4 C579.7,1249.7 579.9,1246.2 579.5,1231.4 C579.1,1218.4 578.5,1212.5 576.9,1206.4 C572,1188.1 563,1178 558.2,1185.4 C556.4,1188.1 553.1,1188.7 550.6,1186.7 C549.7,1186 546.9,1182.1 544.3,1178 C535.4,1163.9 523.5,1155.5 509.1,1152.9 C499,1151.1 495.2,1152.4 488.7,1159.9 C483.3,1166.2 481,1167.1 476.5,1164.8 C469.5,1161.2 466.5,1155.3 462.8,1137.9 C460.1,1125.3 458.4,1121.6 451.1,1113.7 C443.8,1105.7 441.3,1099.6 438.2,1082.2 C435.2,1064.8 432.8,1056.6 428,1047.5 C423.4,1038.8 418.7,1033.9 414.9,1033.9 C413.3,1033.9 411.5,1034.5 410.9,1035.2 C408.4,1038.3 406.6,1046.2 405.7,1059.4 C405.1,1067.1 404.1,1074.5 403.4,1075.9 C402.7,1077.5 400.6,1078.9 397.3,1080.1 C388.9,1083 384,1090.5 382.3,1102.9 C380.7,1113.8 386.4,1135.2 397,1158.7 C402,1169.7 402.9,1172.6 402.5,1175.6 C401.8,1179.4 402.7,1181.7 406.4,1186.2 C409.6,1190 409.5,1193.4 406.2,1195.5 C403.9,1197.1 403.4,1197.1 400.3,1195.6 C395.5,1193.3 393.4,1188.4 390.9,1174.5 C387.1,1153.5 380,1139.3 369.2,1131.1 C365.1,1127.9 363,1125.4 361.5,1121.8 C359.8,1117.7 359,1116.9 356.8,1116.9 C353.9,1116.9 347,1113.4 345.1,1111 C339.6,1104.1 330.3,1078.3 327.7,1062.5 L326.4,1054.7 L319.6,1050.2 C314.9,1047.1 312.6,1044.9 312.1,1043.1 C311.8,1041.6 312.2,1036.4 313,1031.5 C315.1,1019.3 314.8,993.2 312.4,982.4 C310,971.1 303.5,958.3 298.1,954.2 C290.2,948.3 277.1,947.7 269.7,953 C266.1,955.6 261.3,963.5 261.6,966.6 C261.7,968 261.2,968.9 260.4,968.9 C259.6,968.9 258,970.5 256.8,972.4 C252.6,979.2 245.3,983.1 243.2,979.8 C242.2,978.1 242.5,973 243.9,969.7 C244.9,967.4 244.8,965.5 243.4,959.5 C240.4,947.1 242.4,944.6 263.8,933.8 C277.3,926.9 286.1,919.7 287.4,914.5 C288.2,911 286.9,908.5 283.9,908.1 C282.3,907.8 281.8,907.1 281.8,904.8 C281.8,902.6 281.1,901.6 279.3,900.7 C277.5,899.9 277.1,899.3 277.8,898.4 C278.5,897.5 278.5,896.3 277.7,894.5 C276.8,892.5 276.7,890.7 277.6,887.1 C278.8,881.7 278.1,880.4 271.5,876.2 C265.7,872.5 267.8,872.3 274.2,875.9 C277.3,877.6 280.2,878.8 280.7,878.5 C282.4,877.4 282.7,871.8 281.3,868.1 C278.5,860.8 274.7,840.8 274.1,829.9 C273.7,823 273.1,818.9 272.4,818.9 C269.8,818.9 249.4,809.8 241.9,805.3 C223.8,794.6 213.2,779.4 217.8,770.8 C218.7,769.2 218.5,768.9 216.4,768.9 C210.6,768.9 204.9,760.3 206.2,753.5 C207.4,747.1 212.9,745.2 222.4,747.8 C232,750.4 234.6,757.6 228.6,764.6 C226.8,766.7 226.1,767.8 227,767.1 C230.9,764 234.4,768.3 231.7,772.8 C230.2,775.1 233.1,784.9 236.3,788.8 C237.5,790.2 238.8,792.4 239.2,793.6 C240.2,796.6 249.5,805 256,808.6 C261,811.4 271.9,815.9 273.7,815.9 C274.2,815.9 274.8,813.5 275.2,810.5 C275.7,806 279.2,791.1 282.4,780.3 C282.8,778.6 282.4,778 280.1,777.2 C273.7,774.9 268,767.9 266.4,760.2 C265.3,755.5 268.6,748.8 273.4,745.8 C276.8,743.7 278.5,743.4 286,743.5 C291.4,743.5 295.2,744 296.2,744.8 C297.4,745.8 297.9,745.6 299.3,743 C300.6,740.3 300.7,739.8 299.4,739.3 C296.2,738.1 289.8,731.2 290.4,729.6 C290.7,728.7 290.3,726.7 289.5,725.1 C288.3,722.7 288.3,721.9 289.4,720.4 C290.6,718.8 290.5,718.3 289.1,716.7 C287.8,715.3 287.8,714.9 288.9,714.9 C290.4,714.9 293.4,711 293,709.5 C292.8,709 293.3,708.2 294,707.7 C295,707 294.9,706.6 293.6,705.8 C291,704.3 291.4,702.9 294.3,702.9 C295.7,702.9 296.8,702.4 296.8,701.9 C296.8,701.2 297.4,701.2 298.7,701.8 C300.8,703 307.8,702.1 307.8,700.6 C307.8,700.1 308.5,700.2 309.3,700.9 C310.1,701.6 311.7,701.9 312.8,701.6 C313.9,701.3 316.4,701.6 318.4,702.2 C321.6,703.2 322.2,703.1 323.5,701.4 C324.8,699.5 324.9,699.6 324.3,702.2 C323.9,703.7 323.8,704.9 324.1,704.9 C324.4,704.9 327.2,701.7 330.2,697.8 C335.7,690.9 337.1,686.7 334.6,685.5 C333.7,685.1 333.7,684.7 334.4,684.4 C335.1,684 335,682 334,677.8 C332.1,670.1 333.2,666.2 339.3,659 C341.8,656.1 343.8,654 343.8,654.3 C343.8,654.7 344.9,654.2 346.3,653.3 C348,652.2 348.8,650.8 348.8,648.8 C348.8,646.6 349.4,645.8 352.2,644.8 C355.4,643.7 355.6,643.2 356.2,638 C357.7,624.6 358,620.9 357.4,620.9 C355.2,620.9 334.9,632.7 324.3,640.3 C315.1,646.8 312.6,648.8 304.5,656.7 C296.8,664.1 294.5,667.8 295,671.7 C295.2,674 296.1,674.7 300.3,676 C303,677 305.4,678.2 305.6,678.9 C307.4,684.3 292.8,694 269.6,702.7 C258,707.1 255,708.7 250,713.3 C244.7,718.2 242.4,723.4 242.5,730.5 C242.6,735.7 243,737 245.2,739.2 C249.7,743.7 248,748.7 241.6,750.3 C239.6,750.7 238.2,750.3 235.9,748.4 C232.1,745.1 231.2,742.4 233.2,739.4 C234.5,737.4 234.5,736.9 233.3,735.9 C229.4,732.7 232.1,726.7 242.8,714 L250.7,704.7 L247.9,702.3 C242.5,697.7 243.9,689.3 250.5,686.8 C252.5,686.1 252.7,685.6 251.8,684 C250.1,680.7 250.7,673.7 253.2,668.3 C255,664.4 255.3,662.8 254.5,661.9 C253.6,661 253.7,660.8 255,661.1 C256,661.3 259,658.6 263.2,653.7 C270.4,645.3 285.2,631.7 295.3,624.3 C301.4,619.8 301.6,619.5 299.5,618.5 C296.9,617.2 295.8,611.1 298,609.8 C300.6,608.1 303.7,608.9 306.1,612 L308.5,615 L315.2,611.7 C320.2,609.3 321.7,608.1 321.2,606.9 C320.8,606.1 320.3,603.5 320,601.2 L319.6,596.9 L313.9,597.5 C310.8,597.8 302,599 294.3,600 C286.6,601 280,601.9 279.5,601.9 C279,601.9 278.9,602.6 279.2,603.4 C280,605.7 276.8,606.6 275.3,604.5 C273.8,602.5 270.8,603.4 270.8,605.8 C270.8,608.4 266.6,611.9 263.6,611.9 C262.1,611.9 259.6,610.8 257.9,609.3 C255.1,607 254.6,606.9 250.6,608 C248.2,608.6 246.9,609.4 247.6,609.6 C249.6,610.3 249,613.7 246.6,615.3 C243.8,617.3 243.3,617.3 241.3,615.3 C240.4,614.4 240,612.9 240.3,611.8 C240.7,610.5 240.5,610.1 239.6,610.4 C238.9,610.6 233.4,612.2 227.3,613.9 C179.6,627.3 135.6,647.2 95.8,673.3 C37.2,711.8 7.8,758.9 2.7,822.4 C0.5,850.6 4.7,883.6 15.3,920.4 C26.4,958.9 44,998.7 76.8,1058.9 C97.6,1097.1 99.5,1102.1 95.5,1108.3 C94.1,1110.4 93,1110.9 89.9,1110.9 C83.9,1110.9 82.3,1108.4 82.2,1098.5 C82.2,1086.7 79.5,1079.5 58.6,1035 C42.6,1000.9 35.8,985.6 28.3,966.4 C-7.9,873.9 -9.4,800.2 24,741.7 C46.2,702.8 82.7,671.4 137.8,643.8 C152,636.7 187.1,621.9 189.7,621.9 C191.1,621.9 191.1,620.6 189.7,619.2 C188.1,617.6 189.4,613.2 191.9,611.8 C195.8,609.8 198.5,611.5 201.3,617.6 C201.4,617.8 203.4,617.2 205.9,616.5 C208.3,615.7 213.5,614.1 217.4,613 C223.5,611.2 224.4,610.6 224.4,608.7 C224.3,605.9 227.7,605 229.4,607.4 C230.6,608.9 231.5,608.9 242.7,606.3 C253,603.9 254.8,603.2 255.2,601.3 C256.3,597.1 265.7,595.7 268.7,599.3 C269.5,600.3 271.7,600.2 279.5,598.8 C284.9,597.8 295.8,596.3 303.8,595.4 C325.5,592.9 326.1,592.6 318.8,588.9 C316.2,587.6 314.1,585.5 313.1,583.4 C312.2,581.5 311,579.9 310.6,579.9 C310.1,579.9 310.2,580.8 310.8,581.8 C312.2,584.5 312.1,585.9 310.4,585.9 C309.2,585.9 306.6,581.1 306.4,578.4 C306.3,577.9 307.4,577.4 308.8,577.4 C310.7,577.4 311.4,576.8 311.6,575 C311.8,573.8 313.5,571.3 315.4,569.6 C317.4,567.9 318.5,566.2 318,565.7 C317,564.7 311.1,566.5 308.7,568.5 C307.9,569.3 306.5,569.9 305.7,569.9 C305,569.9 302,570.9 299.1,572.1 C294.3,574.1 294,574.4 294.5,577.1 C294.9,579.1 294.5,580.6 293.3,581.9 C291,584.4 288.7,584.4 285.6,582 C283.2,580 283.1,580 280,581.9 C278.2,583 276.8,584.3 276.8,584.8 C276.8,585.3 275.8,586.1 274.7,586.4 C273.5,586.8 270.6,588.5 268.3,590.1 C265.9,591.8 262.8,593.2 261.5,593.2 C260.1,593.2 258.7,593.8 258.4,594.5 C256.8,598.7 244.8,593.3 238.7,585.5 L234.3,579.9 L232.9,582.7 C232.1,584.2 231.4,586.2 231.3,587.1 C231.2,588.9 223.8,595.5 220.1,597.2 C218.8,597.8 217.8,598.5 217.8,598.9 C217.8,599.2 214.5,599.4 210.6,599.4 C201.8,599.2 195.1,596.2 189.5,590 C184.7,584.7 182.8,580.8 182.1,574.9 C181.6,570.9 182,569 184.6,563.6 C186.6,559.3 188.6,556.5 190.6,555.3 C192.3,554.3 193.5,553.2 193.3,552.8 C193,552.4 193.8,552.1 195.1,552 C196.3,552 200,551.7 203.3,551.3 C208.7,550.8 210.1,551 216,553.7 C220.5,555.7 222.5,556.2 222.1,555.3 C221.8,554.4 222.3,553.9 223.4,553.8 C224.5,553.7 224,553.4 222.3,553 C218.1,552.1 217.6,548 221.4,545 C222.9,543.9 224.6,542.9 225.3,542.9 C227.3,542.9 230.1,546.7 229.4,548.5 C228.9,549.7 229.6,550.9 231.4,552.4 C233.4,554 233.9,555 233.4,556.7 C232.6,559.2 228.1,559.8 226,557.7 C224.2,555.9 224.6,557.8 226.7,560.7 C227.7,562.2 229.8,565.8 231.2,568.7 C233.8,573.7 234,574 235.7,572.5 C236.7,571.6 239,570.9 241,570.9 C245.6,570.9 248.3,573.8 247.5,577.7 C247,580.3 247.4,581 251.4,583.8 C253.8,585.6 255.8,587.4 255.8,588 C255.8,588.5 256.3,588.9 256.8,588.9 C257.4,588.9 257.8,587.7 257.8,586.2 C257.8,584.6 258.7,581.9 259.8,580.1 C262.3,576 262.3,575.9 259.3,575.9 C255.9,575.9 251.1,573.4 249.8,571 C248.4,568.3 248.6,561.8 250.1,559.8 C253.7,555.1 262.7,554.9 267.3,559.5 C268.6,560.8 270.3,561.6 271.1,561.3 C273.5,560.4 274.1,562.7 271.8,563.9 C270.7,564.5 269.8,565.6 269.8,566.4 C269.8,568.1 270.9,568.3 272.3,567 C274.4,565.1 284.7,562.8 294.1,562.2 C299.4,561.9 303.8,561.3 303.8,561 C303.8,560.7 302.2,559.3 300.3,557.9 C294.9,554 293.6,550.4 294.4,540.9 C295.1,532.7 295,532.3 291.1,532.8 C290.4,532.9 289.6,531.8 289.2,530.4 C288.7,528.3 288,527.9 285,527.9 C280.2,527.9 273.7,524.6 271.3,520.9 C270.2,519.3 268.7,517.9 268,517.9 C265.8,517.9 265.3,514.7 267.4,513.2 C268.8,512.2 269,511.5 268.2,510.2 C267.4,508.9 268,507.8 271.2,504.6 L275.3,500.6 L283.5,501.2 C288,501.4 292,501.4 292.3,501.1 C292.6,500.8 291.4,499 289.6,497.2 C286.3,493.8 286.4,491.6 289.8,493.7 C292.2,495.2 296.8,495.3 296.8,493.9 C296.8,493.4 295.9,492.9 294.8,492.9 C293.7,492.9 292.8,492.4 292.8,491.8 C292.8,491.2 293.7,491 294.9,491.4 C296.3,491.9 297.7,491.4 299.1,490.2 C300.3,489.1 302.7,487.7 304.5,487 C310.6,484.6 310.3,483.2 303.9,483.7 C296.7,484.2 290.6,481.8 285.1,476.1 L281.4,472.2 L278.5,474.3 C276.4,475.8 274.2,476.4 270.1,476.4 C266.1,476.4 264.3,476.9 263.4,478.2 C262.7,479.1 261.6,479.9 260.9,479.9 C259.5,479.9 259.5,477.6 261,476.1 C261.6,475.5 262,472.9 262,470.3 C261.8,466.3 262.2,465.3 265.3,462.2 C268.7,458.8 269.1,458.7 274.2,459.2 C279.5,459.7 279.5,459.7 280.7,456.3 C281.4,454.5 283.5,451.7 285.4,450.1 L288.9,447.2 L279.6,445.8 C272.6,444.7 257.7,444.4 219.8,444.4 C166.8,444.4 165.4,444.3 156.6,439.8 C151.3,437.1 138.2,425.2 130.6,416.1 C124.1,408.5 114.4,394.3 114.2,392.4 C114.2,391.9 113.4,389 112.5,386 C109.2,375.3 111.1,364.9 116.3,364.9 C119.9,364.9 122.2,368.8 120.8,372.5 C120.2,374.1 119.2,377.6 118.7,380.3 C117.9,384.4 118.1,385.5 119.4,387.1 C120.6,388.4 120.7,388.9 119.8,388.9 C117.9,388.9 119.3,395.4 122.7,402.4 C126.4,409.7 132.3,416.7 144.3,427.8 C154.9,437.7 158.2,439.4 163.7,437.9 C170.6,436.1 177.2,428.9 194.1,404.8 C200,396.4 203.6,393.4 208.6,392.5 C210.8,392.2 213.3,391.3 214.1,390.5 C215.3,389.3 216.4,389.4 222.4,391.3 C226.2,392.6 230.8,394.3 232.5,395.2 C234.7,396.4 235.9,396.5 236.3,395.8 C236.8,395.1 237.8,395.4 239.2,396.7 C240.3,397.7 245,400.1 249.6,401.9 C255.9,404.5 258.1,405 259,404.1 C261.8,401.3 268.9,404.7 267.5,408.2 C267.2,409.1 269.9,411 275.8,414.1 L284.5,418.6 L285.7,413.6 C286.7,409.3 286.6,408.3 285.2,406.8 C282.6,403.9 283.8,401.4 287.8,401.3 C290.3,401.3 292.4,400.2 295.3,397.7 C297.5,395.7 300.5,393.1 302.1,391.8 L304.9,389.4 L299.4,385.2 C270.7,363.2 278.2,319.6 315.7,289.7 C328.8,279.2 340.1,274.9 354.9,274.9 C368.3,274.9 380,279.9 388.7,289.5 C394.1,295.4 397.1,302 399.4,313.3 C400.2,317.1 401.1,320.5 401.3,320.9 C401.5,321.3 403.1,321.4 404.7,321.1 C406.7,320.8 408,321.2 408.3,322 C408.7,323 410.3,323.3 414.2,323.1 C417.2,322.9 423.1,323.4 427.3,324.3 C436.3,326.2 450,326.4 454.9,324.8 C459.8,323.1 462.8,320 462.8,316.7 C462.8,313.1 466.7,310.4 470.8,311.3 C472.5,311.6 473.8,311.6 473.8,311.3 C473.8,309.7 464.9,298.1 460,293.3 C452.7,286.2 445.4,281.7 435.3,278.4 C428.9,276.2 426.6,275.9 423.3,276.6 C419.9,277.3 419.3,277.8 419,280.2 C418.8,282.2 417.8,283.3 416,284.1 C414.5,284.6 412.5,285.5 411.6,286 C409.1,287.3 409.2,287.3 407.1,283.2 C405.7,280.5 405.4,278.6 405.9,276.7 C406.6,274.1 406.4,273.9 403,273.4 C400.9,273.1 396.5,272.2 393,271.5 C387.9,270.4 386.8,270.4 387,271.5 C387.2,272.2 387,272.8 386.6,272.8 C384.2,273 383.7,272.7 384,271.3 C384.2,270 382.1,269.1 374.8,267 C345.6,258.7 312.4,242.8 309,235.4 C307.1,231.2 307.5,228.1 310.4,226.3 C312.6,224.8 313.3,224.8 315.8,226 C317.4,226.8 320.7,230.1 323.2,233.3 C335.7,249.4 355.8,259.9 386.3,266.2 C392.9,267.6 400.7,269 403.6,269.4 L408.8,270.1 L408.8,267 C408.8,262.8 412.1,259.5 415.5,260.4 C420,261.5 425.5,265.7 426.8,269.1 C428.7,273.6 431.8,275.7 431.8,272.4 C431.8,271.6 432.7,270.9 433.9,270.9 C435.5,270.9 435.8,271.3 435.3,273 C434.9,274.3 435,274.9 435.5,274.6 C436.1,274.2 437.4,274.6 438.4,275.4 C440.9,277.3 441.8,277.3 441.8,275.3 C441.8,273 444.2,274.2 444.6,276.6 C445,279.1 449.1,281.2 450.6,279.7 C452.1,278.2 456,280.6 455.4,282.7 C455.1,283.9 456.5,285.6 459.8,288.2 C465.5,292.6 473.4,302.7 478.3,312 C481.6,318.4 482,318.7 487.5,320.4 C490.7,321.4 493.6,322.4 494,322.6 C495.5,323.4 497.8,315.5 497.8,309.9 C497.8,304.6 498.1,303.8 500.9,301.5 C504.5,298.4 506.2,298.3 512.5,300.7 C516.1,302.1 519.1,302.5 524.4,302.1 C530,301.8 532.5,302.1 535.9,303.6 C542.9,306.7 545.5,307.1 548.7,305.5 C557.3,301 560.8,294.6 562.8,279.8 C564.1,269.5 568.3,260.3 573.6,255.9 C583.6,247.6 617.8,234.9 630,234.9 C642.9,234.9 658.5,237.8 668.2,242 C673.1,244.1 677.3,245.7 677.5,245.5 C677.7,245.3 677.1,243.8 676.2,242.2 C673.9,238.3 675,234.4 678.8,232.4 C682.8,230.3 684.9,230.5 688.9,233.2 C690.8,234.4 695.1,237.2 698.5,239.2 C702,241.3 705.6,244.5 706.8,246.4 C708,248.3 709.5,249.9 710.1,249.9 C710.7,249.9 713.6,247.4 716.5,244.2 L721.7,238.6 L731,239.2 C743.3,240 744.3,240.4 747.2,245.3 C748.5,247.5 751.7,251.1 754.2,253.2 C759.8,257.8 761.3,260.6 762.8,268.8 C763.4,272.3 764.8,277.4 765.9,280.1 C769.2,288.5 768.6,291.5 762.6,297.1 C759.7,299.7 755.6,302.5 753.5,303.1 C750.8,303.9 748.8,305.5 746.7,308.6 L743.7,312.9 L746.4,313.9 C747.9,314.5 751.3,316.6 754,318.5 C756.6,320.5 759.3,321.9 760,321.7 C760.7,321.5 766.3,319.4 772.5,317 C782.5,313 783.6,312.4 782.7,310.7 C781.5,308.5 782.5,308.4 787.8,310 C791.2,311.1 791.9,310.9 794.9,308.6 C799.8,305 805.4,302.9 810.5,302.9 C814.2,302.9 815.5,303.4 818.2,306.1 C820,307.9 821.7,309.9 821.9,310.4 C822.1,311 825.7,312.4 829.8,313.7 C833.9,315 838.1,316.2 839,316.6 C842,317.5 852,306.5 854.7,299.2 C859.5,286.4 864.7,280.9 872.2,280.9 C876.8,280.9 880.2,282.3 884.6,285.9 C886.6,287.6 889.2,288.9 890.4,288.9 C893.4,288.9 900.1,283.8 904.9,277.7 C924.6,252.7 935.8,219.9 934.5,190.9 C933.9,176.8 931.7,169.3 924.8,158 C919,148.5 918.3,143.8 922.1,139.4 C927.3,133.3 936.8,135.9 941.6,144.7 C943.8,148.6 943.9,149.9 943.9,165.6 C943.7,210.3 932,256 908.3,304.4 C904.2,312.7 897.5,325.2 893.4,332.3 C889.2,339.4 885.9,345.3 886,345.5 C887.9,347.2 898.3,352.4 902.8,353.9 C910,356.3 912.8,356.4 919.8,354.3 C924.1,353 926.4,351.4 932.2,345.5 C936.1,341.5 940.9,336.4 942.8,334 C945.6,330.6 947,329.7 949.6,329.7 C953.6,329.6 956.8,332.3 956.8,335.9 C956.8,342.2 925.3,379.4 904,398.3 L893.9,407.3 L898.9,412.6 C907.5,421.7 909.7,430 906.2,440.2 C904.3,445.7 897.9,451.9 892.1,453.8 C886.3,455.7 871,456.3 863.2,455 C859.4,454.3 853.5,452.4 850.2,450.7 L844,447.6 L824.7,461.6 C814,469.3 791,485.6 773.6,497.7 C728.2,529.3 712.9,540.3 712.8,541.3 C712.8,543.1 721.9,552.7 725.2,554.3 C730.2,556.6 733.9,556.3 747.2,552.4 C760.5,548.5 771.4,547.6 772.4,550.4 C773.4,552.8 771.1,554.6 765.5,555.9 C741.6,561.4 718,567.8 686.1,577.4 C680,579.2 675,583.6 674.2,587.8 C673.8,589.5 673.2,590.9 672.7,590.9 C671.5,590.9 667.6,598.8 668.3,599.9 C668.6,600.4 668.4,601 667.8,601.4 C666.5,602.2 664.3,607.4 661.3,616.9 C657.3,629.7 657.4,628.9 660.2,628.9 C664.3,628.9 669.5,634.6 670.3,640.2 C670.9,644 670.7,645.4 669.3,646.9 C667.7,648.6 667.7,648.8 669.7,649.9 C672.6,651.4 672.3,654 669.1,657 C667.5,658.4 665.8,660.4 665.2,661.4 C664.2,663 663.7,663.2 662.2,662.3 C660.1,661.1 659,656.9 660.7,656.9 C661.3,656.9 661.8,655.7 661.8,654.3 C661.8,652.3 661.4,651.9 659.9,652.4 C658.9,652.7 656.9,652.5 655.4,652 C654,651.4 652.8,651.3 652.8,651.7 C652.8,652.1 652.3,655.3 651.8,658.8 C651,663.2 651,665.5 651.8,666.4 C652.6,667.3 652.5,667.8 651.7,668.1 C650.9,668.4 650.2,672.3 649.7,679.5 L649,690.4 L652.4,694.2 C657.1,699.3 657.1,703.6 652.3,708.3 C650.3,710.3 648.8,712.8 648.8,714.1 C648.8,718.3 650,720.9 651.9,720.9 C653.7,720.9 655.4,722.6 654.5,723.5 C654.2,723.8 653,723.5 651.7,722.9 L649.5,721.7 L650.2,731.9 C650.5,737.6 651.3,742.8 651.9,743.5 C652.5,744.2 652.7,746.1 652.3,747.8 C651.5,751.4 654.8,775 658.9,795.4 C668,840.4 680.1,876.2 696.4,906.2 C699.5,911.8 702.6,916.9 703.3,917.5 C705.5,919.2 708.1,927 708.2,932.4 C708.3,936.7 708,937.5 705.7,938.8 C700,942 688.8,935.5 683.5,926 C680.6,920.9 673.2,901.2 672.1,895.9 C671.8,894.5 670.1,885.8 668.2,876.4 C665.2,861.1 653.8,792.8 653.8,789.9 C653.8,789 653.1,789.1 651.5,790.2 C648.8,792 641.6,793.3 639,792.5 C637.9,792.1 636.3,790.3 635.3,788.4 C634.2,786.6 632.4,784.8 631.1,784.4 C625.8,783.1 625.6,775.1 630.7,772.9 C634.5,771.4 639.3,773.6 640.2,777.4 C640.8,779.6 641.2,779.9 643.1,779.2 C644.3,778.8 646.8,778.4 648.5,778.4 C652.3,778.4 652.6,781.7 646.7,751.4 C641.2,723.3 637.5,709.2 634.7,706.3 C633,704.4 632.4,702.6 632.2,698.1 C631.9,687.8 621.4,665.6 612.7,656.6 C610,653.8 607.6,650.8 607.3,649.7 C606.9,648.7 605.3,647.2 603.6,646.3 C600.9,644.9 600.5,644.9 598.7,646.5 C597.6,647.5 596.8,649.5 596.8,651.3 C596.8,655.8 594.3,658.9 590.8,658.9 C588.9,658.9 586.4,660.2 583.6,662.7 C579.3,666.4 578.4,668.6 580.3,670.2 C580.9,670.7 579.8,670.8 578.1,670.5 C575.4,670.1 574.5,670.4 573.3,672.3 C572.4,673.6 572,675.4 572.4,676.3 C572.8,677.4 572.5,677.9 571.4,677.9 C569.3,677.9 565.8,681.4 565.8,683.5 C565.8,684.5 565.2,684.9 564.3,684.5 C562,683.7 562.5,686.6 564.9,688.7 C568.2,691.4 571.1,698.9 571.2,704.4 C571.2,707.7 570.3,711.3 568.6,715 C566.5,719.7 564.7,721.6 558.6,726.2 C554.5,729.2 550.2,731.9 549.2,732.1 C547.7,732.3 547.2,733.5 546.8,738.4 C546.3,743.8 546.5,744.7 548.8,747.2 C550.8,749.5 551,750.2 549.9,750.9 C546.7,752.8 544.4,749.3 543.5,741.1 C543.2,738.7 542.7,736.5 542.4,736.2 C542.1,735.9 538.6,734.9 534.6,733.9 C527.9,732.3 527.2,732.3 526.1,733.8 C525.4,734.7 524.8,736.4 524.8,737.7 C524.8,739 524,740.2 523.1,740.5 C522.1,740.8 520.3,741.6 519.1,742.1 C517.9,742.7 516.2,742.9 515.4,742.6 C513.2,741.7 513.4,738.9 515.6,738.8 C520.3,738.5 522.6,737.2 524.3,733.9 C525.7,731.2 525.6,731 522.2,728 C518.2,724.4 517.8,724.4 513.6,726.5 C511.4,727.7 510.9,728.4 511.7,729.2 C513.4,730.9 513,732.9 511.1,732.9 C507.3,732.8 503.7,727.9 507.4,727.9 C509.6,727.9 515.8,724 515.8,722.7 C515.8,720.9 509.7,708.9 508.8,708.9 C507.7,708.9 487.9,736.7 471.4,761.4 C467.1,767.9 458.8,783.7 457,788.9 C456,791.7 456.1,792 457.6,791.7 C458.6,791.5 459.2,790.6 459,789.6 C458.8,788.7 459.2,787.9 459.8,787.9 C460.3,787.9 460.8,788.8 460.8,789.9 C460.8,791.3 461.5,791.9 462.9,791.9 C464.7,791.9 465,791.4 464.6,788.7 C464.1,785.6 466.1,780.5 469.3,776.9 C470,776.1 470.5,774.1 470.2,772.4 L469.8,769.4 L471,772.7 C471.9,775.4 472.6,775.9 475.4,775.9 C477.3,775.9 479.1,775.9 479.6,775.9 C480,775.9 480.6,772.9 481.1,769.3 C481.8,763.1 482.2,762.3 486,758.7 C488.3,756.6 490.9,754.9 491.8,754.9 C492.7,754.9 493.9,754.4 494.6,753.7 C495.5,752.8 496.7,752.8 499.6,753.7 C504.5,755.2 507,755.2 504.6,753.8 C503.6,753.3 502.8,752.2 502.8,751.4 C502.8,750.4 504.5,750.1 510,750.3 C516.4,750.6 517.4,750.9 519.5,753.3 C522.4,756.7 522.4,760.3 519.7,763 C517.9,764.8 517.7,765.5 518.7,767 C519.3,768 519.8,769.7 519.8,770.8 C519.8,771.9 520.4,773 521.1,773.2 C522,773.6 522,774 520.9,774.7 C520.2,775.2 519.8,776.1 520.2,776.7 C520.5,777.3 520.4,778 519.8,778.4 C519.3,778.7 518.8,779.9 518.8,781 C518.8,782.1 517.4,784.3 515.6,785.9 C512.5,788.8 512.4,788.9 514.3,790.3 C515.4,791.1 516,792.1 515.5,792.5 C515.1,792.9 514.2,792.7 513.6,792.1 C512.9,791.4 511.6,790.9 510.5,790.9 C509.1,790.9 508.8,791.4 509.3,792.9 C509.7,794.2 509.5,794.9 508.7,794.9 C508,794.9 506.6,795.6 505.6,796.5 C504,798.1 503.8,798 503.2,796.5 C502.8,795.5 503.3,794 504.3,792.9 C506.6,790.4 505.6,789.2 502.3,790.7 C499.9,791.8 495.8,791.1 491.5,788.8 C490.1,788 489.6,788.4 488.8,790.5 C488.2,792 488,793.4 488.3,793.7 C488.8,794.2 486.2,796 482.1,797.8 C479.9,798.8 478.9,800.9 480.6,800.9 C481.1,800.9 482.1,802.8 482.8,805.2 C483.6,807.5 484.5,809.9 485,810.5 C485.4,811.1 485.3,812 484.7,812.6 C483.6,813.7 485.1,818.9 486.6,818.9 C487,818.9 488.9,820.1 490.7,821.6 C496.2,826.2 498.4,834.4 495.3,838.5 C494.5,839.5 493.8,841.2 493.8,842.1 C493.8,843.2 493.3,843.6 492.3,843.3 C491.5,842.9 490.1,843.3 489.2,844 C487,845.8 478.7,845.9 476.9,844.2 C476.2,843.4 474.7,843.1 473.7,843.4 C472.3,843.9 471.8,843.5 471.8,842 C471.8,840.9 470.7,839.2 469.4,838.3 C468,837.5 467.1,836.2 467.4,835.5 C468.2,833.5 463.9,828.9 461.2,828.9 C459.8,828.9 457.7,828.2 456.4,827.4 C455.1,826.5 453.4,826 452.7,826.1 C452,826.3 451.4,825.8 451.3,825 C451.3,824.2 450.7,823.4 450.1,823.2 C449.1,822.8 448.8,825.7 448.8,835.3 C448.8,849.6 451,862.5 455.6,875.9 C458.8,885.4 466.7,901.3 466.8,898.7 C466.8,897.7 467.3,896.9 467.9,896.9 C468.6,896.9 468.7,897.6 468.3,898.7 C467,901.7 467.3,902.3 475.7,915.3 C486.6,932 488.2,935.8 488.3,944 C488.3,953.2 486.7,954.9 478.4,954.7 C470.8,954.5 466.7,956.5 464.3,961.5 C462.5,965.4 462.6,971 464.8,976.4 C465.8,979 466.1,979.2 466.9,977.7 C467.9,976 470.8,975.2 470.8,976.6 C470.8,977 470.3,978.7 469.6,980.5 C468.5,983.6 468.7,984.1 478.1,998.2 C489.3,1014.9 494,1023.4 496.3,1031.6 C499.2,1041.6 499.1,1041.5 505.5,1043.2 C513.7,1045.5 517.2,1045.3 522.4,1042.3 C526.1,1040.1 527.6,1039.8 531.3,1040.3 C533.7,1040.7 537.1,1042 539,1043.2 C541.8,1045.1 542.3,1046.1 542.3,1049.3 C542.3,1054.3 539.1,1056.8 531.7,1057.5 C526.6,1058.1 525.9,1057.8 519.8,1053.8 C513.1,1049.5 506.7,1046.3 501.5,1044.8 L498.5,1044 L499.1,1049.5 C500.2,1060.1 506.2,1070.4 529.8,1101.9 C565.5,1149.5 576.4,1169.5 583.2,1200 C587.1,1217.6 588.1,1229.9 587.5,1251.8 C587,1272 586.1,1277.1 582.8,1278.9 C580.1,1280.3 577.2,1280.1 575.8,1278.4 Z M356.2,1099.2 C352.2,1080.8 349.1,1074.3 340.1,1065.4 C336.4,1061.8 333.1,1058.9 332.7,1058.9 C331.4,1058.9 338.6,1078.7 342.6,1086.4 C346.3,1093.4 353.4,1101.9 355.6,1101.9 C356.4,1101.9 356.6,1101 356.2,1099.2 Z M299.5,865.9 C304.6,865.9 306.8,864.8 306.8,862.4 C306.8,857.1 312.3,856.7 317.3,861.6 L320.1,864.4 L319.3,847.4 C318.9,838.1 318.4,830.1 318.2,829.7 C317.4,828.3 308,825.9 297.8,824.4 C292,823.6 285.7,822.4 283.8,821.9 C281.9,821.3 280,820.9 279.6,820.9 C279.1,820.9 278.8,826.2 278.8,832.8 C278.8,846.2 281.2,856.8 286.1,865.2 L288.9,869.9 L292.8,867.9 C295,866.8 298,865.9 299.5,865.9 Z M334.3,845.7 L336.9,842.6 L334.1,840.3 C332.6,839 329.4,836.6 327.2,835 L323,831.9 L322.4,835.2 C321.8,838.9 323,845.2 324.8,847.4 C327,850 331.4,849.2 334.3,845.7 Z M320.9,819.7 C321.3,819.1 321.9,816.6 322.3,814.1 C323,809.3 321.8,807.5 318.7,808.4 C317.8,808.7 316.5,808.3 315.8,807.4 C315.1,806.6 313.6,805.9 312.4,805.9 C311.2,805.9 309.7,805 309,803.8 C308.2,802.6 307.1,802 306.2,802.3 C305.4,802.6 304.8,802.3 304.8,801.5 C304.8,800.8 304.1,799.6 303.2,798.8 C302.4,798.1 300.7,795.7 299.6,793.5 C298.4,791.2 296.7,788.8 295.7,788.1 C293.4,786.5 293.2,783.9 295.3,783.9 C296.9,783.9 297.4,779.4 295.9,778.5 C293.7,777.1 290,779.9 288.4,784 C286.9,787.7 286.9,788.5 288.1,789.4 C288.8,789.9 290,791.4 290.7,792.6 C291.7,794.5 291.5,795.2 289.7,797 C288.3,798.4 286.9,798.9 285.3,798.5 C283.1,797.9 282.9,798.3 281.2,807.4 C280.2,812.6 279.7,817.1 280,817.4 C280.7,818.1 290.3,819.8 299.5,820.9 C308.7,821.9 320,821.3 320.9,819.7 Z M335.3,816.8 C336.6,815.5 331.1,815.6 328.7,816.9 C327.7,817.5 326.8,818.4 326.8,818.9 C326.8,819.9 333.8,818.2 335.3,816.8 Z M343.1,589.9 C343.7,587.4 342.9,583.8 341.7,584.4 C341.3,584.7 340.5,584.1 339.9,583.2 C339,581.5 338.7,581.6 335.9,584.3 C332.1,588 332,589.7 335.6,590.5 C337.1,590.8 338.8,591.2 339.3,591.4 C341.6,592.2 342.6,591.8 343.1,589.9 Z M303.8,512.9 C305.8,509.1 299.3,497.7 296.2,499.7 C294.1,501.1 293.9,504.8 295.8,507.2 C296.8,508.5 298,510.9 298.4,512.5 C298.8,514.1 299.3,515.8 299.5,516.2 C300.1,517.2 302.6,515.2 303.8,512.9 Z M322.2,465.3 C322.6,464.4 322.6,462.7 322.3,461.5 C321.9,460.2 322.4,460.5 323.5,462.4 L325.2,465.4 L326.2,462.7 C326.7,461.1 327.5,459.9 328,459.9 C328.4,459.9 328.8,459.5 328.8,459 C328.8,458.2 317.7,453.9 315.7,453.9 C315.4,453.9 316.1,456 317.4,458.6 C318.7,461.1 319.8,464.1 319.8,465.1 C319.8,467.3 321.4,467.5 322.2,465.3 Z M352.5,451.2 C355.2,442.5 354.9,428.8 351.9,422.7 C350.7,420.1 348.9,417.4 348.1,416.7 C346.7,415.6 346.7,415.8 348.1,418.6 C351.5,425.2 348.7,434 341.9,438.4 C337.4,441.2 337,442 339.3,443.9 C340.1,444.6 340.8,446.7 340.8,448.5 C340.8,453.1 342.6,452.8 343.3,448.2 C344.3,442.1 344.8,442 344.3,447.9 C343.8,453.1 343.9,453.5 346.5,455.1 C348,456.1 349.6,456.9 350,456.9 C350.4,456.9 351.5,454.3 352.5,451.2 Z M329.3,443 C329,442.4 328.2,441.9 327.6,441.9 C327,441.9 327,442.5 327.8,443.4 C329.2,445.1 330.4,444.7 329.3,443 Z M368.1,417.1 C369,416.1 370.3,413.8 370.9,412.1 C371.5,410.3 372.9,408.4 373.9,407.8 C376.6,406.4 376.5,400.9 373.8,400.2 C372.7,399.9 371.8,399 371.8,398.3 C371.8,397.5 370.9,396.9 369.8,396.9 C368.5,396.9 367.8,397.6 367.8,398.8 C367.8,401.4 365.2,403.2 362.4,402.5 C360.7,402.1 359.8,402.4 359.4,403.5 C358.5,405.9 358.7,409.7 359.8,410.4 C360.4,410.7 360.8,411.7 360.8,412.6 C360.8,414.3 364.5,418.9 365.8,418.9 C366.2,418.9 367.2,418.1 368.1,417.1 Z M629.5,392.8 C630.7,389.7 632,385.4 632.4,383.2 C633,379.3 632.9,379.3 628.8,377.6 C625.3,376.3 623.3,376.2 616.5,376.9 C612,377.5 606.4,378 604,378.1 L599.7,378.4 L602.9,382.7 C606.2,387.1 608.3,387.7 608.3,384.2 C608.3,381 609.1,380.7 613.1,382.4 C617.5,384.2 617.7,385.6 614.1,388.4 C612.6,389.7 611.8,391.1 612.2,391.8 C613.3,393.5 624,398.9 625.8,398.6 C626.6,398.5 628.3,395.9 629.5,392.8 Z M716.6,308 C716.9,307.2 716.5,306.8 715.7,307.1 C715,307.3 714.2,308.1 714,308.8 C713.7,309.6 714.1,310 714.9,309.7 C715.6,309.5 716.4,308.7 716.6,308 Z M705,303.2 L709.1,300.4 L706,299.5 C702.1,298.4 698.7,300.8 699.5,304 C700.2,306.4 700,306.4 705,303.2 Z" id="Shape"></path>
                <path d="M307.3,851.9 C307.6,851.4 308.3,850.9 308.9,850.9 C309.4,850.9 309.8,851.4 309.8,851.9 C309.8,852.5 309.1,852.9 308.2,852.9 C307.4,852.9 307,852.5 307.3,851.9 Z" id="Path"></path>
                <path d="M285.3,842.9 C285,842.4 285.2,841.9 285.7,841.9 C286.3,841.9 286.8,842.4 286.8,842.9 C286.8,843.5 286.6,843.9 286.4,843.9 C286.1,843.9 285.6,843.5 285.3,842.9 Z" id="Path"></path>
                <path d="M299.3,506.9 C299,506.4 299.2,505.9 299.7,505.9 C300.3,505.9 300.8,506.4 300.8,506.9 C300.8,507.5 300.6,507.9 300.4,507.9 C300.1,507.9 299.6,507.5 299.3,506.9 Z" id="Path"></path>
                <path d="M350.8,427.8 C350.8,427.3 351.3,427.1 351.8,427.4 C352.4,427.7 352.8,428.2 352.8,428.5 C352.8,428.7 352.4,428.9 351.8,428.9 C351.3,428.9 350.8,428.4 350.8,427.8 Z" id="Path"></path>
                <path d="M388.3,1262.3 C387.1,1261 387,1260.4 387.9,1259.8 C389.6,1258.8 393.3,1260.3 393.3,1262 C393.3,1264.1 390.3,1264.2 388.3,1262.3 Z" id="Path"></path>
                <path d="M422.6,1245.2 C418.7,1240.6 420.5,1236.6 425.4,1239.1 C429.2,1240.9 430.5,1243.3 428.9,1245.3 C427.1,1247.4 424.5,1247.3 422.6,1245.2 Z" id="Path"></path>
                <path d="M288.8,1237.4 C287.1,1235.3 288.4,1233.9 292.3,1233.9 C294.2,1233.9 296,1234.4 296.3,1234.9 C297.3,1236.5 294.9,1238.9 292.3,1238.9 C291.1,1238.9 289.5,1238.2 288.8,1237.4 Z" id="Path"></path>
                <path d="M662.7,1234.4 C657.1,1230.6 656.1,1225.8 660.2,1222 C663.5,1218.9 668.5,1219.8 673.3,1224.3 C681.8,1232.4 672.6,1241.2 662.7,1234.4 Z" id="Path"></path>
                <path d="M683,1231.7 C681.1,1229.8 681.6,1228.7 684.1,1229.1 C685.3,1229.3 686.3,1230 686.3,1230.8 C686.3,1232.7 684.5,1233.2 683,1231.7 Z" id="Path"></path>
                <path d="M270.3,1226.9 C270,1226.4 270.4,1225.9 271.2,1225.9 C272.1,1225.9 272.8,1226.4 272.8,1226.9 C272.8,1227.5 272.4,1227.9 271.9,1227.9 C271.3,1227.9 270.6,1227.5 270.3,1226.9 Z" id="Path"></path>
                <path d="M282.3,1224.5 C276.4,1221.7 273.1,1218.4 271.8,1214 C270.6,1209.7 271.8,1206.7 276.1,1203.5 C283.7,1197.7 292.2,1198.1 297.9,1204.7 C304.5,1212.1 305.5,1219.3 300.9,1224 C298.4,1226.5 297.2,1226.9 292.6,1226.9 C289.1,1226.9 285.6,1226.1 282.3,1224.5 Z" id="Path"></path>
                <path d="M396.8,1225.5 C396.8,1224.7 397.2,1223.8 397.7,1223.5 C398.8,1222.8 401,1225.3 400.1,1226.2 C398.9,1227.4 396.8,1226.9 396.8,1225.5 Z" id="Path"></path>
                <path d="M443.4,1224.9 C441.7,1223.9 439.8,1221.9 439.1,1220.5 C436.6,1215.7 441.7,1209.9 448.3,1209.9 C451.6,1209.9 454.8,1214.3 454.8,1218.8 C454.8,1226.3 449.6,1229 443.4,1224.9 Z" id="Path"></path>
                <path d="M675,1220.3 C672.1,1218.9 668.1,1215.8 666.1,1213.5 L662.4,1209.2 L660.8,1212.3 C658.5,1216.9 654.6,1217 650.4,1212.5 C646.1,1208 645.2,1204.5 647.4,1201.2 C648.8,1199 649.6,1198.7 652.8,1199.2 L656.6,1199.7 L652.6,1193.7 C650.4,1190.4 647.2,1184.8 645.5,1181.2 C638.2,1165.4 642.4,1157.7 655.8,1162.4 C669.7,1167.3 692.4,1189 698.6,1203.2 C701.6,1210.1 699.1,1217.7 692.8,1220.9 C687.4,1223.7 681.3,1223.5 675,1220.3 Z" id="Path"></path>
                <path d="M398.8,1211.8 C398.8,1211.3 399.3,1211.1 399.8,1211.4 C400.4,1211.7 400.8,1212.2 400.8,1212.5 C400.8,1212.7 400.4,1212.9 399.8,1212.9 C399.3,1212.9 398.8,1212.4 398.8,1211.8 Z" id="Path"></path>
                <path d="M408,1209.7 C406.1,1207.8 406.6,1206.7 409.1,1207.1 C410.3,1207.3 411.3,1208 411.3,1208.8 C411.3,1210.7 409.5,1211.2 408,1209.7 Z" id="Path"></path>
                <path d="M498.5,1210.2 C497.3,1209 497.8,1205.2 499.3,1203.9 C502.9,1200.9 509.5,1206.1 506.2,1209.3 C504.7,1210.9 499.7,1211.5 498.5,1210.2 Z" id="Path"></path>
                <path d="M221.6,1196.5 C211.3,1192.8 202.1,1184.8 197.2,1175.1 C191.5,1163.8 194.2,1151.7 203.8,1146.1 C207.7,1143.7 209.4,1143.4 216.8,1143.4 C223.9,1143.4 226.2,1143.8 230.8,1146 C239.6,1150.2 247,1157 250.8,1164.3 C257.9,1178.5 253.5,1191.7 239.9,1196.5 C235.3,1198.2 226.3,1198.2 221.6,1196.5 Z" id="Path"></path>
                <path d="M431.1,1193.2 C430.4,1193 429.8,1191.8 429.8,1190.7 C429.8,1189.3 430.4,1188.8 432.1,1189.1 C433.5,1189.3 434.3,1190.1 434.3,1191.3 C434.3,1193.4 433.1,1194.1 431.1,1193.2 Z" id="Path"></path>
                <path d="M623.3,1170.9 C623.7,1170.3 624.4,1170.1 624.9,1170.4 C626.3,1171.3 626,1171.9 624.2,1171.9 C623.4,1171.9 623,1171.4 623.3,1170.9 Z" id="Path"></path>
                <path d="M624.4,1155.3 C623.2,1154.2 623,1153.3 623.7,1152.6 C625.1,1151.2 630.1,1153.4 629.5,1155.2 C628.9,1157.1 626.2,1157.2 624.4,1155.3 Z" id="Path"></path>
                <path d="M434.9,1144.6 C433.6,1143 434.4,1141.9 437,1141.9 C438.1,1141.9 438.8,1142.6 438.8,1143.9 C438.8,1146.2 436.6,1146.6 434.9,1144.6 Z" id="Path"></path>
                <path d="M181.3,1117.9 C181,1117.4 181.2,1116.9 181.7,1116.9 C182.3,1116.9 182.8,1117.4 182.8,1117.9 C182.8,1118.5 182.6,1118.9 182.4,1118.9 C182.1,1118.9 181.6,1118.5 181.3,1117.9 Z" id="Path"></path>
                <path d="M664.8,1110.6 C637.6,1102.3 604.7,1084.3 577.8,1062.9 C565.3,1053 548.3,1036.1 541,1026.4 C533.1,1015.9 527.5,1004.1 527,996.8 C526.5,990.5 527.6,987.9 530.8,987.9 C534.3,987.9 535.2,990.5 533.4,995.4 C531.1,1001.3 531.9,1004.3 537.8,1013.2 C546.4,1026 561.7,1039.3 576.3,1046.6 C587.7,1052.3 605.4,1057.4 611.8,1056.7 C615.2,1056.4 615.3,1056.3 615.5,1051.9 C615.6,1049.4 615.7,1046.8 615.7,1046.2 C615.9,1043.9 621.4,1044.8 627.9,1048.2 C631.4,1050 641.5,1055.9 650.3,1061.3 C668.5,1072.5 677.5,1076.9 688.6,1080 C697.9,1082.6 702.7,1084.9 707.6,1089.3 C712.3,1093.5 714.5,1094.6 720.7,1096 C723.5,1096.6 726.1,1097.5 726.5,1098.1 C727.7,1100.2 721.4,1103.9 713.8,1105.5 C707.6,1106.9 704.9,1107 697.9,1106.2 C688.3,1105 684.7,1105.7 680.8,1109.4 C677.1,1112.9 673.4,1113.2 664.8,1110.6 Z" id="Path"></path>
                <path d="M315.5,1107.9 C314.7,1104.7 317.9,1099.4 321.1,1099.1 C323.4,1098.8 323.8,1099.1 323.8,1101.1 C323.8,1102.5 322.4,1104.9 320.5,1106.7 C316.6,1110.4 316.2,1110.6 315.5,1107.9 Z" id="Path"></path>
                <path d="M302.9,1105.5 C301.3,1103.6 302.3,1101.9 304.9,1101.9 C306.4,1101.9 306.9,1102.5 306.6,1104.1 C306.2,1106.8 304.5,1107.4 302.9,1105.5 Z" id="Path"></path>
                <path d="M152.8,1103.4 C140,1097.6 136.8,1083.8 146.2,1075 C150.2,1071.2 157.4,1071 164.3,1074.4 C180.7,1082.4 178.7,1103.4 161.5,1104.6 C158.2,1104.8 155,1104.3 152.8,1103.4 Z" id="Path"></path>
                <path d="M283,1082.3 C278.7,1079.3 281.4,1072.9 287,1072.9 C291.9,1072.9 294.6,1079 291.2,1082.3 C289.2,1084.3 285.9,1084.3 283,1082.3 Z" id="Path"></path>
                <path d="M299.7,1081.7 C299.7,1081.5 299.4,1079.4 299.2,1076.8 C298.6,1071.1 301.5,1066.6 305.7,1067.1 C307.8,1067.3 308.4,1068 308.6,1070.4 C308.8,1072.7 308,1074.5 305.3,1077.7 C302.2,1081.2 300.1,1082.8 299.7,1081.7 Z" id="Path"></path>
                <path d="M133.6,1047.8 C127.2,1044.5 124.2,1037.9 126,1031 C127.1,1026.6 130.7,1023.7 136.6,1022.4 C138.3,1022.1 139.8,1021.2 139.8,1020.6 C139.7,1018.6 134.4,1013.1 131.5,1012 C128,1010.6 128,1008.9 131.7,1008.9 C133.6,1008.9 134.7,1008.3 135,1007.1 C135.4,1005.9 137.2,1004.8 140.3,1003.9 C144.5,1002.7 145.4,1002.8 148.4,1004.4 C152.6,1006.7 153.6,1007.8 154.8,1011.9 C155.6,1014.7 155.4,1015.4 153,1017.8 C151.5,1019.2 149.3,1020.9 148.3,1021.5 C146.4,1022.6 146.4,1022.8 148.9,1025.5 C156.5,1033.8 156.8,1043.5 149.6,1047.9 C145.4,1050.5 138.5,1050.4 133.6,1047.8 Z" id="Path"></path>
                <path d="M288.4,1041.3 C286,1038.9 286.7,1033.9 289.4,1033.9 C292.4,1033.9 295.8,1036.3 295.8,1038.4 C295.8,1042.6 291.4,1044.4 288.4,1041.3 Z" id="Path"></path>
                <path d="M300.8,1039.9 C300.8,1039.4 301.3,1038.9 301.8,1038.9 C302.4,1038.9 302.8,1039.4 302.8,1039.9 C302.8,1040.5 302.4,1040.9 301.8,1040.9 C301.3,1040.9 300.8,1040.5 300.8,1039.9 Z" id="Path"></path>
                <path d="M565.2,1034.4 C564.6,1030.9 565.2,1028.9 566.4,1030.2 C567.4,1031.2 567.7,1037.9 566.8,1037.9 C566.3,1037.9 565.6,1036.3 565.2,1034.4 Z" id="Path"></path>
                <path d="M287,1030.8 C287.2,1030.2 287.8,1029.8 288.3,1029.8 C288.8,1029.8 289.4,1030.2 289.6,1030.8 C289.8,1031.4 289.2,1031.9 288.3,1031.9 C287.4,1031.9 286.8,1031.4 287,1030.8 Z" id="Path"></path>
                <path d="M251,1029.8 C245.8,1028.8 241.5,1025.9 237.7,1020.6 C233.9,1015.4 233.6,1007.9 237.1,1002.8 C239.6,999 246.8,995 251.3,994.9 C262.1,994.8 272.9,1004.5 272.8,1014.1 C272.7,1018.4 269.9,1024.1 267.1,1025.5 C265.8,1026.1 264,1027.3 263.1,1028.1 C260.7,1030.1 256.2,1030.8 251,1029.8 Z" id="Path"></path>
                <path d="M160.5,1021.3 C156.1,1016.9 156,1014.9 160.2,1011.4 L163.9,1008.3 L161.8,1006.4 C160.5,1005.2 159.8,1003.6 160,1002 C160.2,999.9 160.9,999.3 163.5,999.1 C166.2,998.8 167,999.2 168,1001.4 C168.9,1003.5 168.9,1004.5 167.9,1006.1 C166.8,1007.9 167,1008.6 170.2,1011.8 C172.4,1014.1 173.8,1016.5 173.8,1018 C173.8,1024 165.2,1026.1 160.5,1021.3 Z" id="Path"></path>
                <path d="M520.2,1019.3 C520.6,1017.8 521.2,1015.4 521.5,1013.8 C522.2,1010.4 524.8,1007.7 524.8,1010.4 C524.8,1013 521.5,1021.9 520.5,1021.9 C520,1021.9 519.9,1020.7 520.2,1019.3 Z" id="Path"></path>
                <path d="M639.4,1017.3 C639,1016.4 639,1015.4 639.2,1015.2 C640,1014.4 641.8,1016 641.8,1017.5 C641.8,1019.4 640.2,1019.3 639.4,1017.3 Z" id="Path"></path>
                <path d="M107.6,1016.7 C106.9,1016.3 105.3,1015.9 104.1,1015.9 C101.5,1015.9 98.3,1011.6 99.2,1009.4 C99.5,1008.5 101.1,1007.1 102.8,1006.1 C106.1,1004.2 106.5,1002.8 104.3,1000.9 C101.7,998.8 100.6,992.6 102,988.3 C104.4,981.1 114.4,977.5 121.6,981.3 C133.7,987.6 134.2,1002.4 122.4,1006.8 C119.7,1007.9 119.6,1008 121.2,1010.4 C123.1,1013.3 123.3,1016.8 121.6,1017 C116.7,1017.6 108.6,1017.4 107.6,1016.7 Z M114.8,1008.8 C114.8,1008.3 114.1,1007.9 113.3,1007.9 C111.8,1007.9 111.3,1009.1 112.4,1010.2 C113.2,1011 114.8,1010.1 114.8,1008.8 Z" id="Shape"></path>
                <path d="M588.8,1014.4 C588.8,1013.6 589,1012.9 589.2,1012.9 C589.4,1012.9 589.8,1013.6 590.2,1014.4 C590.5,1015.2 590.3,1015.9 589.8,1015.9 C589.2,1015.9 588.8,1015.2 588.8,1014.4 Z" id="Path"></path>
                <path d="M189,1006 C189.2,1005.3 189.7,1004.8 190.1,1004.8 C191.3,1004.9 191,1006.3 189.8,1006.8 C189.1,1007 188.7,1006.6 189,1006 Z" id="Path"></path>
                <path d="M558.4,1002 C558,1001.3 557.9,1000.5 558.2,1000.2 C559.1,999.3 560.1,1000.6 559.6,1002 C559.2,1003.1 559,1003.1 558.4,1002 Z" id="Path"></path>
                <path d="M196.5,1001.2 C195.3,1000.1 195.7,997.2 197.2,996 C199.8,993.8 203.5,997 202.2,1000.4 C201.6,1001.9 197.7,1002.5 196.5,1001.2 Z" id="Path"></path>
                <path d="M212.2,999 C207.8,997.1 205.7,993 206,987 C206.3,982.3 206.7,981.3 208.8,980 C211,978.8 212.1,978.8 217,980.3 C224.6,982.5 228.1,985.6 228,989.9 C227.8,996.5 218.7,1001.8 212.2,999 Z" id="Path"></path>
                <path d="M176.6,987.5 C174.6,983.1 177.4,980.1 182.3,981.3 C185.2,982 186.7,986.2 184.8,988.4 C182.8,990.9 177.9,990.3 176.6,987.5 Z" id="Path"></path>
                <path d="M144.2,986.4 C143.8,985.5 144,984.3 144.6,983.7 C146.2,982.1 149.3,983.2 149.3,985.4 C149.3,988 145.1,988.8 144.2,986.4 Z" id="Path"></path>
                <path d="M522,984.7 C522.3,981.2 524.8,979.5 524.8,982.7 C524.8,985.5 523.8,987.9 522.6,987.9 C522.1,987.9 521.8,986.5 522,984.7 Z" id="Path"></path>
                <path d="M544.2,973.4 C542.8,972 542,970.4 542.3,969.9 C544.2,966.9 552.8,971 551.5,974.2 C550.6,976.7 547.1,976.3 544.2,973.4 Z" id="Path"></path>
                <path d="M513.1,964.9 C504.8,959.9 507,952.6 516.3,954.3 C520.9,955.2 523.8,958.1 523.8,961.9 C523.8,966.9 518.7,968.4 513.1,964.9 Z" id="Path"></path>
                <path d="M209.3,963 C208.7,961.9 210.2,960.7 211.2,961.6 C212.1,962.5 211.9,963.9 210.9,963.9 C210.3,963.9 209.7,963.5 209.3,963 Z" id="Path"></path>
                <path d="M208.8,958.4 C208.8,957.6 209.5,956.9 210.3,956.9 C211.1,956.9 211.8,957.6 211.8,958.4 C211.8,959.2 211.1,959.9 210.3,959.9 C209.5,959.9 208.8,959.2 208.8,958.4 Z" id="Path"></path>
                <path d="M479.8,957.3 C479.8,956.5 480.3,956.1 480.8,956.4 C481.4,956.7 481.8,957.4 481.8,958 C481.8,958.5 481.4,958.9 480.8,958.9 C480.3,958.9 479.8,958.2 479.8,957.3 Z" id="Path"></path>
                <path d="M220.3,952.9 C220,952.4 220.4,951.9 221.2,951.9 C222.1,951.9 222.8,952.4 222.8,952.9 C222.8,953.5 222.4,953.9 221.9,953.9 C221.3,953.9 220.6,953.5 220.3,952.9 Z" id="Path"></path>
                <path d="M662.5,947.1 C658.9,943.5 657.8,940.9 659.7,940.9 C660.8,940.9 667.8,948.9 667.8,950.1 C667.8,951.7 666.1,950.8 662.5,947.1 Z" id="Path"></path>
                <path d="M506.8,947.9 C506.8,945.6 509.2,942 511.5,941 C512.9,940.3 514.2,940 514.4,940.1 C514.6,940.3 513.7,942.4 512.6,944.7 C511.2,947.3 509.7,948.9 508.6,948.9 C507.6,948.9 506.8,948.5 506.8,947.9 Z" id="Path"></path>
                <path d="M130.8,945.8 C130.8,945.3 131.3,945.1 131.8,945.4 C132.4,945.7 132.8,946.2 132.8,946.5 C132.8,946.7 132.4,946.9 131.8,946.9 C131.3,946.9 130.8,946.4 130.8,945.8 Z" id="Path"></path>
                <path d="M231.5,944.3 C230.1,942.9 230.8,940.8 232.6,941.1 C233.5,941.3 234.3,942.1 234.3,942.8 C234.3,944.4 232.5,945.3 231.5,944.3 Z" id="Path"></path>
                <path d="M173.8,935.4 C173.8,934.4 174.5,933.9 175.6,934.1 C177.7,934.5 177.5,936.3 175.4,936.7 C174.4,936.9 173.8,936.4 173.8,935.4 Z" id="Path"></path>
                <path d="M239,932.7 C236.5,932 235.3,930.9 234.2,928.3 C233,925.5 232.3,924.9 231,925.5 C222.6,929.1 214.1,928 207.8,922.3 C194.7,910.5 201.2,892.1 218,893.2 C226,893.7 232.2,897.7 235.8,904.7 C238.2,909.5 238.4,910.5 237.6,915.1 C236.5,920.9 237,922.9 239.6,922.9 C242.1,922.9 245.8,927 245.8,929.7 C245.8,932.6 243.1,933.8 239,932.7 Z" id="Path"></path>
                <path d="M494.2,925.8 C490.2,924.7 487.1,919 488.8,915.9 C490,913.6 493.8,912.4 497.3,913.3 C500.5,914.1 503.7,920.2 502.2,922.6 C500.3,925.6 497.5,926.7 494.2,925.8 Z" id="Path"></path>
                <path d="M738.8,922.8 C737.4,922.4 735.1,921.7 733.6,921.4 C731.9,921.1 730.3,919.7 729.4,918 C728.1,915.5 728.1,914.9 729.5,913 C730.8,911.1 731.6,910.8 734.7,911.3 C738.7,912 742.9,912.7 744.1,912.8 C745.7,913 748.8,917 748.8,919 C748.8,923.1 744.4,924.8 738.8,922.8 Z" id="Path"></path>
                <path d="M627.8,915.5 C624.9,914.6 624.2,913.9 624,911.2 C623.8,908.8 624.2,907.8 625.8,906.9 C631.3,904 637.6,911.1 633.1,915.1 C631.6,916.4 630.7,916.5 627.8,915.5 Z" id="Path"></path>
                <path d="M104.6,914.5 C99,912.5 96.1,910.3 93,905.7 C90.6,902 90.3,900.5 90,891.7 C89.7,885 90.2,879.4 91.3,874.1 C94.9,857.8 106.5,839 118.6,829.9 C126,824.4 128.9,823.2 138,822.1 C150.6,820.5 157.4,822.8 161,830 C163.3,834.4 163.3,839.9 160.8,850.1 C159.7,854.7 158.8,860.4 158.8,862.9 C158.8,869.8 157.3,873.7 151.3,882.8 C145.4,891.7 144.9,892.9 147.3,892.9 C148.1,892.9 148.8,892.5 148.8,891.9 C148.8,890.6 152.5,890.6 153.3,892 C154.2,893.3 151.1,899.9 149.6,899.9 C148.9,899.9 147.4,898.9 146.1,897.7 L143.8,895.6 L135.6,904.1 C128.7,911.1 126.4,912.8 121.9,914.2 C115.6,916.2 109.7,916.3 104.6,914.5 Z" id="Path"></path>
                <path d="M242.2,911.8 C241.2,910.1 243.5,908.2 244.9,909.6 C246.1,910.8 245.3,912.9 243.8,912.9 C243.3,912.9 242.6,912.4 242.2,911.8 Z" id="Path"></path>
                <path d="M493.2,905.7 C492.8,905.1 491.4,904.9 489.9,905.2 C488.1,905.6 486.3,905 484,903.2 C481.2,901.1 480.5,900.9 479.1,902.1 C477.8,903.1 477.6,903.1 478.2,902.1 C479,900.7 476.4,896 474.1,894.6 C473.4,894.2 472.8,892.7 472.8,891.4 C472.8,890.1 472.3,888.7 471.8,888.4 C470.7,887.7 471.2,875.7 472.3,873.9 C473.6,871.8 471.6,869.3 466.2,865.9 C459,861.3 455.2,858.2 455.9,857.5 C456.2,857.1 458.2,858.3 460.4,860 C469.8,867.6 479.7,868.2 478.2,861 C477.7,858.5 477.8,858.5 480.6,861.9 C483.3,865 484.3,865.4 488.5,865.5 C491.1,865.5 494.4,866 495.8,866.4 C497.2,866.9 498.8,867.3 499.5,867.3 C502,867.5 509.6,875 512.2,879.9 C514.8,884.8 514.8,885.2 513.6,890.6 C512.9,893.6 511.7,896.4 511.1,896.6 C510.4,896.9 509.8,897.9 509.8,899 C509.8,900 508.9,901.3 507.7,902 C506.2,902.8 505.9,903.4 506.7,904.2 C508.5,906 508,907.1 505.8,905.9 C504.4,905.2 502.1,905.1 498.8,905.7 C495.6,906.3 493.5,906.3 493.2,905.7 Z" id="Path"></path>
                <path d="M519.7,891.4 C519.7,890.8 519.5,888.4 519.2,885.9 C519,883.5 519,880.8 519.4,879.9 C520.5,876.8 522.6,881.7 522.1,886.2 C521.6,890 519.9,893.8 519.7,891.4 Z" id="Path"></path>
                <path d="M636.5,886.4 C633.5,883.5 637.3,878.4 640.4,881 C642.4,882.6 642.1,885.7 639.9,886.9 C638.4,887.6 637.6,887.5 636.5,886.4 Z" id="Path"></path>
                <path d="M583.8,879 C579.9,877.8 574.5,874.9 572.1,872.7 C570.9,871.6 569.5,871 568.9,871.4 C568.3,871.7 566.4,870.7 564.7,869 C562.2,866.5 561.9,865.6 562.8,864 C564.1,861.4 564.1,860.9 562.5,860.9 C561.7,860.9 560.6,859.8 560,858.4 C558.9,856 559,855.9 560.8,856.9 C562.6,857.9 562.7,857.7 562.1,854.7 C561.3,850.3 556.5,844.8 554.7,846 C549.5,849.3 541.7,844.2 542.6,838 C543.3,833.1 546.8,831.5 552.3,833.6 C554,834.2 557.3,835 559.8,835.4 C562.2,835.7 564.7,836.4 565.4,837 C566.2,837.7 567.7,837.2 570.3,835.4 C572.4,834 575.4,832.9 577.1,832.9 C581.2,832.9 586.8,838.9 589.1,845.9 C592.6,856.3 593.8,858.5 596.8,859.6 C602.2,861.6 605.4,870 602.8,875 C600.5,879.2 591.1,881.2 583.8,879 Z" id="Path"></path>
                <path d="M798.2,874.2 C796.5,872.5 796.5,872.4 798.7,872.1 C801.4,871.7 803.4,873.2 802.4,874.8 C801.4,876.4 800.2,876.2 798.2,874.2 Z" id="Path"></path>
                <path d="M456.3,870.8 C455.3,869.3 456.4,868.5 458.3,869.3 C459.2,869.6 459.6,870.3 459.3,870.9 C458.5,872.2 457.1,872.2 456.3,870.8 Z" id="Path"></path>
                <path d="M615.3,868.9 C611.7,867.5 606,860.2 604.4,855 C602.2,847.4 603.9,842.9 609,842.9 C613,842.9 616.4,846.6 617.3,852 C617.7,854.4 618.7,857.6 619.4,859.1 C622.5,865.1 620.1,870.7 615.3,868.9 Z" id="Path"></path>
                <path d="M190,862 C190.4,860.7 191.8,860.4 191.9,861.6 C191.9,862 191.4,862.5 190.8,862.8 C190.1,863 189.7,862.6 190,862 Z" id="Path"></path>
                <path d="M695.3,859.8 C694.3,858.3 695.6,857.3 696.9,858.6 C697.6,859.3 697.6,859.9 697,860.3 C696.4,860.6 695.6,860.4 695.3,859.8 Z" id="Path"></path>
                <path d="M778.8,858.8 C778.8,858.3 779.3,858.1 779.8,858.4 C780.4,858.7 780.8,859.2 780.8,859.5 C780.8,859.7 780.4,859.9 779.8,859.9 C779.3,859.9 778.8,859.4 778.8,858.8 Z" id="Path"></path>
                <path d="M231,854.1 L228.7,852.3 L231.1,851 C234.6,849.1 237.3,849.9 237.3,852.9 C237.3,856.1 234.2,856.6 231,854.1 Z" id="Path"></path>
                <path d="M495.3,852.9 C494.5,849.4 495.6,846.9 496.9,849 C498.1,850.9 498,855.9 496.9,855.9 C496.4,855.9 495.7,854.6 495.3,852.9 Z" id="Path"></path>
                <path d="M703.3,852.7 C700.3,849.1 700.5,845.6 704,842.6 C706.4,840.6 711.1,841.1 713.9,843.6 C715.4,844.8 715.6,844.7 716.1,842.8 C716.4,841.7 717.1,841 717.7,841.4 C719.1,842.2 719.1,845.6 717.8,846.4 C717.3,846.7 716.8,848.3 716.8,849.8 C716.8,853.5 714,855.9 709.6,855.9 C706.8,855.9 705.4,855.2 703.3,852.7 Z" id="Path"></path>
                <path d="M761,852.9 C758.7,851.9 757.1,849.3 758.2,848.2 C759.2,847.1 765.8,850.8 765.8,852.4 C765.8,854.1 764.4,854.2 761,852.9 Z" id="Path"></path>
                <path d="M622.9,850.3 C619.4,847.4 619,845.9 621.6,845.9 C624.3,845.9 628.7,851.2 626.9,852.3 C626.4,852.7 624.6,851.7 622.9,850.3 Z" id="Path"></path>
                <path d="M640.8,847.2 C635.9,845.4 634.3,840.5 637.6,837.6 C640.4,835.1 644.3,835.5 646.7,838.5 C649.3,841.8 649.3,843.4 646.8,845.9 C644.8,847.9 643.5,848.2 640.8,847.2 Z" id="Path"></path>
                <path d="M722.1,840.9 C717.9,839.2 716.5,833.4 719.6,830.6 C722.1,828.3 725,828.5 728.2,831 C734.1,835.6 729.1,843.7 722.1,840.9 Z" id="Path"></path>
                <path d="M499.8,837.5 C499.2,836.9 498.8,834.8 498.8,832.7 C498.8,825.3 505.9,822.3 511.2,827.5 C516.3,832.7 513.2,838.4 505.1,838.4 C502.7,838.4 500.3,838 499.8,837.5 Z" id="Path"></path>
                <path d="M832.2,836.9 C827.6,834.9 826.3,833.4 825.5,829.4 C824.4,823.6 830.9,817.7 836.5,819.5 C840.6,820.8 842.6,822.2 844.2,825.1 C848.8,832.9 840.8,840.8 832.2,836.9 Z" id="Path"></path>
                <path d="M449.8,834.9 C449.8,834.4 450.3,833.9 450.8,833.9 C451.4,833.9 451.8,834.4 451.8,834.9 C451.8,835.5 451.4,835.9 450.8,835.9 C450.3,835.9 449.8,835.5 449.8,834.9 Z" id="Path"></path>
                <path d="M746.4,834.3 C744.1,832.1 744.4,830.6 746.8,831.9 C747.9,832.5 748.8,833.6 748.8,834.4 C748.8,836.3 748.3,836.3 746.4,834.3 Z" id="Path"></path>
                <path d="M615.1,827.2 C614.4,826.9 613.8,825.9 613.8,824.8 C613.8,822.5 613,822.4 610.6,824.6 C609.6,825.5 608.8,825.7 608.8,825.1 C608.8,824.5 609.3,823.7 609.8,823.4 C611.5,822.4 609.8,820.8 607.8,821.4 C605.6,822.1 604.3,820.1 603.5,814.6 C603,811.4 603.4,810.3 606,807.3 C608.9,804 609.5,803.8 613.1,804.3 C618.5,805.2 622.4,808.2 623.8,812.5 C625.2,816.6 624.3,823.3 622.6,822.3 C621.8,821.8 621.7,822.2 622.2,823.4 C622.7,824.9 622.6,825 621.3,823.9 C619.4,822.4 616.4,823.4 617.2,825.4 C617.8,827 616.9,827.8 615.1,827.2 Z" id="Path"></path>
                <path d="M716.5,825.9 C712.1,825.1 707.1,820.8 708.3,818.9 C710.2,815.9 722.8,821.2 722.8,825 C722.8,827 722.4,827.1 716.5,825.9 Z" id="Path"></path>
                <path d="M689.1,825.2 C686.3,824.7 681.8,819.4 681.8,816.8 C681.8,815.7 683,813.7 684.4,812.2 C686.5,810.1 687.6,809.8 690.5,810.2 C697,811.3 700.6,816.4 698.1,821.2 C697,823.4 692.5,826.5 691.5,825.8 C691.4,825.7 690.3,825.4 689.1,825.2 Z" id="Path"></path>
                <path d="M158,823.7 C154.6,819.3 156.5,814.6 161.7,814.6 C165.4,814.6 166.8,816.1 166.8,820.1 C166.8,824.2 160.5,826.7 158,823.7 Z" id="Path"></path>
                <path d="M495,818.8 C495.2,818.2 495.8,817.8 496.3,817.8 C496.8,817.8 497.4,818.2 497.6,818.8 C497.8,819.4 497.2,819.9 496.3,819.9 C495.4,819.9 494.8,819.4 495,818.8 Z" id="Path"></path>
                <path d="M536.4,816.8 C533.7,813.6 533.5,809.9 535.8,807.5 C537.3,806 544.6,808.7 546.5,811.5 C548,813.9 548,814.2 546.1,816.7 C543.2,820.7 539.7,820.7 536.4,816.8 Z" id="Path"></path>
                <path d="M589.8,817.9 C588.7,816.8 587.8,815.5 587.8,814.9 C587.8,813.4 590.5,813.7 592.2,815.5 C594,817.2 594.3,819.9 592.8,819.9 C592.3,819.9 590.9,819 589.8,817.9 Z" id="Path"></path>
                <path d="M579.3,814.9 C579,814.4 579.4,813.9 580.2,813.9 C581.1,813.9 581.8,814.4 581.8,814.9 C581.8,815.5 581.4,815.9 580.9,815.9 C580.3,815.9 579.6,815.5 579.3,814.9 Z" id="Path"></path>
                <path d="M189.2,812.8 C188.4,811.4 190.3,809.5 191.7,810.3 C192.3,810.7 192.8,811.7 192.8,812.5 C192.8,814.1 190.2,814.4 189.2,812.8 Z" id="Path"></path>
                <path d="M555.2,812.5 C554.2,811.7 553.6,810.8 553.9,810.5 C554.2,810.2 555.3,810.6 556.4,811.3 C557.4,812.1 558,813 557.7,813.3 C557.4,813.6 556.3,813.2 555.2,812.5 Z" id="Path"></path>
                <path d="M503.8,807.9 C503.8,807.4 504.3,806.9 504.9,806.9 C505.4,806.9 505.6,807.4 505.3,807.9 C505,808.5 504.5,808.9 504.2,808.9 C504,808.9 503.8,808.5 503.8,807.9 Z" id="Path"></path>
                <path d="M184.6,806.3 C178.6,803.1 177.2,794.9 181.2,786.3 C183.9,780.5 186.9,777.9 191.1,777.9 C196.7,777.9 203.4,783.3 206.2,790.1 C208.4,795.2 208.2,797.7 205.6,801.6 C201.6,807.3 190.9,809.8 184.6,806.3 Z" id="Path"></path>
                <path d="M665.7,806 C663.6,804.3 663.5,804 665,803.4 C667.8,802.3 670.3,803.3 670.6,805.7 C671,808.5 668.9,808.6 665.7,806 Z" id="Path"></path>
                <path d="M487.8,805.8 C487.8,805.3 488.3,805.1 488.8,805.4 C489.4,805.7 489.8,806.2 489.8,806.5 C489.8,806.7 489.4,806.9 488.8,806.9 C488.3,806.9 487.8,806.4 487.8,805.8 Z" id="Path"></path>
                <path d="M111.8,803.9 C111.8,803.4 112.3,802.9 112.8,802.9 C113.4,802.9 113.8,803.4 113.8,803.9 C113.8,804.5 113.4,804.9 112.8,804.9 C112.3,804.9 111.8,804.5 111.8,803.9 Z" id="Path"></path>
                <path d="M512.4,803 C512,802.4 512.3,800.9 513,799.7 L514.3,797.4 L514.6,799.8 C515,802.4 513.4,804.7 512.4,803 Z" id="Path"></path>
                <path d="M691.5,801.2 C690.3,800.1 690.7,798.9 692.3,798.9 C693.1,798.9 693.8,799.6 693.8,800.4 C693.8,802 692.6,802.4 691.5,801.2 Z" id="Path"></path>
                <path d="M125.3,797.4 C124.8,797.2 123.1,796.8 121.6,796.5 C115.6,795.2 108.8,786.3 108.8,779.9 C108.8,775.4 112.3,769.2 115.9,767.3 C119.9,765.3 129.9,765.3 134,767.3 C138.4,769.5 138.5,769.4 138.6,764.6 C138.8,758 140.2,755.2 144.9,752.8 C148.7,750.9 149.5,750.8 153.6,752 C156.1,752.7 159.5,754.7 161.4,756.6 C164.4,759.6 164.8,760.6 164.8,765.4 C164.8,768.3 165.3,771.1 165.8,771.4 C167.4,772.4 169.8,778.8 169.8,781.9 C169.8,788 160.2,794.2 154.4,791.9 C152.7,791.3 151.9,791.5 151,793 C149.4,795.5 147.1,795.4 145.7,792.7 C144.8,791 144.8,790.3 146.1,789.5 C147.4,788.5 147.3,788 145.4,785.6 L143.2,782.9 L143.6,786.2 C143.9,789.1 143.5,789.9 140.2,792.4 C134.9,796.4 128.7,798.5 125.3,797.4 Z" id="Path"></path>
                <path d="M588.8,795.5 C588.2,794.7 587.8,793 588,791.7 C588.2,789.9 589,789.3 591.5,789.1 C594.2,788.8 595,789.2 595.9,791.3 C596.8,793.3 596.8,794.2 595.8,795.4 C594.2,797.3 590.4,797.3 588.8,795.5 Z" id="Path"></path>
                <path d="M689.3,795.9 C689,795.4 689.2,794.9 689.7,794.9 C690.3,794.9 690.8,795.4 690.8,795.9 C690.8,796.5 690.6,796.9 690.4,796.9 C690.1,796.9 689.6,796.5 689.3,795.9 Z" id="Path"></path>
                <path d="M560.3,791.9 C557.9,789.4 557.7,788.8 558.9,787.3 C559.8,786.1 561.3,785.8 564,786.2 C568.4,786.8 570.8,788.4 570.8,790.8 C570.8,795.6 564.5,796.3 560.3,791.9 Z" id="Path"></path>
                <path d="M602.4,791.3 C599.6,788.4 599.2,786 600.9,782.8 C603.7,777.5 612.6,779.1 614.7,785.1 C616.2,789.2 616.1,789.6 613.8,791.9 C610.9,794.8 605.7,794.5 602.4,791.3 Z" id="Path"></path>
                <path d="M768.8,789.9 C768.8,789.4 769.7,788.9 770.8,788.9 C771.9,788.9 772.8,789.4 772.8,789.9 C772.8,790.5 771.9,790.9 770.8,790.9 C769.7,790.9 768.8,790.5 768.8,789.9 Z" id="Path"></path>
                <path d="M684.8,788.4 C683.9,787.3 682.6,787 680.9,787.4 C678.9,787.8 677.4,787.2 674.8,785 L671.3,782.1 L675.6,782.6 C682,783.4 680.8,779.9 674.2,778.5 C670.7,777.7 666.2,773.6 667.2,772 C667.7,771.3 668.7,771.3 670.4,771.9 C673.8,773.2 673.7,773.3 674.8,770.4 L675.8,767.9 L690.5,767.9 L705.3,767.9 L705.6,771.8 C705.9,776.9 704.4,777.8 701.2,774.4 C698.3,771.3 697.3,771.7 696.5,776.3 C695.3,783.8 691.6,786.3 685.4,783.9 C681.9,782.6 682,784.6 685.6,787.6 C687.1,788.8 687.8,789.8 687.2,789.9 C686.6,789.9 685.5,789.2 684.8,788.4 Z" id="Path"></path>
                <path d="M759.8,785.6 C757.6,784.5 755.4,784.1 753.8,784.5 C746.1,786.5 740.8,784.4 738.2,778.4 C737,775.3 737,774.5 738.2,771.4 L739.7,767.9 L746.5,767.9 C750.3,767.9 753.9,768.4 754.5,769 C755.3,769.8 755.8,769.8 756.2,769 C757,767.8 767.8,767.5 771.6,768.5 C772.8,768.9 773.8,769.9 773.8,770.8 C773.8,771.7 774.4,773.2 775.1,774.1 C775.9,775 776.2,777.3 776,779.4 C775.2,786.3 767.2,789.4 759.8,785.6 Z" id="Path"></path>
                <path d="M550.3,783 C549.5,780.5 550.4,778.9 552.4,778.9 C554.2,778.9 554.2,782.3 552.4,783.8 C551.3,784.8 550.8,784.6 550.3,783 Z" id="Path"></path>
                <path d="M545.9,781.3 C543.5,778.2 543.2,776.7 545.2,777.5 C546.8,778.1 549.4,782.7 548.6,783.5 C548.3,783.8 547.1,782.8 545.9,781.3 Z" id="Path"></path>
                <path d="M581.8,773.5 C581.8,772.7 582.2,771.8 582.7,771.5 C583.8,770.8 586,773.3 585.1,774.2 C583.9,775.4 581.8,774.9 581.8,773.5 Z" id="Path"></path>
                <path d="M596.8,773.3 C596.8,772.5 597.3,772.1 597.8,772.4 C598.4,772.8 598.6,773.5 598.3,774 C597.4,775.4 596.8,775.1 596.8,773.3 Z" id="Path"></path>
                <path d="M573.8,771.8 C573.8,771.3 574.3,771.1 574.8,771.4 C575.4,771.7 575.8,772.2 575.8,772.5 C575.8,772.7 575.4,772.9 574.8,772.9 C574.3,772.9 573.8,772.4 573.8,771.8 Z" id="Path"></path>
                <path d="M539.3,765.8 C538.9,765.2 538.8,764.5 539.1,764.2 C539.9,763.5 543.8,764.9 543.8,766 C543.8,767.3 540.1,767.1 539.3,765.8 Z" id="Path"></path>
                <path d="M603.7,763 C600.3,759.6 600,756.7 602.8,753.9 C607.2,749.5 617,753.5 616.4,759.4 C615.7,766 608.7,768 603.7,763 Z" id="Path"></path>
                <path d="M134.3,761.9 C134,761.4 134.2,760.9 134.7,760.9 C135.3,760.9 135.8,761.4 135.8,761.9 C135.8,762.5 135.6,762.9 135.4,762.9 C135.1,762.9 134.6,762.5 134.3,761.9 Z" id="Path"></path>
                <path d="M530,760.9 C529.3,759.8 529.2,758.9 529.7,758.9 C530.6,758.9 532.1,761.9 531.5,762.5 C531.4,762.7 530.7,761.9 530,760.9 Z" id="Path"></path>
                <path d="M675.3,756.9 C674.5,754.4 675.4,752.8 677.3,753.6 C679.2,754.3 679.3,758.9 677.4,758.9 C676.6,758.9 675.7,758 675.3,756.9 Z" id="Path"></path>
                <path d="M639.8,755.4 C638.8,754.2 638.8,753.5 639.6,752.7 C641.2,751.1 643.8,752.5 643.8,754.9 C643.8,757.3 641.6,757.5 639.8,755.4 Z" id="Path"></path>
                <path d="M555.3,754.9 C555,754.3 555.4,753.6 556.3,753.3 C558.2,752.5 559.3,753.3 558.3,754.8 C557.5,756.2 556.1,756.2 555.3,754.9 Z" id="Path"></path>
                <path d="M112.5,752.6 C110.3,751 110.5,746.1 112.9,744.6 C113.8,744.1 115.7,743.9 117.1,744.3 C120.1,745 121.7,749.2 120.1,751.8 C118.8,753.9 114.8,754.3 112.5,752.6 Z" id="Path"></path>
                <path d="M562.8,752.9 C562.8,752.4 563.3,751.9 563.8,751.9 C564.4,751.9 564.8,752.4 564.8,752.9 C564.8,753.5 564.4,753.9 563.8,753.9 C563.3,753.9 562.8,753.5 562.8,752.9 Z" id="Path"></path>
                <path d="M173.8,750.3 C167.3,748.1 164.6,746.2 162.1,742 C160.5,739.5 159.1,736.1 158.8,734.4 C158.3,731.1 157.6,731 149.1,732.3 C145.6,732.8 144.1,732.4 140.1,730.1 C134.6,726.9 131.8,722.3 131.8,716.6 C131.8,710.7 134.1,707.3 139.3,705.6 C144.9,703.7 148.4,704.5 154.3,709.3 L158.5,712.8 L159.6,710.4 C160.2,709.1 161,706.4 161.4,704.2 C162.2,699.6 166.7,692.9 171.2,689.4 C174.9,686.6 184.8,682.9 188.7,682.9 C197.6,682.9 217.3,695.9 219.8,703.3 C220.6,706 220.6,708.2 219.3,713.4 C217.4,721.9 217.3,721.6 220.4,722.3 C223.8,723.2 222.9,725.5 219.2,725.2 C216.5,725 216.1,725.4 214.6,729.7 C211.1,739.3 203.9,747.1 195.9,749.8 C192.6,750.9 176.8,751.2 173.8,750.3 Z" id="Path"></path>
                <path d="M601.6,749.8 C599.4,748.5 599.3,747.3 601.4,746.5 C603.3,745.8 605.8,747.5 605.8,749.5 C605.8,751.1 604,751.3 601.6,749.8 Z" id="Path"></path>
                <path d="M636.3,747.9 C636,747.4 636.2,746.9 636.7,746.9 C637.3,746.9 637.8,747.4 637.8,747.9 C637.8,748.5 637.6,748.9 637.4,748.9 C637.1,748.9 636.6,748.5 636.3,747.9 Z" id="Path"></path>
                <path d="M550.8,746 C549.3,743.1 549.5,742.9 553.2,742.9 C555,742.9 557.1,742.2 557.8,741.4 C558.5,740.6 559.4,739.9 559.9,739.9 C560.4,739.9 560.8,740.6 560.8,741.4 C560.8,742.2 559.9,742.9 558.8,742.9 C557.7,742.9 556.1,744 555.2,745.4 C553.2,748.4 552.2,748.5 550.8,746 Z" id="Path"></path>
                <path d="M591.3,746.3 C585,744.1 580.9,738 586.6,739.4 C590.3,740.3 596.8,744.8 596.8,746.5 C596.8,748.2 596.4,748.2 591.3,746.3 Z" id="Path"></path>
                <path d="M144.7,739.3 C143.7,738.1 143.8,737.5 145,736.2 C146.9,734.4 148.8,735.2 148.8,737.9 C148.8,740.3 146.3,741.2 144.7,739.3 Z" id="Path"></path>
                <path d="M251.8,739.9 C251.8,738.7 256.3,737.5 257.7,738.4 C259.9,739.7 258.7,740.9 255.3,740.9 C253.4,740.9 251.8,740.5 251.8,739.9 Z" id="Path"></path>
                <path d="M567.5,739.3 C567.1,738.9 566.8,737.7 566.8,736.7 C566.8,735.3 567.4,734.8 569.1,735.1 C570.5,735.3 571.3,736.1 571.3,737.4 C571.3,739.4 568.8,740.6 567.5,739.3 Z" id="Path"></path>
                <path d="M588.8,738.9 C587.7,738.2 587.6,737.7 588.5,736.8 C589.8,735.5 591.8,736.4 591.8,738.5 C591.8,740.1 590.9,740.3 588.8,738.9 Z" id="Path"></path>
                <path d="M152.2,737.4 C151.4,735.5 152.5,733.9 154.8,733.9 C156.7,733.9 158.2,736.4 157.2,738 C156.4,739.4 152.8,739 152.2,737.4 Z" id="Path"></path>
                <path d="M607,736.7 C605.3,735 605.5,731.2 607.4,730.5 C608.9,729.9 613.8,732.2 613.8,733.5 C613.8,733.8 613.3,734.9 612.8,736 C611.6,738.1 608.8,738.5 607,736.7 Z" id="Path"></path>
                <path d="M679.8,736.9 C679.8,736.4 680.2,735.9 680.7,735.9 C681.3,735.9 682,736.4 682.3,736.9 C682.6,737.5 682.2,737.9 681.4,737.9 C680.5,737.9 679.8,737.5 679.8,736.9 Z" id="Path"></path>
                <path d="M627.2,729.4 C626.6,727.9 627.4,725.9 628.6,725.9 C629,725.9 629.8,727 630.5,728.4 C631.5,730.6 631.4,730.9 629.7,730.9 C628.6,730.9 627.5,730.2 627.2,729.4 Z" id="Path"></path>
                <path d="M783.5,729.8 C782.6,729.2 781.4,729 780.9,729.3 C780.4,729.6 779.5,729.2 778.8,728.4 C778.1,727.6 776.9,726.9 776.2,726.9 C775.4,726.9 773.8,725.9 772.7,724.8 C770.9,723 770.2,722.8 768.7,723.8 C765.7,725.6 765.1,725 767.8,722.9 C770,721.2 770.1,721 768.5,720.3 C767.4,719.9 766,720.3 764.8,721.4 C763.7,722.4 762.5,722.9 762.2,722.6 C761.8,722.3 763.1,721.1 764.9,720 C767.4,718.4 767.8,717.8 766.6,717.4 C765.7,717 765.2,716 765.5,715.1 C765.7,714.2 765,712.4 763.9,711.2 C762.7,709.9 762.2,708.7 762.8,708.4 C764.6,707.3 763.9,704.7 761.6,704.1 C759.6,703.6 759.6,703.5 761.3,702.9 C762.8,702.4 763.2,701.2 763.2,697 C763.3,691.3 764.6,689.7 768.8,690.5 C770.2,690.8 772.7,690.3 774.3,689.5 C776,688.6 778.3,687.9 779.5,687.9 C780.7,687.9 782.8,687.5 784.2,687 C786,686.2 787,686.4 787.9,687.5 C788.8,688.6 790.1,688.9 792,688.5 C794,688.1 795,688.4 795.4,689.4 C795.7,690.2 797.5,691.3 799.4,691.9 C801.8,692.7 802.8,693.7 802.8,695.1 C802.8,696.2 803.6,697.3 804.8,697.6 C806.2,698 807.3,699.8 808.5,703.8 C809.5,706.9 810.2,710.1 810.1,710.9 C809.1,718.4 809.1,719.4 810.7,720.6 C812,721.7 811.8,721.8 809.1,721.3 C806.5,720.8 805.8,721 805.8,722.2 C805.8,723 805.1,723.9 804.3,724.3 C803.5,724.6 802.8,725.6 802.8,726.5 C802.8,727.5 802.5,727.9 802.1,727.6 C801.8,727.2 800.4,727.6 799.2,728.4 C796.4,730.2 786,731.1 783.5,729.8 Z" id="Path"></path>
                <path d="M595.2,721.4 C593.7,720.3 593.5,719.7 594.4,718.2 C595.9,715.7 599.2,715.9 599.6,718.5 C600,721.6 597.6,723.2 595.2,721.4 Z" id="Path"></path>
                <path d="M607.5,718.2 C606.3,717.1 606.7,715.9 608.3,715.9 C609.1,715.9 609.8,716.6 609.8,717.4 C609.8,719 608.6,719.4 607.5,718.2 Z" id="Path"></path>
                <path d="M668.4,716.3 C666.5,714.5 666.3,709.8 668,708.1 C669.7,706.4 675.4,706.6 677.2,708.5 C679.1,710.3 679.3,715 677.6,716.7 C675.9,718.4 670.2,718.2 668.4,716.3 Z" id="Path"></path>
                <path d="M859.4,715 C858.3,713.8 857.8,712.6 858.2,712.2 C859.1,711.3 862.1,714.4 861.6,715.9 C861.4,716.6 860.6,716.3 859.4,715 Z" id="Path"></path>
                <path d="M615.3,713.8 C614.3,712.3 615.6,711.3 616.9,712.6 C617.6,713.3 617.6,713.9 617,714.3 C616.4,714.6 615.6,714.4 615.3,713.8 Z" id="Path"></path>
                <path d="M262.8,712.4 C260.8,710 262.2,709.6 264.3,711.9 C265.3,713 265.6,713.9 265.1,713.9 C264.5,713.9 263.5,713.2 262.8,712.4 Z" id="Path"></path>
                <path d="M703.5,713.3 C702.7,712.5 703.6,710.9 704.9,710.9 C705.4,710.9 705.8,711.6 705.8,712.4 C705.8,713.9 704.6,714.4 703.5,713.3 Z" id="Path"></path>
                <path d="M600.8,705.9 C600.8,705.4 601.3,704.9 601.8,704.9 C602.4,704.9 602.8,705.4 602.8,705.9 C602.8,706.5 602.4,706.9 601.8,706.9 C601.3,706.9 600.8,706.5 600.8,705.9 Z" id="Path"></path>
                <path d="M279.8,702.9 C279.8,702.4 280.5,701.9 281.3,701.9 C282.1,701.9 282.8,702.4 282.8,702.9 C282.8,703.5 282.1,703.9 281.3,703.9 C280.5,703.9 279.8,703.5 279.8,702.9 Z" id="Path"></path>
                <path d="M663,702.5 C659.9,700.8 656.8,696.4 656.8,693.7 C656.8,690.9 658.2,688.9 661.8,686.5 C665.2,684.3 668.3,684.5 671.9,687.2 C677.1,690.9 678.5,697.5 674.9,701.2 C672.9,703.3 665.9,704.1 663,702.5 Z" id="Path"></path>
                <path d="M575.5,694.3 C574.5,693.3 574.6,688.7 575.7,687.1 C576.2,686.3 577.4,685.9 578.4,686.1 C581.3,686.6 581.1,694.3 578.3,694.7 C577.1,694.9 575.9,694.7 575.5,694.3 Z" id="Path"></path>
                <path d="M85.1,690.2 C83.1,689.5 83.6,687.9 85.8,687.9 C86.9,687.9 87.8,688.3 87.8,688.8 C87.8,690.1 86.6,690.7 85.1,690.2 Z" id="Path"></path>
                <path d="M320.1,685.4 C319.8,684.5 319.8,683.6 320.1,683.2 C321.2,682.2 325.8,683.9 325.8,685.4 C325.8,687.4 320.9,687.4 320.1,685.4 Z" id="Path"></path>
                <path d="M594.8,682.9 C593.2,679.8 594.3,677.9 597.6,677.9 C603.6,677.9 604.4,684 598.5,684.7 C596.7,684.9 595.6,684.4 594.8,682.9 Z" id="Path"></path>
                <path d="M575.3,681.3 C574.4,680.4 573.8,678.5 574,677 C574.2,674.9 574.9,674.3 577.4,674.1 C582.6,673.6 585.6,678 582.2,681.3 C580.2,683.4 577.4,683.3 575.3,681.3 Z" id="Path"></path>
                <path d="M607.8,679.4 C607.1,678.5 606.7,677.6 607,677.4 C607.3,677.1 608.1,677.5 608.8,678.4 C609.5,679.3 609.9,680.2 609.6,680.4 C609.3,680.7 608.5,680.3 607.8,679.4 Z" id="Path"></path>
                <path d="M182.9,675 C180,672.1 180.1,668.1 183.2,667.3 C187.5,666.3 190.2,667.2 191.2,670.2 C193.2,675.7 187.1,679.2 182.9,675 Z" id="Path"></path>
                <path d="M725.8,673.9 C725,673.4 723,672.9 721.3,672.9 C717.1,672.9 716.3,672.2 713.4,665.5 C709.7,657.1 709.3,653.1 711.8,649.1 C717.3,640.3 729.5,643.6 733.1,655 C735.8,663.3 735.4,667.9 731.5,671.7 C727.8,675.3 727.9,675.2 725.8,673.9 Z" id="Path"></path>
                <path d="M306.9,671.5 C306.3,670.8 306.1,669.4 306.4,668.5 C307,667.1 308,666.9 312.6,667.4 C318.5,668 319.8,668.5 319.8,670 C319.8,671.3 315.1,671.1 314.2,669.7 C313.7,669 313.2,669.3 312.7,670.7 C311.8,673.2 308.6,673.6 306.9,671.5 Z" id="Path"></path>
                <path d="M138.5,667.7 C140.3,665.9 142.1,664.8 142.4,665.2 C143.4,666.2 138.8,670.9 136.9,670.9 C135.8,670.9 136.3,669.9 138.5,667.7 Z" id="Path"></path>
                <path d="M610.8,668.9 C610.8,668.4 611.3,667.9 611.8,667.9 C612.4,667.9 612.8,668.4 612.8,668.9 C612.8,669.5 612.4,669.9 611.8,669.9 C611.3,669.9 610.8,669.5 610.8,668.9 Z" id="Path"></path>
                <path d="M682.4,669 C681.6,667.8 684.9,667.1 687.2,667.9 C689,668.5 689,668.6 687.4,669.2 C685,670.2 683,670.1 682.4,669 Z" id="Path"></path>
                <path d="M604.3,668 C604,667.5 604.2,666.8 604.7,666.5 C605.9,665.7 608.8,666.8 608.8,668 C608.8,669.2 605.1,669.2 604.3,668 Z" id="Path"></path>
                <path d="M743.3,667.8 C742.3,666.3 743.6,665.3 744.9,666.6 C745.6,667.3 745.6,667.9 745,668.3 C744.4,668.6 743.6,668.4 743.3,667.8 Z" id="Path"></path>
                <path d="M192.8,663.9 C191.4,662.9 190.5,661.8 190.8,661.6 C191.1,661.3 192.4,661.9 193.7,663 C196.8,665.5 196,666.3 192.8,663.9 Z" id="Path"></path>
                <path d="M911.6,662.9 C908.4,659.7 908.3,657.9 911.5,659.9 C914,661.5 917.2,665.9 915.8,665.9 C915.2,665.9 913.3,664.5 911.6,662.9 Z" id="Path"></path>
                <path d="M680.2,661.8 C679.2,660 681.5,658.6 684.2,659.3 C687.9,660.2 687.6,662.9 683.9,662.9 C682.2,662.9 680.6,662.4 680.2,661.8 Z" id="Path"></path>
                <path d="M751.3,662 C751,661.5 751.1,660.8 751.6,660.5 C752.8,659.8 756.8,660.9 756.8,662 C756.8,663.2 752.1,663.2 751.3,662 Z" id="Path"></path>
                <path d="M801.5,659.1 C798.7,656.1 797.9,653.6 800.1,654.5 C801.5,655 805.2,660.8 804.6,661.5 C804.3,661.7 802.9,660.6 801.5,659.1 Z" id="Path"></path>
                <path d="M239.8,658.4 C236.1,656.4 234.2,652.5 235.4,649.1 C237.7,642.4 251.1,641.9 255.4,648.4 C257.8,652 256,655.4 250.5,657.9 C245.5,660.2 243.2,660.3 239.8,658.4 Z" id="Path"></path>
                <path d="M680.8,655.2 C676.3,653.4 675.4,646.9 679.3,645.1 C683.1,643.3 685.2,643.6 687.6,646.2 C690.3,649.1 690.4,651.3 687.8,653.9 C685.8,655.9 683.7,656.3 680.8,655.2 Z" id="Path"></path>
                <path d="M769.5,648.3 C767.4,645.5 767.7,644.5 770.2,645.5 C771.1,645.8 771.8,647.2 771.8,648.5 C771.8,651.4 771.7,651.4 769.5,648.3 Z" id="Path"></path>
                <path d="M260.4,642.3 C259.3,641.2 259,640.3 259.6,639.7 C261.2,638.1 264.3,639.2 264.3,641.3 C264.3,643.9 262.4,644.4 260.4,642.3 Z" id="Path"></path>
                <path d="M192.3,639.9 C192.6,639.4 193.7,638.9 194.6,638.9 C196.1,638.9 196.1,639.1 194.8,639.9 C192.8,641.2 191.5,641.2 192.3,639.9 Z" id="Path"></path>
                <path d="M739.8,639.2 C737.4,638.3 734.7,635.6 733.1,632.5 C731.9,630.2 731.9,629.2 732.9,626.8 C735.2,621.2 741,620.3 745.9,624.7 C748.5,627.1 749.1,628.3 749.1,631.9 C749.1,638 745.1,641.1 739.8,639.2 Z" id="Path"></path>
                <path d="M702.3,635.9 C702.6,635.4 704.2,634.9 705.9,634.9 C707.5,634.9 708.8,635.4 708.8,635.9 C708.8,636.5 707.2,636.9 705.2,636.9 C703.1,636.9 701.9,636.5 702.3,635.9 Z" id="Path"></path>
                <path d="M781.6,636.2 C777.9,635.2 780.5,632.9 785.3,632.9 C788.2,632.9 789.6,634.8 787.7,636 C786.2,636.9 784.5,637 781.6,636.2 Z" id="Path"></path>
                <path d="M795.3,634.9 C795,634.4 795.4,633.9 796.2,633.9 C797,633.9 798,634.4 798.3,634.9 C798.6,635.5 798.2,635.9 797.4,635.9 C796.6,635.9 795.6,635.5 795.3,634.9 Z" id="Path"></path>
                <path d="M251.3,632.8 C250.3,631.3 251.6,630.3 252.9,631.6 C253.6,632.3 253.6,632.9 253,633.3 C252.4,633.6 251.6,633.4 251.3,632.8 Z" id="Path"></path>
                <path d="M693.4,629.2 C693,628.3 693.3,627.2 694,626.8 C695.6,625.8 698.3,628.3 697.4,629.8 C696.3,631.4 694.1,631.1 693.4,629.2 Z" id="Path"></path>
                <path d="M235.8,625.6 C235.8,623.7 236.8,622.9 238.4,623.6 C240.5,624.4 240.1,626.9 237.8,626.9 C236.7,626.9 235.8,626.3 235.8,625.6 Z" id="Path"></path>
                <path d="M708.8,622.4 C707.8,621.2 707.8,620.6 708.7,619.5 C710.4,617.4 714.4,616.8 720.8,617.7 C727.7,618.6 728.1,620.6 721.8,622.5 C715.8,624.3 710.3,624.3 708.8,622.4 Z" id="Path"></path>
                <path d="M218.8,620.9 C218.8,620.4 219.5,619.9 220.4,619.9 C221.2,619.9 221.6,620.4 221.3,620.9 C221,621.5 220.3,621.9 219.7,621.9 C219.2,621.9 218.8,621.5 218.8,620.9 Z" id="Path"></path>
                <path d="M226.8,619.9 C226.8,619.4 227.3,618.9 227.8,618.9 C228.4,618.9 228.8,619.4 228.8,619.9 C228.8,620.5 228.4,620.9 227.8,620.9 C227.3,620.9 226.8,620.5 226.8,619.9 Z" id="Path"></path>
                <path d="M241.3,619.9 C241.6,619.4 242.1,618.9 242.4,618.9 C242.6,618.9 242.8,619.4 242.8,619.9 C242.8,620.5 242.3,620.9 241.7,620.9 C241.2,620.9 241,620.5 241.3,619.9 Z" id="Path"></path>
                <path d="M253.8,617.6 C250.9,616.1 250,612.4 252.3,611.6 C254.3,610.8 258.7,612.5 259.4,614.4 C260,615.8 258.3,618.9 256.9,618.9 C256.6,618.9 255.2,618.3 253.8,617.6 Z" id="Path"></path>
                <path d="M262.8,614.9 C262.8,613.6 263.5,612.9 264.6,612.9 C265.7,612.9 267.3,613.8 268.3,614.9 C270.1,616.9 270,616.9 266.5,616.9 C263.5,616.9 262.8,616.5 262.8,614.9 Z" id="Path"></path>
                <path d="M714.4,614 C713.2,612.1 714.8,610.9 718.8,610.9 C722.5,610.9 724.8,612.2 723.1,613.2 C721.1,614.5 715,615 714.4,614 Z" id="Path"></path>
                <path d="M683.5,613.3 C682.5,612.2 683.8,610.9 685.9,610.9 C686.9,610.9 687.8,611.6 687.8,612.4 C687.8,613.9 684.7,614.5 683.5,613.3 Z" id="Path"></path>
                <path d="M284.5,612.2 C284.1,611.9 283.8,610.4 283.8,609 C283.8,606.2 285.2,607.1 286.3,610.7 C286.9,612.8 285.9,613.7 284.5,612.2 Z" id="Path"></path>
                <path d="M708.8,611.4 C708.8,610.6 709.7,609.9 710.8,609.9 C711.9,609.9 712.8,610.6 712.8,611.4 C712.8,612.2 711.9,612.9 710.8,612.9 C709.7,612.9 708.8,612.2 708.8,611.4 Z" id="Path"></path>
                <path d="M215.1,611.2 C213.1,610.5 213.6,608.9 215.8,608.9 C216.9,608.9 217.8,609.3 217.8,609.8 C217.8,611.1 216.6,611.7 215.1,611.2 Z" id="Path"></path>
                <path d="M288.8,610.4 C288.8,609.6 289.3,608.9 289.8,608.9 C290.4,608.9 290.8,609.6 290.8,610.4 C290.8,611.2 290.4,611.9 289.8,611.9 C289.3,611.9 288.8,611.2 288.8,610.4 Z" id="Path"></path>
                <path d="M206.2,609.8 C205.9,609.2 206.1,608.2 206.6,607.7 C207.9,606.4 211.1,608.5 210.2,610 C209.5,611.2 207.1,611.1 206.2,609.8 Z" id="Path"></path>
                <path d="M684.7,605.8 C683.6,605.2 683.6,604.7 684.5,603.8 C685.7,602.6 688.8,603.2 688.8,604.8 C688.8,606.2 686.3,606.8 684.7,605.8 Z" id="Path"></path>
                <path d="M853.4,602.8 C851.9,601.6 848.5,597.4 845.8,593.3 C839.5,584 838.3,583.4 831.9,585.5 C827.8,586.8 826.3,586.9 823.3,585.9 C818.9,584.4 817.4,581.8 818.2,576.5 C818.6,573.7 818,569.7 816.3,563.4 C812.8,550.7 810.5,532.9 811.2,524.3 C812.8,506.2 819.9,490.9 832.8,477.6 C837.5,472.8 842.1,468.9 843.1,468.9 C845.3,468.9 849.8,473.2 849.8,475.3 C849.8,477.8 845,482.6 839.4,485.8 C827.2,492.6 821.8,500 821,510.8 C820.4,519.1 822.1,522.9 827.5,525.6 C832.4,527.9 834.6,532.6 838.6,549.1 C842,563.1 845,570.1 850.7,576.9 C860.2,588.2 865.6,600 862.9,603.3 C861,605.5 856.6,605.3 853.4,602.8 Z" id="Path"></path>
                <path d="M243.5,603.2 C242.1,601.9 242.9,599.9 244.8,599.9 C246.1,599.9 246.8,600.6 246.8,601.9 C246.8,603.8 244.8,604.6 243.5,603.2 Z" id="Path"></path>
                <path d="M231.3,594.9 C231,594.4 231.4,593.9 232.2,593.9 C233.1,593.9 233.8,594.4 233.8,594.9 C233.8,595.5 233.4,595.9 232.9,595.9 C232.3,595.9 231.6,595.5 231.3,594.9 Z" id="Path"></path>
                <path d="M690.2,593.4 C689.8,592.5 690,591.3 690.6,590.7 C692.2,589.1 695.3,590.2 695.3,592.4 C695.3,595 691.1,595.8 690.2,593.4 Z" id="Path"></path>
                <path d="M719.2,579.4 C718.3,577.1 719.5,574.9 721.7,574.9 C722.7,574.9 723.8,575.6 724.2,576.4 C725,578.7 723.8,580.9 721.7,580.9 C720.6,580.9 719.5,580.2 719.2,579.4 Z" id="Path"></path>
                <path d="M135.3,576.1 C133.1,575.7 130.8,573.2 130.8,571.2 C130.8,570.5 132,569.4 133.5,568.8 C135.9,567.9 136.6,568.1 138.5,570.4 C139.8,571.8 140.8,573.4 140.8,573.9 C140.8,575.3 137.6,576.6 135.3,576.1 Z" id="Path"></path>
                <path d="M726,571.3 C722.8,568.8 722.5,566.9 725.3,566.9 C727,566.9 730.2,571.3 729.6,572.8 C729.5,573.4 727.8,572.7 726,571.3 Z" id="Path"></path>
                <path d="M759.3,570.9 C759,570.4 759.2,569.9 759.7,569.9 C760.3,569.9 760.8,570.4 760.8,570.9 C760.8,571.5 760.6,571.9 760.4,571.9 C760.1,571.9 759.6,571.5 759.3,570.9 Z" id="Path"></path>
                <path d="M768.3,565.8 C765.2,563.9 762.8,561.2 762.8,559.7 C762.8,557.8 765.7,559.2 769.1,562.7 C774.4,568.1 774,569.5 768.3,565.8 Z" id="Path"></path>
                <path d="M778.2,559.8 C777.2,558.2 779.2,556.7 783.7,555.9 C789.2,554.9 789.8,556.4 784.9,558.9 C780.3,561.2 779.2,561.3 778.2,559.8 Z" id="Path"></path>
                <path d="M275.4,557.4 C273.4,555.4 274.4,552.9 277.3,552.9 C280,552.9 281.3,555.5 279.7,557.5 C278.2,559.3 277.3,559.3 275.4,557.4 Z" id="Path"></path>
                <path d="M240,550.3 C235.5,547.1 239.2,541.4 244.2,543.7 C247.4,545.1 247.8,549.3 244.9,550.9 C242.4,552.2 242.7,552.2 240,550.3 Z" id="Path"></path>
                <path d="M282.2,549.8 C281.4,548.4 283.3,546.5 284.7,547.3 C286.3,548.3 286,550.9 284.4,550.9 C283.6,550.9 282.6,550.4 282.2,549.8 Z" id="Path"></path>
                <path d="M186.3,548.9 C186.6,548.4 187.1,547.9 187.4,547.9 C187.6,547.9 187.8,548.4 187.8,548.9 C187.8,549.5 187.3,549.9 186.7,549.9 C186.2,549.9 186,549.5 186.3,548.9 Z" id="Path"></path>
                <path d="M206.4,547.4 C205.7,545.6 208,544.4 210.4,545.3 C211.7,545.8 211.8,546.2 210.8,547.4 C209.2,549.3 207.2,549.3 206.4,547.4 Z" id="Path"></path>
                <path d="M83.9,540.7 C80.7,537.4 80.4,535 82.5,532 C85.5,528.1 90,528 93.8,531.8 C95.5,533.4 96.8,535.7 96.8,536.8 C96.8,542.4 87.9,545.1 83.9,540.7 Z" id="Path"></path>
                <path d="M231.3,539.4 C226,534.2 229.9,525.4 237.6,525.4 C242.6,525.4 245.8,528.1 245.8,532.1 C245.8,536.1 244.3,538.6 240.8,540.4 C236.7,542.5 234.1,542.3 231.3,539.4 Z" id="Path"></path>
                <path d="M849.3,530.5 C846.4,528.4 849,525.9 853.9,525.9 C858.5,525.9 858.8,527 855.2,529.8 C852,532.3 851.8,532.3 849.3,530.5 Z" id="Path"></path>
                <path d="M174,526.7 C172.2,524.9 172.6,522.1 174.7,521.4 C178.5,520.2 182,523.7 179.7,526.5 C178.3,528.2 175.6,528.3 174,526.7 Z" id="Path"></path>
                <path d="M186.3,522.3 C184.9,520.9 184.9,520.4 186.1,519.2 C188,517.3 191,518.6 190.6,521.2 C190.2,523.9 188.4,524.4 186.3,522.3 Z" id="Path"></path>
                <path d="M201.2,515.4 C199.8,513.3 199.7,512.3 200.6,510.4 C202.9,505.4 211.8,508.1 211.8,513.7 C211.8,518.2 203.9,519.5 201.2,515.4 Z" id="Path"></path>
                <path d="M217.2,514.4 C216.9,513.6 216.9,512.5 217.2,512 C218.2,510.4 220.8,511.9 220.8,514 C220.8,516.2 218,516.6 217.2,514.4 Z" id="Path"></path>
                <path d="M844.5,506.2 C843.3,505.1 843.7,503.9 845.3,503.9 C846.1,503.9 846.8,504.6 846.8,505.4 C846.8,507 845.6,507.4 844.5,506.2 Z" id="Path"></path>
                <path d="M232.3,504.2 C231.1,503.1 230.8,501.6 231.1,499.3 C231.5,496.9 231.1,495.6 229.8,494.4 C228.7,493.4 227.4,491.1 226.8,489.3 C224.9,483.7 227.4,478.9 233.6,476.3 L237,474.9 L234.9,472.3 C233.7,470.8 232.8,468.7 232.8,467.5 C232.8,466.4 232.1,464.5 231.3,463.5 C230.5,462.4 229.8,460.5 229.8,459.3 C229.8,456.1 234.2,451.2 238.3,449.9 C240.3,449.3 241.6,448.3 241.3,447.8 C240.9,447.3 241.4,446.9 242.2,446.9 C243.1,446.9 243.8,447.3 243.8,447.7 C243.8,448.2 245.6,449.3 247.8,450.3 C250.9,451.7 251.8,452.6 252,454.7 C252.2,459.5 251.8,461.3 249.7,463.5 C248.6,464.7 247.8,466.3 247.9,467 C248.4,469.5 246.8,472.6 244.3,473.9 L241.8,475.3 L245.2,478.8 C247.1,480.8 249.3,484.1 250.2,486.1 C251.7,489.8 251.7,489.9 256.2,489.3 C259.3,488.8 261.3,489.1 262.3,489.9 C264.4,491.6 268.6,489.5 269,486.6 C269.2,485.5 270.5,483.7 272,482.6 C274.3,480.9 275.1,480.8 277.7,481.8 C281.5,483.4 283.2,487.8 281.2,490.8 C280.3,492 279.2,492.9 278.7,492.9 C278.1,492.9 276.3,494.3 274.6,495.9 C271.7,498.8 267.5,499.9 266.3,498 C266,497.4 264.3,497.6 262.2,498.5 C258.7,500 258.4,499.9 254.6,497.4 C252.4,496 250,494.9 249.1,495.1 C248.3,495.3 247,497.2 246.2,499.4 C245.5,501.6 244.1,503.9 243.1,504.6 C240.7,506.5 234.3,506.2 232.3,504.2 Z" id="Path"></path>
                <path d="M202.2,466.4 C201.3,464.1 202.5,461.9 204.6,461.9 C207.1,461.9 209.2,464.4 208.4,466.4 C207.7,468.3 202.9,468.4 202.2,466.4 Z" id="Path"></path>
                <path d="M256.1,460.3 C255.3,458.2 257.4,456.1 258.9,457.6 C260.2,458.9 259.4,461.9 257.8,461.9 C257.2,461.9 256.5,461.2 256.1,460.3 Z" id="Path"></path>
                <path d="M208,453.7 C206.3,452 206.5,448.2 208.4,447.5 C213.2,445.6 216.8,448.3 215,452.4 C213.7,455.1 210.1,455.8 208,453.7 Z" id="Path"></path>
                <path d="M256.8,453.9 C256.8,453.4 257.3,452.9 257.8,452.9 C258.4,452.9 258.8,453.4 258.8,453.9 C258.8,454.5 258.4,454.9 257.8,454.9 C257.3,454.9 256.8,454.5 256.8,453.9 Z" id="Path"></path>
                <path d="M114,452.7 C112.4,451.1 112.5,449.4 114.1,448 C116,446.5 119.1,448.9 118.6,451.5 C118.2,453.8 115.7,454.4 114,452.7 Z" id="Path"></path>
                <path d="M157.8,402.9 C157.8,402.4 158.2,401.9 158.7,401.9 C159.3,401.9 160,402.4 160.3,402.9 C160.6,403.5 160.2,403.9 159.4,403.9 C158.5,403.9 157.8,403.5 157.8,402.9 Z" id="Path"></path>
                <path d="M122.3,395.9 C122,395.4 122.1,394.9 122.7,394.9 C123.2,394.9 124,395.4 124.3,395.9 C124.6,396.5 124.5,396.9 123.9,396.9 C123.4,396.9 122.6,396.5 122.3,395.9 Z" id="Path"></path>
                <path d="M267.5,393.2 C266.3,392.1 266.7,390.9 268.3,390.9 C269.1,390.9 269.8,391.6 269.8,392.4 C269.8,394 268.6,394.4 267.5,393.2 Z" id="Path"></path>
                <path d="M260.8,376.8 C260,375.3 260.1,374.7 261.2,374.3 C263.1,373.6 264.8,374.6 264.8,376.4 C264.8,378.6 261.9,379 260.8,376.8 Z" id="Path"></path>
                <path d="M971.8,374.9 C971.8,373.4 972.3,372.9 973.6,373.1 C974.5,373.3 975.3,374.1 975.3,374.9 C975.3,375.7 974.5,376.5 973.6,376.7 C972.3,376.9 971.8,376.4 971.8,374.9 Z" id="Path"></path>
                <path d="M265.9,367.5 C263.3,364.4 267.3,360.4 270.4,363 C272.5,364.7 271.8,368.3 269.2,368.7 C268.1,368.9 266.6,368.3 265.9,367.5 Z" id="Path"></path>
                <path d="M965.3,355.5 C964.2,354.7 963.7,353.6 964.1,352.5 C965,350.3 968.2,350.8 968.6,353.3 C969.2,356 967.5,357.1 965.3,355.5 Z" id="Path"></path>
                <path d="M993.9,352.3 C992.8,350.9 992.1,349.2 992.4,348.4 C993.3,346.2 1004.7,336.7 1005.8,337.4 C1008.5,339 1006.2,347.8 1002,352.2 C998.8,355.6 996.5,355.6 993.9,352.3 Z" id="Path"></path>
                <path d="M434.8,322.7 C432.9,322.2 429.2,320.2 426.7,318.4 C423.5,316.1 421.7,315.4 421,316.1 C420.4,316.7 419.5,316.8 418.9,316.5 C417.5,315.6 417.5,312.2 418.9,311.7 C420.3,311.2 417.5,305.3 415.6,304.7 C414.6,304.3 414.6,303.9 415.4,302.8 C416,302 416.9,299.2 417.3,296.4 C417.8,292.6 418.8,290.7 421.7,287.8 C432.3,277.1 453.1,282.5 459.4,297.5 C461.2,301.8 461.2,310.3 459.4,313.7 C455.1,322 445.1,325.7 434.8,322.7 Z" id="Path"></path>
                <path d="M927.3,312.5 C924.8,310 924.8,307 927.5,304.7 C930.6,302.1 934.9,308.9 932.7,313.1 C931.4,315.5 930.2,315.4 927.3,312.5 Z" id="Path"></path>
                <path d="M406.2,307.8 C405.2,306.1 407.5,304.2 408.9,305.6 C410.1,306.8 409.3,308.9 407.8,308.9 C407.3,308.9 406.6,308.4 406.2,307.8 Z" id="Path"></path>
                <path d="M396.8,292.4 C396.1,291.6 395,290.9 394.2,290.9 C392,290.9 389.8,287.9 389.8,285 C389.8,279.4 395.2,278.5 398.4,283.5 C399.3,284.8 400.7,285.9 401.4,285.9 C403.7,285.9 405.4,290.5 403.8,292.4 C402.2,294.3 398.4,294.3 396.8,292.4 Z" id="Path"></path>
                <path d="M990.8,287.1 C984.3,283.9 981.7,273.9 985.9,268.5 C988.5,265.2 991.8,265.2 995.6,268.4 C1002,273.8 1003.8,283.2 999.2,286.8 C996,289.3 995.3,289.4 990.8,287.1 Z" id="Path"></path>
                <path d="M220.8,285.9 C220.8,285.4 221.2,284.9 221.7,284.9 C222.3,284.9 223,285.4 223.3,285.9 C223.6,286.5 223.2,286.9 222.4,286.9 C221.5,286.9 220.8,286.5 220.8,285.9 Z" id="Path"></path>
                <path d="M401.3,281.9 C401.6,281.4 402.1,280.9 402.4,280.9 C402.6,280.9 402.8,281.4 402.8,281.9 C402.8,282.5 402.3,282.9 401.7,282.9 C401.2,282.9 401,282.5 401.3,281.9 Z" id="Path"></path>
                <path d="M480.7,280.8 C478.1,278.2 478.6,274.9 481.9,273 C484.3,271.7 484.8,271.7 487.2,273.2 C490,275.1 490.8,279.5 488.6,281.7 C486.8,283.5 483,283.1 480.7,280.8 Z" id="Path"></path>
                <path d="M389.8,276.9 C389.8,276.4 390.5,275.9 391.4,275.9 C392.2,275.9 392.6,276.4 392.3,276.9 C392,277.5 391.3,277.9 390.7,277.9 C390.2,277.9 389.8,277.5 389.8,276.9 Z" id="Path"></path>
                <path d="M455.5,267.3 C450.3,264.6 448.8,262.1 448.8,255.8 C448.8,251.2 452.6,246.5 457,245.4 C464.5,243.5 473.8,250.5 473.8,258 C473.8,261.3 473.2,262.7 470.4,265.5 C468.5,267.4 466.1,268.9 465,268.9 C463.9,268.9 462.4,269.1 461.6,269.4 C460.9,269.6 458.1,268.7 455.5,267.3 Z" id="Path"></path>
                <path d="M409,252.9 C402.3,246.6 407.1,236.6 416,238.3 C420,239 423.8,243.7 423.8,247.8 C423.8,253.8 413.7,257.3 409,252.9 Z" id="Path"></path>
                <path d="M433.7,253 C431.7,251.4 431.5,250.7 432.3,248.3 C433.1,246.1 434.1,245.3 436.3,245.1 C441,244.5 443.6,249.9 440.2,253.3 C438.2,255.4 436.5,255.3 433.7,253 Z" id="Path"></path>
                <path d="M392.8,252.4 C391.2,250.5 392.3,248.9 395.3,248.9 C397.9,248.9 399.2,251.1 397.5,252.8 C396,254.3 394.3,254.2 392.8,252.4 Z" id="Path"></path>
                <path d="M756.6,248.8 C751.1,244.7 753.9,238.2 761.5,237.3 C766.6,236.7 768.3,238 768.3,242.8 C768.3,250.1 762.4,253.1 756.6,248.8 Z" id="Path"></path>
                <path d="M781.3,248.6 C779.5,247.2 779.5,247.1 781.4,239.7 C781.8,238 780.8,236.1 777.4,232.1 C774.9,229.1 772.8,226 772.8,225.2 C772.8,222.9 783.1,209.6 787.2,206.4 C793.2,201.8 798.8,200.7 812.8,201.4 C824.6,202 825.6,201.9 829.7,199.7 C837.8,195.5 839,192.2 837.6,178.4 C837.4,175.9 837.7,175.3 839.6,175.1 C842.3,174.7 844.7,176.4 845.9,179.6 C846.9,182.4 844.1,194 839.9,204 C833,220.4 821.6,235 810.4,241.8 C798.9,248.7 785.7,251.8 781.3,248.6 Z" id="Path"></path>
                <path d="M312.8,247.4 C312.1,246.6 311.8,245.2 312.2,244.4 C313,242.2 316.8,244.3 316.8,246.9 C316.8,249.3 314.6,249.5 312.8,247.4 Z" id="Path"></path>
                <path d="M358.5,248.3 C357.1,246.9 357.8,244.8 359.6,245.1 C360.5,245.3 361.3,246.1 361.3,246.8 C361.3,248.4 359.5,249.3 358.5,248.3 Z" id="Path"></path>
                <path d="M540.8,239.4 C539.4,237.7 540.3,235.9 542.7,235.9 C544.9,235.9 547.2,238.4 546.3,239.9 C545.4,241.4 542.2,241.1 540.8,239.4 Z" id="Path"></path>
                <path d="M287.3,233.9 C287,233.4 287.4,232.9 288.2,232.9 C289.1,232.9 289.8,233.4 289.8,233.9 C289.8,234.5 289.4,234.9 288.9,234.9 C288.3,234.9 287.6,234.5 287.3,233.9 Z" id="Path"></path>
                <path d="M646.3,233.9 C645.5,232.7 648.3,231.5 649.8,232.4 C650.3,232.7 650.8,233.4 650.8,234 C650.8,235.2 647.1,235.2 646.3,233.9 Z" id="Path"></path>
                <path d="M641.1,229 C633.4,225.4 631.4,217 637,211.7 C639.9,209 640.8,208.7 645.1,209.2 C652,209.8 656.3,214.1 656.3,220.4 C656.3,228.7 649.1,232.7 641.1,229 Z" id="Path"></path>
                <path d="M578.2,221.3 C576,220.5 572.6,218.3 570.8,216.4 C567.9,213.4 567.4,212.1 567,207.1 C566.2,196.2 572.6,188.4 582.4,188.4 C586.9,188.4 588.4,189 594.8,193.4 C601.6,198.1 602.5,198.4 608.2,198.4 C615.5,198.4 622.1,195.6 631.8,188.3 C641.4,181 643.9,176.8 644.8,166.8 C645.4,159.6 645.9,158.2 648.2,156.2 C651.1,153.8 652.9,154 656.6,157.2 C659.4,159.8 659.4,164 656.7,166.5 C655.5,167.5 649.8,175.6 644,184.3 C638.1,193.2 630.7,203 627.4,206.3 C614,219.7 592.3,226.3 578.2,221.3 Z" id="Path"></path>
                <path d="M756.3,218.4 C754.6,216.8 753.8,214.9 753.8,212.7 C753.9,202.6 769.9,190 775.8,195.4 C779.8,199 777.1,207.5 769.2,215.9 C763.7,221.7 760.2,222.4 756.3,218.4 Z" id="Path"></path>
                <path d="M325.3,217.4 C323.9,216.1 322.8,214.3 322.8,213.4 C322.8,210.5 327.4,206.9 331.3,206.9 C339.1,206.9 341.5,214.9 334.7,218.4 C330.7,220.5 328.1,220.3 325.3,217.4 Z" id="Path"></path>
                <path d="M523.1,217.8 C518.9,216.6 517.2,213.6 519.4,211.5 C522.3,208.5 529.6,209.9 531.7,213.7 C533.7,217.4 529,219.6 523.1,217.8 Z" id="Path"></path>
                <path d="M460.8,209.4 C457.8,206.2 459,203.6 463.5,203.1 C468.9,202.6 474.7,209.6 470.2,211.3 C466.8,212.6 463.1,211.8 460.8,209.4 Z" id="Path"></path>
                <path d="M742.5,197.5 C742.1,196.6 742.3,195.7 742.8,195.4 C744.1,194.6 746.9,196 746.5,197.3 C745.9,199 743.1,199.2 742.5,197.5 Z" id="Path"></path>
                <path d="M723.3,195.9 C723,195.4 723.2,194.9 723.7,194.9 C724.3,194.9 724.8,195.4 724.8,195.9 C724.8,196.5 724.6,196.9 724.4,196.9 C724.1,196.9 723.6,196.5 723.3,195.9 Z" id="Path"></path>
                <path d="M678.5,195.3 C677.1,193.9 677.8,191.8 679.6,192.1 C680.5,192.3 681.3,193.1 681.3,193.8 C681.3,195.4 679.5,196.3 678.5,195.3 Z" id="Path"></path>
                <path d="M321.1,193.2 C318.8,192.3 319.6,189.7 322.1,190.1 C323.3,190.3 324.3,191 324.3,191.8 C324.3,193.4 322.9,194 321.1,193.2 Z" id="Path"></path>
                <path d="M388.2,190.5 C385.8,188.7 387.1,185.7 390,186.1 C391.4,186.3 392.4,187.2 392.6,188.5 C393,191.1 390.6,192.2 388.2,190.5 Z" id="Path"></path>
                <path d="M561.1,175.3 C560.8,174.5 561,173.3 561.6,172.7 C563.2,171.1 565.8,172.5 565.8,174.9 C565.8,177.3 562,177.7 561.1,175.3 Z" id="Path"></path>
                <path d="M430.8,159.2 C425.5,157.3 423.9,150.3 428,147.5 C431.6,145 435.6,145.5 439,148.9 C441.4,151.4 441.9,152.5 441.3,154.7 C440.3,159.2 435.9,161.1 430.8,159.2 Z" id="Path"></path>
                <path d="M846.6,157.8 C843.7,156.2 844.3,150.5 847.4,148 C850.9,145.2 853.4,145.4 855.4,148.4 C857.1,151 856.7,155.1 854.6,157.6 C853.4,159.1 849,159.2 846.6,157.8 Z" id="Path"></path>
                <path d="M513.4,155.2 C512.2,154 512.8,151.9 514.3,151.9 C515.1,151.9 515.8,152.5 515.8,153.3 C515.8,155 514.4,156.1 513.4,155.2 Z" id="Path"></path>
                <path d="M791.3,139.7 C788.6,137.6 785.8,132.4 785.8,129.4 C785.8,126.5 790.4,122.9 794.1,122.9 C799,122.9 803.8,128.7 803.8,134.6 C803.8,138 803,139.2 800.1,140.8 C796.9,142.4 794.4,142.2 791.3,139.7 Z" id="Path"></path>
                <path d="M667.6,137.8 C663.4,135.4 667.5,126.9 672.8,126.9 C676,126.9 677.8,129.2 677.8,133.3 C677.8,138 672.2,140.5 667.6,137.8 Z" id="Path"></path>
                <path d="M485,125.4 C480,122.8 469,111.5 468.7,108.6 C468.2,104.1 472.9,97.4 477.6,95.8 C481.7,94.5 493.2,95.1 499.2,97.1 C508.5,100.1 513.7,110.6 510.3,119.5 C508.2,125 504.7,127 496.3,127.6 C491.2,128 489.5,127.6 485,125.4 Z" id="Path"></path>
                <path d="M900,114.7 C898.4,113.1 898.5,108.4 900.2,107 C901.2,106.2 902.2,106.4 904.2,108 C907.8,110.8 907.5,115.3 903.8,115.7 C902.4,115.9 900.7,115.4 900,114.7 Z" id="Path"></path>
                <path d="M856.5,110.2 C855.2,109 855.8,105.9 857.2,105.9 C858.8,105.9 861.8,108.5 861.8,110 C861.8,111 857.5,111.2 856.5,110.2 Z" id="Path"></path>
                <path d="M886.8,83.5 C886.8,82.7 887.2,81.8 887.6,81.5 C888.9,80.7 891.1,82.6 890.4,83.8 C889.4,85.4 886.8,85.2 886.8,83.5 Z" id="Path"></path>
                <path d="M897.4,74 C897,73.3 896.9,72.5 897.2,72.2 C898.1,71.3 899.1,72.6 898.6,74 C898.2,75.1 898,75.1 897.4,74 Z" id="Path"></path>
                <path d="M780.7,37.1 C777.8,34.7 778.7,32 782.2,32.6 C785.3,33.2 787.2,35.4 786.4,37.4 C785.7,39.4 783.5,39.3 780.7,37.1 Z" id="Path"></path>
                <path d="M791.2,29.5 C783.3,26 776.8,17.2 776.8,10.2 C776.8,2.8 782.4,-0.8 792.5,0.2 C802.5,1.2 807.8,6.9 807.8,16.4 C807.8,26.9 799.7,33.4 791.2,29.5 Z" id="Path"></path>
            </g>
        </g>
    </g>
</svg>