<?xml version="1.0" encoding="UTF-8"?>
<svg width="1280px" height="650px" viewBox="0 0 1280 650" version="1.1" xmlns="http://www.w3.org/2000/svg" xmlns:xlink="http://www.w3.org/1999/xlink">
    <!-- Generator: Sketch 64 (93537) - https://sketch.com -->
    <title>2174688</title>
    <desc>Created with Sketch.</desc>
    <g id="Page-1" stroke="none" stroke-width="1" fill="none" fill-rule="evenodd" opacity="0.33">
        <g id="2174688" transform="translate(0.000000, -1.000000)" fill="#FF1659" fill-rule="nonzero">
            <g id="Group" transform="translate(640.000000, 325.500000) scale(-1, 1) rotate(-180.000000) translate(-640.000000, -325.500000) translate(0.000000, 0.500000)">
                <path d="M1031.7,644.3 C1019.8,632.5 1019.5,619.5 1031.4,630.5 C1035,633.8 1043,646.5 1043,648.9 C1043,649.2 1041.7,649.5 1040,649.5 C1037.8,649.5 1035.8,648.2 1031.7,644.3 Z" id="Path"></path>
                <path d="M1276.6,643.6 C1276.2,642.9 1276.1,642.1 1276.4,641.8 C1277.3,640.9 1278.3,642.2 1277.8,643.6 C1277.4,644.7 1277.2,644.7 1276.6,643.6 Z" id="Path"></path>
                <path d="M1016.6,622.6 C1014.7,620.6 1014.5,618.2 1016.2,618.7 C1018,619.3 1020.2,623.2 1019.2,623.9 C1018.7,624.2 1017.5,623.6 1016.6,622.6 Z" id="Path"></path>
                <path d="M549,618.3 C549,617.4 549.5,616.3 550.1,616 C551.8,614.9 552.1,616 550.5,618.1 C549.2,619.8 549.1,619.8 549,618.3 Z" id="Path"></path>
                <path d="M459.6,613.4 C458.2,611.7 457,610 457,609.5 C457,609 452.9,604 447.9,598.3 C442.8,592.6 437.1,585.6 435.2,582.8 C433.3,579.9 431.1,577.5 430.4,577.5 C429.7,577.5 428.5,577.2 427.6,576.9 C426.5,576.5 426,576.8 426,577.9 C426,580.3 424.7,579.9 421.5,576.5 C419.9,574.9 417.7,573.5 416.5,573.5 C415.4,573.5 413.7,572.6 412.7,571.5 C410.6,569 412.5,568.8 415.8,571.1 C417.1,572 418.7,572.4 419.4,572.2 C420.2,571.9 421.6,572.2 422.6,572.9 C423.9,573.8 425.3,574 426.8,573.4 C428.7,572.7 428.9,572.2 428,570.6 C426.3,567.3 426.8,564.5 429.1,564.5 C433.6,564.5 447.1,580.8 456.4,597.5 C458.4,601.1 461.4,605.6 463,607.5 C464.6,609.4 466.2,612.2 466.5,613.8 C467.1,616.2 466.9,616.5 464.7,616.5 C463.1,616.5 461.2,615.4 459.6,613.4 Z" id="Path"></path>
                <path d="M770.5,591.5 C768.4,589.2 769.3,587.6 771.8,589.1 C773.7,590.3 774.7,593.5 773.2,593.5 C772.7,593.5 771.5,592.6 770.5,591.5 Z" id="Path"></path>
                <path d="M763.5,581.3 C757.1,579.1 752.7,572.3 756.6,570.8 C760.3,569.4 770.4,578.4 768.5,581.5 C767.8,582.7 767.4,582.7 763.5,581.3 Z" id="Path"></path>
                <path d="M983.2,578.3 C981.8,576.9 981.6,574.5 982.9,574.5 C983.4,574.5 984.3,575.2 985,576 C986.7,578 985,580.1 983.2,578.3 Z" id="Path"></path>
                <path d="M405.1,568.9 C402.1,565.1 402.4,562 405.6,563.2 C407.1,563.8 410,568.6 410,570.5 C410,572.4 407.1,571.5 405.1,568.9 Z" id="Path"></path>
                <path d="M758.5,567.5 C758.2,567 758.4,566.5 758.9,566.5 C759.5,566.5 760,567 760,567.5 C760,568.1 759.8,568.5 759.6,568.5 C759.3,568.5 758.8,568.1 758.5,567.5 Z" id="Path"></path>
                <path d="M942.4,561 C940.5,559.6 940.5,559.6 942.6,559.5 C943.8,559.5 945.3,560.2 946,561 C947.7,563 945.1,563.1 942.4,561 Z" id="Path"></path>
                <path d="M398,560.5 C398,560 398.5,559.5 399,559.5 C399.6,559.5 400,560 400,560.5 C400,561.1 399.6,561.5 399,561.5 C398.5,561.5 398,561.1 398,560.5 Z" id="Path"></path>
                <path d="M1246.4,559 C1246,558.1 1246.2,556.9 1246.8,556.3 C1248.3,554.8 1251.2,556.2 1250.8,558.2 C1250.4,560.5 1247.2,561.1 1246.4,559 Z" id="Path"></path>
                <path d="M391.2,556.3 C389.8,554.9 389.6,552.5 390.8,552.5 C392,552.5 394,554.8 394,556.2 C394,557.8 392.8,557.9 391.2,556.3 Z" id="Path"></path>
                <path d="M964.7,549.7 C962.5,547.3 962.6,546.5 964.9,546.5 C965.9,546.5 967.1,547.2 967.4,548.1 C968.8,551.8 967.4,552.7 964.7,549.7 Z" id="Path"></path>
                <path d="M730.6,545.9 C729.3,544.7 729.2,543.9 730,543.1 C731.3,541.8 734.5,543.5 734.5,545.5 C734.5,547.6 732.4,547.8 730.6,545.9 Z" id="Path"></path>
                <path d="M691.1,541.1 C690.3,540.2 690,539.2 690.4,538.8 C691.3,537.9 693.3,540.1 692.8,541.5 C692.6,542.3 692,542.2 691.1,541.1 Z" id="Path"></path>
                <path d="M806.2,536.5 C801.7,534.5 799.9,531.8 802,530.5 C804.6,528.9 813,534 813,537.2 C813,539 811.3,538.8 806.2,536.5 Z" id="Path"></path>
                <path d="M816,523.7 C813.5,521.6 814,519.2 816.8,520.2 C819,521 822,523.6 822,524.7 C822,526.2 818.3,525.6 816,523.7 Z" id="Path"></path>
                <path d="M946.3,524 C946,523.1 946,522.2 946.3,521.9 C947.2,521 949,522.5 949,524.1 C949,526 947.1,525.9 946.3,524 Z" id="Path"></path>
                <path d="M983.6,523.9 C981.1,521.5 981.7,520.3 984.5,522.1 C987,523.7 987.8,525.5 986.1,525.5 C985.6,525.5 984.4,524.8 983.6,523.9 Z" id="Path"></path>
                <path d="M1204,519.5 C1203.2,518.9 1200,517.8 1197,516.9 C1181.9,512.4 1158.7,496.7 1148.8,484.2 C1146.7,481.5 1145,478.3 1145,477.1 C1145,474.7 1134.4,466.2 1120.7,457.6 C1117,455.2 1114.1,453.1 1114.3,452.8 C1114.9,452.3 1131.4,462.8 1140,469.1 C1146.1,473.6 1146.8,473.9 1153,474 C1158.2,474.1 1160.7,474.7 1165.7,477.3 C1173.6,481.4 1183.6,488.4 1190.7,494.8 C1198.8,502.2 1210.2,516.2 1209.8,518.3 C1209.4,520.3 1206.2,521 1204,519.5 Z" id="Path"></path>
                <path d="M787.2,517.3 C785.5,515.6 785.7,514.5 787.8,514.5 C789.7,514.5 792,516.3 792,517.7 C792,518.9 788.5,518.6 787.2,517.3 Z" id="Path"></path>
                <path d="M820.5,517.5 C820.2,517 820.4,516.5 820.9,516.5 C821.5,516.5 822,517 822,517.5 C822,518.1 821.8,518.5 821.6,518.5 C821.3,518.5 820.8,518.1 820.5,517.5 Z" id="Path"></path>
                <path d="M941.5,513.6 C929.5,508 922.2,499.9 914.6,484.1 C912.2,479 907.8,472 904.9,468.5 C901.9,465.1 898,460.3 896.2,457.9 C894.4,455.5 892.3,453.5 891.5,453.5 C889.9,453.5 886.8,449.3 887.2,447.7 C887.8,445.8 883,440.6 878.5,438.4 C873.1,435.7 871.6,434.1 872.4,432 C872.9,430.6 873.7,430.9 877.5,433.5 C880,435.2 882,437 882,437.5 C882,439 888.1,445.5 889.5,445.5 C890.2,445.5 891,444.8 891.4,444 C892.7,440.4 898.9,443.1 913.3,453.4 C934.5,468.5 943.3,477.5 949.2,490.1 C954.2,500.8 954.3,516.6 949.3,516.4 C948.3,516.4 944.8,515.1 941.5,513.6 Z" id="Path"></path>
                <path d="M588.5,498.5 C587.4,498.1 585.4,496.5 584.1,495.1 C581.2,492 582.4,489.9 586.3,490.9 C589.5,491.7 595,496.2 595,498.1 C595,499.6 591.7,499.9 588.5,498.5 Z" id="Path"></path>
                <path d="M571.5,496.3 C564.3,492.7 553.6,486.2 550.5,483.7 C548.9,482.3 544.3,479.7 540.4,478 C535.9,475.9 530.2,471.9 524.4,466.9 C519.4,462.5 512,456.2 507.9,452.9 C491,438.9 476,422.2 476,417.3 C476,409.5 489,419.4 520.5,451.4 C549.7,481 558.4,488.2 569.8,491.9 C575.2,493.7 577.9,496 576.4,497.5 C575.9,498 573.8,497.5 571.5,496.3 Z" id="Path"></path>
                <path d="M816.4,495 C809,493.4 802.5,490.2 794.5,484.2 C785.6,477.6 781.8,473.7 782.2,471.7 C782.7,468.9 786.2,469.2 792.5,472.6 C795.7,474.3 801.9,476.7 806.1,478 C815.8,480.8 822.8,484.8 823.6,487.9 C823.9,489.2 825.2,491.3 826.6,492.6 C830.9,496.7 827.6,497.5 816.4,495 Z" id="Path"></path>
                <path d="M754.9,492 C746.4,488.9 740.2,482.9 742.8,480.3 C745.3,477.8 762.4,489.4 760.6,492.4 C759.7,493.7 759.5,493.7 754.9,492 Z" id="Path"></path>
                <path d="M680.5,484.7 C675.4,483.5 673.7,481.2 669.6,469.4 C667.3,462.9 659.6,457.3 636.5,445.1 C631.6,442.5 625.9,439.1 624,437.7 C616.8,432.3 597.4,412.5 586,399 C570.3,380.3 569.8,379.9 562.5,379.1 C554.8,378.2 545,373.5 541.6,369 C540.2,367.2 538.7,363.7 538.4,361.3 C538.1,358.9 537.3,356.2 536.6,355.3 C534.4,352.3 495.5,324.5 493.4,324.5 C487.3,324.5 471.9,316.8 465.8,310.7 C463.2,308.2 460.2,304.3 459.1,302 C456.9,297.4 453.6,294.1 443.4,286.9 C439.2,283.9 436.5,282.5 436.2,283.3 C436,284 434.8,284.5 433.5,284.5 C430.4,284.5 423,281.8 420.9,279.9 C420,279.1 416.6,277.7 413.5,276.9 C410.3,276 404,273.4 399.5,270.9 C395,268.5 390.6,266.5 389.7,266.5 C388.8,266.5 388,266.1 388,265.6 C388,264 372.8,259.6 348.5,254.4 C343,253.2 336.3,251.7 333.5,251 C328,249.6 326.3,250.3 327.9,253.3 C329.7,256.6 361.6,286.3 374.9,296.9 C387.3,306.9 397.8,316.3 395,314.9 C390.9,312.8 366.1,293.2 352,280.9 C320.2,253.1 319,252.1 316.8,254.3 C316.1,255 314.3,255.5 312.8,255.5 C311.3,255.5 310,256 310,256.6 C310,258.5 314.1,263.7 323.5,273.6 C334.7,285.7 339.7,289.8 358.5,302.4 C375,313.4 411.2,339.1 417.9,344.4 C420.2,346.2 421.9,347.9 421.7,348.2 C421.4,348.4 415,344.2 407.4,338.7 C399.7,333.3 391.5,327.4 389,325.6 C381.7,320.4 352.9,301.5 352.4,301.5 C351.1,301.5 379.4,327 389.5,335 C400.5,343.7 415.7,358.5 423.2,367.8 C427.6,373.2 431,377.8 430.7,378.1 C430.5,378.4 423.8,372 415.9,364 C408,355.9 397.5,346 392.5,341.9 C387.6,337.8 379.7,331.3 375,327.4 C359.8,314.8 327.9,291.3 310.5,279.9 C301.2,273.7 289.7,266 285,262.7 C280.3,259.5 270,253.3 262,249 C254,244.7 245,239.6 242,237.7 C239,235.7 229.3,230.8 220.5,226.8 C201.8,218.2 198.3,215.9 192.9,209.1 C190.1,205.6 187.4,203.5 184.2,202.2 C177.8,199.8 165.8,197.3 164.9,198.2 C164.5,198.7 164.7,201.2 165.3,203.9 C166.1,207.5 167.4,209.8 170,212.1 C177.7,219.2 197.9,235.5 204.6,240.1 C208.5,242.8 214.3,247 217.5,249.5 C220.6,252 228.7,258.2 235.4,263.4 C247.6,272.8 250.9,275.6 248,274 C246.1,272.9 214,251.2 203.3,243.7 C198.8,240.6 192.5,236.2 189.3,234 C186.1,231.8 179.3,226.9 174.2,223.1 C164.1,215.6 161.3,214.6 149.3,214.5 C140.9,214.5 139,215.1 139,217.6 C139,220.6 164.3,246 172.4,251.2 C176.2,253.7 182,257.9 185.2,260.6 C188.5,263.3 193,266.5 195.3,267.7 C197.6,268.8 202.4,272.6 206,276 C209.6,279.4 216.6,284.9 221.5,288.3 C229.2,293.4 242.1,303.3 258.4,316.7 C261.3,319.1 263.5,319.9 266.9,320.1 C272.3,320.5 275.9,322.8 278.3,327.7 C283.8,338.7 268.6,340.8 262.2,329.9 C260.8,327.4 260.1,325 260.4,323.3 C260.9,321 260.5,320.4 258.4,319.9 C257.1,319.6 255.4,318.5 254.7,317.5 C254.1,316.6 252,315 250.3,314.1 C248.5,313.2 247,312.1 247,311.7 C247,310.7 230.3,297.9 224.6,294.5 C222.2,293.1 216.3,288.8 211.4,284.9 C206.5,280.9 200.4,276.4 197.9,274.9 C195.4,273.3 189.3,269 184.4,265.3 C173.3,256.9 166.2,252.9 164.8,254.3 C163.8,255.3 202.9,295.5 266.5,359 C278.6,371.1 292.8,385.5 298,391.1 C307.4,401 313.7,405.5 328,412.4 C330.5,413.6 335.2,416.3 338.5,418.5 C341.8,420.6 344.8,422.4 345.3,422.4 C345.7,422.5 347,421.4 348.2,420 C352.3,415.2 356.9,417.8 362.1,427.9 C365,433.5 365.3,434.6 364.2,436.9 C362,441.9 356.4,439.6 351.2,431.6 C349.1,428.4 346.5,426 343.7,424.6 C338.9,422.2 329.8,416.7 321.8,411.4 C318.9,409.4 315.4,407.3 314.1,406.6 C312.1,405.5 311.9,405.5 312.8,407.2 C313.4,408.2 314.8,409.9 316,411 C317.2,412.1 320.5,415.7 323.4,419 C326.2,422.3 322.6,419.2 315.5,412 C303.7,400.2 301.6,398.5 292.7,394.1 C287.3,391.4 282.7,388.8 282.3,388.2 C282,387.7 285.6,389.3 290.4,391.7 C295.1,394.2 299,395.9 299,395.5 C299,394.4 208.5,303.9 183,279.4 C153.5,251.1 146.7,245 140.3,240.9 C129.6,234.1 109.5,227.5 99.4,227.5 C88.8,227.5 74.9,222 67.7,215 C65.6,212.9 62.7,208.9 61.3,205.9 C59.9,203 56.5,198 53.8,194.8 L48.7,189.1 L49.4,182.6 C49.9,176.3 49.9,176.1 46.4,172.2 C42.9,168.4 42.8,168 43.2,162.4 C43.9,152.6 49,148 56.9,150.1 C59.8,150.9 61.1,150.8 62.9,149.7 C64.2,148.8 67.8,148.1 71.3,148 C75.6,147.9 79.5,146.9 84,145 C90.1,142.4 91.5,142.2 104.5,142.1 C119,142 123.1,142.9 133.3,148.2 C135.1,149.1 139.9,151 144,152.4 C151,154.8 151.9,154.9 158,153.8 C173.9,150.8 172.5,151.5 175.1,144.7 C176.9,139.6 178.9,139.1 187.3,141.4 C195,143.6 199.3,143.5 212.5,141 C216.4,140.3 224.5,139.1 230.6,138.5 C242.5,137.2 245.2,137.7 249.3,142.3 C250.3,143.3 252.9,145 255.1,146 C258.9,147.7 260.4,147.8 277.3,146.7 C316.9,144 382.1,140.6 394,140.5 L398.5,140.4 L394.5,136.8 L390.5,133.3 L395.6,136.8 L400.7,140.4 L410.6,139.9 C416,139.6 445.7,139 476.5,138.5 C507.3,138.1 533.2,137.4 534,137 C534.8,136.7 536.4,135 537.5,133.3 C539.3,130.6 540.1,130.3 545,130.1 C548.1,129.9 553.5,129.1 557,128.3 C566.8,125.9 575.1,124.5 580.1,124.5 C585.6,124.4 583.4,122.8 576.6,121.9 C573.3,121.4 571.4,121.7 569.6,122.9 C566.5,124.9 564,125 564,123.1 C564,122.3 563.1,121.4 562.1,121 C559.4,120.2 553.1,113 551.4,108.8 C549.5,104.4 550.3,101.7 554.7,97.9 L558.2,94.8 L554.6,92.6 C552.7,91.4 549.5,88.5 547.6,86.3 C544.4,82.6 543.4,82.1 535.3,80.5 C515.1,76.3 493.9,75.1 488,77.7 C486.1,78.6 482.4,81.3 479.8,83.9 C473.6,90.1 468.4,90.2 465.4,84.3 C463.5,80.7 464.2,77.3 467.6,72.8 C469.5,70.3 471.2,69.4 475.7,68.5 C481.6,67.2 484.8,67.6 497,71 C500,71.9 507.9,73.7 514.5,75 C521.1,76.4 529.6,78.2 533.4,79 C537.2,79.8 540.5,80.3 540.7,80.1 C542,78.9 511.6,66.1 489.5,58.5 C432.7,39.1 374,25.3 332.4,21.5 C325.8,20.9 312.7,18.9 303.4,17 C294.1,15.1 285.2,13.5 283.5,13.5 C281.9,13.5 279.8,13 279,12.4 C277.9,11.6 279,11.5 283,11.9 C286,12.2 294.1,13 301,13.5 C314.8,14.6 320.3,15.5 336.5,19 C342.6,20.3 356.8,23 368.2,24.9 C405.1,31.2 419,34.4 453.5,44.2 C472.4,49.5 515.7,63.8 528.4,68.9 C533.3,70.8 537.8,72.2 538.3,71.8 C538.9,71.5 539.9,72 540.6,73 C541.5,74.3 544,75 549.3,75.5 C558.4,76.4 565.9,79.7 572.7,85.8 C579.6,91.9 601.7,102.4 605.2,101.3 C606.1,101 606.3,98.3 606.1,92.1 C605.8,82.9 606.6,80.5 610.2,80.5 C612.7,80.5 616.5,83.2 626.5,92 C633.1,97.8 635.5,99.3 640.1,100.4 C645.5,101.7 645.9,101.7 648.8,99.5 C651.8,97.3 652.3,97.2 657.5,98.4 C661,99.2 665.5,99.4 669.5,99 C674.7,98.4 676.9,98.7 681.2,100.3 C687.5,102.7 700.4,104.5 711.6,104.5 C719.2,104.5 722.6,105 746,109.4 C773.9,114.6 795.7,125.1 811.5,140.9 C814.8,144.2 823.1,150.7 830,155.4 C846.8,166.8 872.2,183.6 875.7,185.6 C886.9,192.2 917,211.5 917,212.2 C917,212.5 915.5,211.8 913.8,210.7 C912,209.6 906,206.2 900.5,203 C895,199.8 888.9,196.1 886.9,194.8 C885,193.6 883.1,192.5 882.7,192.5 C882.4,192.5 879.7,191.1 876.8,189.4 C873.9,187.6 870.9,186.2 870.3,186.2 C869.6,186.2 869,185.8 869,185.3 C869,184.8 867.3,183.7 865.3,182.7 C863.2,181.8 861.3,180.7 861,180.4 C859.4,178.5 840.9,169.5 838.6,169.5 C832.8,169.5 836.7,172.9 852.5,181.4 C877.5,194.9 900.1,209.3 926,228.4 C932.3,233 939.1,238 941,239.3 C946.2,243.1 970.4,261.7 971.5,262.9 C973.5,264.9 966.2,260 957,253 C897.6,208.4 849.2,180.5 831.3,180.5 C826,180.5 827.1,183.6 834.9,191 C844.3,200 851.2,205.4 869.7,218.4 C878.4,224.5 888,231.5 891,234 C894,236.4 899.3,240.6 902.7,243.2 C906.1,245.9 908.7,248.1 908.5,248.3 C907.5,249.4 885.4,236.8 874.1,228.6 C835.7,201 837.8,202.4 834,202.7 C827.3,203.3 829.2,208 840.9,220 C844.6,223.8 849.4,227.3 853.7,229.4 C857.4,231.3 863.9,235.1 868,237.8 C882.1,247.2 900,259.9 899.6,260.2 C899,260.8 889,255.6 884,252.1 C879.9,249.2 858.5,236.3 853.3,233.6 C850,231.9 849.2,232.2 848.5,235.6 C847.9,238.2 848.3,239.2 851.1,242.2 C853,244.1 857.1,247 860.3,248.7 C863.4,250.4 866,252.3 866,252.9 C866,253.5 864.4,255.1 862.5,256.4 C860.6,257.7 859,259.1 859,259.6 C859,261.6 877.6,273.8 894,282.7 C900.4,286.1 904,287.4 908.5,287.8 C916.8,288.6 924.5,292.8 928.8,298.8 C935,307.4 934.2,316.5 926.8,321.1 C924.7,322.4 923,323.9 923,324.4 C923,325.1 929.4,331.3 958,358 C967.1,366.4 986.2,383.6 997.3,393.3 C1001,396.4 1009,403.7 1015.2,409.3 C1025.3,418.6 1026.5,419.4 1026.8,417.3 C1027.3,413.3 1029.2,409.5 1031.2,408.4 C1035,406.4 1045.1,410.1 1056,417.4 C1058.5,419.1 1061.4,420.5 1062.4,420.5 C1063.5,420.5 1067,422.5 1070.1,425 C1073.3,427.5 1077.6,430.3 1079.7,431.3 C1081.8,432.2 1086.2,434.9 1089.5,437.1 C1092.8,439.3 1098.7,443 1102.5,445.3 C1106.4,447.5 1110.4,450.1 1111.5,451 C1114,453.1 1110.8,451.3 1092,440 L1077.5,431.4 L1084.6,438.7 C1093.9,448.3 1099.1,456.2 1099.7,461.8 C1100.2,465.6 1099.9,466.4 1097.6,468.2 C1083.5,479.3 1043.2,457.6 1030.4,432.1 C1028.6,428.3 1027,424.5 1027,423.6 C1027,422.1 1000.3,397.4 996.2,395.1 C995.3,394.6 996.2,396.2 998.2,398.6 C1004.6,406.4 1004,410.8 996.5,412.5 C990.9,413.8 986.7,412.9 977.5,408.2 C967.8,403.1 956.9,393.2 953.8,386.6 C952.1,382.8 949.5,380.2 940.8,373.4 C934.8,368.8 928.2,364.2 926.2,363.1 C924.2,362.1 919.8,358.7 916.5,355.6 C913.1,352.5 906.4,346.6 901.5,342.5 C896.7,338.4 889,331.6 884.5,327.5 C865.7,310.2 853.6,299.9 850.2,298.1 C848.2,297.1 842.1,293.3 836.7,289.9 C831.3,286.4 826.6,283.5 826.3,283.5 C826,283.5 822.8,281.3 819.1,278.7 C799.7,264.6 787.2,257.5 781.8,257.5 C780,257.5 778.5,258.3 777.4,260 C776,262.2 775.9,263 777.1,265.8 C777.8,267.5 779.1,270.1 780,271.5 C781,272.9 783.4,276.5 785.4,279.6 C789.7,286.1 798.2,294.7 806.2,300.7 C809.4,303.1 815.2,307.6 819.3,310.8 C824.1,314.5 835.9,321.3 853.6,330.4 C921.9,365.5 919,363.8 936.3,379.2 C951.4,392.5 954.1,398.3 951,409.7 C949.6,414.5 947,415.9 940.9,415.2 C925.9,413.4 905.2,397.1 883.5,370.3 C876,361 873,355.7 873,352.1 C873,349 869.4,346.6 846,334 C821.3,320.8 814.8,316.2 799.3,301.1 C794.2,296.2 789.8,292.4 789.5,292.6 C787.9,294.2 794.3,314.8 799.7,325.5 C801.5,329 802.8,332.1 802.6,332.2 C802.3,332.6 797.4,324.5 794.2,318.5 C793.5,317.1 792.1,314.9 791.1,313.6 C789.6,311.6 789.1,311.4 787.3,312.5 C785.5,313.6 784.8,313.4 781.7,311.1 C778.8,308.9 777.8,308.6 776.1,309.4 C775,310 773.4,310.5 772.5,310.5 C770.8,310.5 756.3,296.6 756.7,295.4 C756.8,295.1 754.9,292.4 752.4,289.5 C749.8,286.4 748.1,283.6 748.4,282.8 C749.2,280.9 744.5,275.9 739.8,273.4 C737.7,272.3 736,271.8 736,272.1 C736,272.5 739.6,276.7 744,281.6 C748.4,286.4 752,290.6 752,291 C752,291.4 753,292.5 754.3,293.6 C755.5,294.6 756,295.4 755.4,295.5 C754.8,295.5 753.7,294.9 753.1,294.1 C751.8,292.5 740.1,287.1 739.4,287.8 C739.1,288 745.1,293.4 752.7,299.6 C760.3,305.8 768.1,312.4 770,314.1 C779.7,322.9 781.2,323.5 778.1,317.5 C777.2,315.7 777.9,316.1 780.6,319 C782.7,321.2 785.8,323.7 787.4,324.5 C789.8,325.7 790.6,326.9 791.1,330.1 C791.8,333.8 794.1,336.5 814.7,357.1 C836.7,379.1 835.3,378.3 811,355 C804.7,349 800.5,345.1 801.5,346.4 C803,348.1 803.5,350.4 803.6,354.9 C803.7,358.2 804.3,363.6 804.9,366.9 C805.6,370.1 805.8,373 805.5,373.3 C804.4,374.5 800.7,363.7 800.6,358.8 C800.5,354.8 800.1,353.5 798.8,353.2 C796.9,352.7 791,342.9 791,340.3 C791,339.3 791.7,338.5 792.7,338.5 C794.1,338.5 794.1,338.2 792.2,336.5 C791,335.4 789.4,334.5 788.5,334.5 C787.7,334.5 785.5,332.4 783.6,329.8 C780.1,324.9 775.2,320.3 757,305 C751.2,300.1 744.2,294 741.3,291.3 C736.8,287.2 735.5,286.5 732,286.5 C724.1,286.5 702.1,277.8 693,271.1 C691.1,269.6 678.9,258 666,245.2 L642.5,222 L629.5,215 C611.2,205.2 606.2,202.9 599.4,201 C593,199.1 576.2,192.7 569,189.3 C560.9,185.6 557.5,185.3 547.9,187.9 C545.8,188.5 544.5,188 541.8,185.7 C535.4,180 507.8,174.7 473.1,172.5 C464.6,172 455.4,171.2 452.6,170.9 L447.5,170.2 L456,178.2 C471.7,193 474.9,195.4 482.3,197.6 C492.6,200.7 497,206.4 497.3,217 C497.4,222.4 495.4,227 492.4,228.2 C489.8,229.2 485,226.3 482.1,222.1 C480.5,219.8 478,214.4 476.4,210.1 C473.1,200.7 468.2,194 456.1,182.2 C447.8,174 446.8,173.4 444,174 C441.2,174.6 440.5,174 440.9,171.3 C441.1,170.1 437.7,168.9 434,169 C431.7,169 430.5,169.5 430.5,170.4 C430.5,171.2 429.9,172 429.1,172.3 C428.2,172.6 428,172.2 428.4,170.7 C429,169 428.5,168.6 425.3,168.1 C415.8,166.5 382.9,165.4 329.6,164.8 C283,164.3 271.6,164.5 271,165.5 C269.7,167.6 271.8,171.9 275.9,175.9 C279.4,179.3 280,179.5 281.9,178.3 C283.6,177.3 284.4,177.3 286,178.3 C287.1,178.9 290.1,179.6 292.7,179.7 L297.5,179.8 L292,180.4 L286.5,181 L291.5,183.9 C294.3,185.5 304.2,191.7 313.6,197.7 C327.7,206.6 332.3,208.9 339.4,211 C351.4,214.5 358.3,217.5 370,224.5 C375.4,227.8 382.1,231.5 384.7,232.9 C387.3,234.2 391.5,237.1 394,239.3 C401.3,245.7 426.7,259.2 455.1,271.8 C458.1,273.1 463.5,276.5 466.9,279.3 C470.3,282 475.9,285.8 479.2,287.5 C485.1,290.7 485.3,290.7 488.6,289.1 C490.7,288.2 492,286.8 492,285.6 C492,282.2 494.5,281.2 502.3,281.7 C514.2,282.6 538.9,292.1 553.7,301.7 C557.4,304.2 563.8,309 567.8,312.6 C574.1,318.1 575.1,319.4 574.6,321.6 C574.1,324 574.8,324.7 581.8,328.8 C594.9,336.4 601.3,339.3 609.8,341 C611.6,341.4 615.3,343.2 618.1,345.1 C622.7,348.2 628.6,350.5 631.9,350.5 C632.6,350.5 634.7,352 636.5,353.9 C638.9,356.5 642.2,358.2 649.1,360.6 C665,366.1 671.6,369 676.6,373 C683.7,378.7 684,379.1 678.9,376.1 C676.4,374.7 673.2,373.5 671.9,373.5 C668.5,373.5 645.5,366.8 640.9,364.4 C638.8,363.4 635.9,362.5 634.5,362.5 C630.9,362.5 626.6,360.1 624.6,357 C622.6,353.9 615.8,350.6 611.6,350.5 C609.9,350.5 607.7,349.6 606.6,348.5 C605.4,347.5 602.7,345.9 600.5,344.9 C597.1,343.5 596.8,343.5 597.9,344.9 C599.5,346.8 598.5,348.5 595.9,348.5 C592,348.5 594.1,351.4 599.5,353.4 C610.7,357.6 621,363.6 631.5,372 C633.7,373.8 637.4,376.2 639.7,377.4 C643.9,379.5 645.5,382 644.4,384.8 C643.5,387.3 641.2,387.6 635.2,386.1 C632,385.3 626.2,384.3 622.3,383.9 C611.3,382.9 611.5,384.3 624.2,397.3 C630,403.2 635.3,409 635.9,410.3 C637.8,413.8 635.7,415.7 630.1,415.5 C622.6,415.2 622.7,415.2 625,418.5 C628.3,423.1 626.6,423.8 620.1,420.5 C614.9,417.9 609,412.6 609,410.6 C609,410.1 606.4,408.2 603.3,406.2 C595.7,401.5 592.7,398.3 592.8,394.8 C593.2,387.4 593.6,385.1 594.8,384.8 C595.4,384.5 596,383.4 596,382.2 C596.1,381 596.7,378.9 597.5,377.5 C599.8,373.4 599.3,371.6 593.9,366.3 C591.2,363.5 588.6,359.9 588.3,358.3 C587.9,356.2 586.4,354.7 582.1,352.3 C579,350.5 572.5,346.4 567.5,343.2 C562.6,340 556,336 553,334.4 C550,332.7 546.2,330.6 544.5,329.7 C542.9,328.8 537.9,326 533.5,323.6 C529.1,321.2 524.3,318.2 522.8,317 C521,315.5 517.7,314.4 512.4,313.6 C502.5,312.1 500.8,313.3 506.3,317.7 C509.1,320 510,321.4 510,323.7 C510,325.4 509.3,327.3 508.4,327.9 C507.1,328.9 509.3,330.8 522.7,339.7 C541.8,352.5 543.7,353.5 549.2,353.5 C559.1,353.6 570,362.6 570,370.7 C570,372.8 570.6,376 571.4,377.8 C572.7,380.8 613.7,423.2 620.5,428.5 C628,434.5 636.9,439.9 653.8,448.9 C669.6,457.3 673.3,458.9 680.3,460.1 C689.1,461.6 692,463.1 694.7,467.1 C700.3,475.7 691,487.2 680.5,484.7 Z M987.5,386.6 C981.5,381.3 956.6,359.5 946,350.4 C938.6,344 927.2,333.8 920.7,327.6 C914.2,321.5 906.6,314.8 903.7,312.6 C896.3,307.1 883.9,293.9 880.2,287.4 C876.4,280.6 874.7,279.3 848.5,262 C837,254.3 823.1,245 817.7,241.3 C810.2,236.1 807,234.5 804.4,234.5 C801.8,234.5 801,234.9 801,236.3 C801,239 804.7,242.1 822.5,254 C849.7,272.4 854.6,276 852.8,276.3 C850.6,276.7 843.8,273.2 836.3,267.6 C824.6,259 807.5,249.8 798.8,247.5 C794,246.2 791.3,247.8 792.4,251.3 C793.2,253.7 803,262.4 807.5,264.8 C809.2,265.7 812.1,268 814,270 C815.9,272 819.5,274.8 822,276.3 C824.5,277.7 827.6,279.9 829.1,281.2 C830.9,282.8 832.9,283.5 836.1,283.6 C839.3,283.7 841.9,284.7 845.7,287.1 C848.5,288.9 852.3,290.8 854.2,291.3 C857.8,292.2 859.1,295.4 857,298 C855.4,299.9 855.9,300.5 863.7,305.7 C867.5,308.3 872.6,312.5 875,315.2 C885,325.8 912.1,348.3 920.7,353 C923.3,354.4 927.2,357.4 929.2,359.6 C931.2,361.7 937.5,366.5 943,370.1 C953.1,376.7 953.2,376.8 960.8,377 C969.3,377.2 974.7,379 982.5,384.1 C987.5,387.4 989.2,388.2 987.5,386.6 Z M898,298.5 C898,298 897,296.6 895.8,295.5 C893.1,293 892,294.7 894.6,297.6 C896.4,299.6 898,300.1 898,298.5 Z M788.4,294.8 C787.8,291 784.6,286.6 783.5,287.7 C782.9,288.3 787.8,298.5 788.7,298.5 C788.9,298.5 788.8,296.8 788.4,294.8 Z M340,293.8 C339.9,292.5 334.9,289.2 334.2,290 C333.8,290.3 334.6,291.5 336,292.5 C338.6,294.6 340,295 340,293.8 Z M470,293 C471.9,292 472.1,291.5 471,291.1 C460.2,287.2 440,280.9 440,281.4 C440.1,282.5 452.5,290.5 454.3,290.5 C455.2,290.5 456,290.9 456,291.3 C456,292.5 461,294.3 464.5,294.4 C466.2,294.4 468.6,293.8 470,293 Z M848,290.6 C848,289.4 840.1,284.1 839.4,284.8 C838.5,285.7 840,287.5 843.4,289.6 C846.8,291.7 848,292 848,290.6 Z M453.8,281.9 C450.7,280.3 450,278.9 452.7,280 C453.9,280.4 453.6,279.7 451.8,277.8 C447.7,273.6 433.7,265.4 428,263.9 C425.3,263.2 421.1,261.3 418.8,259.8 C411.3,254.8 400,250.8 400,253.1 C400.1,254.6 415.7,264.5 417.9,264.5 C419,264.5 420.7,265.6 421.6,267 C422.8,268.9 423.8,269.3 425.6,268.9 C428.9,268 434.8,272.1 435.8,275.9 C436.5,278.4 437.3,279 441.5,280.1 C444.3,280.7 447.6,281.7 449,282.3 C450.4,282.9 452.6,283.4 454,283.4 L456.5,283.4 L453.8,281.9 Z M414,267.1 C414,265 391.7,249.9 382,245.3 C374.6,241.8 361.7,238.5 360.4,239.7 C359.5,240.7 382.9,251.9 389.2,253.5 C394.5,254.9 397.3,256.4 401.7,260.2 C411.2,268.3 414,269.9 414,267.1 Z M857,257 C857,255.1 848.1,245.2 841.6,240 C838.9,237.8 833.7,233.2 830,229.8 C822.8,223.3 818.7,220.8 810.2,218 C804,216 802,216.5 802,220 C802,222 803.4,223.4 809.3,227.2 C813.2,229.8 820.1,234.2 824.5,237.1 C828.9,239.9 833.6,242.8 834.9,243.5 C836.2,244.2 841.4,247.8 846.4,251.6 C851.4,255.4 855.8,258.5 856.3,258.5 C856.7,258.5 857,257.8 857,257 Z M370,248.6 C370,247.6 364.2,245 363.4,245.7 C363.1,246 363.6,247 364.5,247.9 C366.2,249.6 370,250.1 370,248.6 Z M343,244.5 C343,243.5 333.8,240.5 330.6,240.5 C327.3,240.5 330.2,242.5 335.6,244 C341.7,245.7 343,245.8 343,244.5 Z M320.8,204 C319,202.1 286.4,182.5 285.7,182.8 C284.1,183.3 300,195.5 305.5,198 C310.8,200.5 320.2,204.4 320.9,204.5 C321.1,204.5 321.1,204.3 320.8,204 Z M593.6,117.4 C594,116.6 596.2,116.4 599.6,116.8 C603.7,117.2 605,117 605,116.1 C605,115.3 604.4,114.3 603.8,113.8 C602.1,112.5 577.4,99.5 576.6,99.5 C575.5,99.5 576,106.1 577.3,107.8 C578.5,109.5 590.9,118.3 592.2,118.4 C592.6,118.5 593.2,118 593.6,117.4 Z" id="Shape"></path>
                <path d="M425,265.5 C425,265 425.5,264.5 426,264.5 C426.6,264.5 427,265 427,265.5 C427,266.1 426.6,266.5 426,266.5 C425.5,266.5 425,266.1 425,265.5 Z" id="Path"></path>
                <path d="M711.4,483.5 C707.2,481.6 702.6,476.9 703.6,475.4 C704.9,473.3 709.1,474.8 713.9,479.1 C716.7,481.6 719,484.1 719,484.6 C719,486 715.9,485.6 711.4,483.5 Z" id="Path"></path>
                <path d="M1276.7,479.7 C1274.4,477.2 1274.6,476.3 1277.3,476.7 C1278.7,476.9 1279.6,477.8 1279.8,479.3 C1280.2,482 1278.9,482.1 1276.7,479.7 Z" id="Path"></path>
                <path d="M1270.7,472.4 C1269,471.4 1268.3,468.5 1269.8,468.5 C1271.2,468.5 1274.2,472.3 1273.3,472.8 C1272.8,473.1 1271.7,472.9 1270.7,472.4 Z" id="Path"></path>
                <path d="M578.2,469.8 C577.8,468.8 575.3,465.2 572.7,461.8 C568.8,456.9 567.1,455.6 564.2,455 C559.8,454.2 554.6,451.2 552.5,448.2 C551.7,447 551,444.2 551,441.9 C551,438.2 550.4,437.3 545.5,432.6 C539.8,427.2 538,426.8 538,431 C538,432.3 536.8,434.8 535.4,436.5 C533.2,439.1 532.9,440 533.8,441.9 C535.4,445.4 540.9,451.4 544.1,453.1 C545.7,453.9 547.7,455.9 548.6,457.6 C550.1,460.5 550,460.9 548.6,462.4 C547.1,463.8 546.7,463.8 544.2,462.5 C542.7,461.6 539.9,458.8 538.1,456.3 C536.2,453.7 532.2,450.1 529.2,448.3 C509.4,436.2 495,424.1 495,419.6 C495,414.5 502.3,416.3 514.3,424.4 C522.4,429.8 525.7,431.1 529.5,430.1 C534.9,428.7 534.8,422.9 529.3,416.2 C528,414.6 527,412.6 527,411.7 C527,409.5 512.3,395.6 508,393.8 C506.1,392.9 504.2,391.8 503.8,391.2 C503,389.8 504.7,387.5 506.6,387.5 C508.4,387.5 511.2,390.5 510.6,392 C510.1,393.3 513.1,396.3 521.9,403.5 L527.3,407.9 L526.6,404 C526.2,401.9 525.2,399.2 524.4,398.1 C523.6,397 523,394.2 523,391.8 C523,388.7 522.3,386.9 520.5,384.9 C518.9,383.2 518.2,381.5 518.5,380.4 C518.9,379.4 518.6,377.5 518,376.3 C517.1,374.2 517.1,374.2 518.2,375.9 C518.9,377 520.8,379.1 522.4,380.6 C524.6,382.7 525.1,383.7 524.3,384.7 C522.3,387.2 526.3,396.3 531.8,401.7 C536.3,406.1 536.8,407.1 537.2,412 C537.5,416.1 538.6,418.7 541.5,423.2 C547.5,432.1 553,437.5 556.1,437.5 C562.3,437.5 569.7,441.7 573.1,447.1 C575.7,451.4 575.5,453.4 572,454.8 L569.1,456.1 L573.5,461.7 C577,466.2 578.6,467.4 581.2,467.7 C585.3,468.1 585.7,470.9 581.7,471.3 C579.8,471.5 578.8,471.1 578.2,469.8 Z" id="Path"></path>
                <path d="M848,467.5 C848,467 848.5,466.5 849.1,466.5 C849.6,466.5 849.8,467 849.5,467.5 C849.2,468.1 848.7,468.5 848.4,468.5 C848.2,468.5 848,468.1 848,467.5 Z" id="Path"></path>
                <path d="M1257.9,462.1 C1254,459.2 1252,456.8 1252,454.9 C1252,454.7 1253.2,454.5 1254.7,454.5 C1256.5,454.5 1258.5,455.8 1261.2,458.7 C1267.7,465.8 1265.7,467.8 1257.9,462.1 Z" id="Path"></path>
                <path d="M853.5,461.5 C853.2,461 853.3,460.5 853.9,460.5 C854.4,460.5 855.2,461 855.5,461.5 C855.8,462.1 855.7,462.5 855.1,462.5 C854.6,462.5 853.8,462.1 853.5,461.5 Z" id="Path"></path>
                <path d="M281.3,446.4 C278.6,445.4 277,442.5 277,438.8 C277,436.7 275.7,434.7 272.3,431.3 C269.6,428.8 266.5,426.2 265.3,425.6 C264,424.9 263,423.9 263,423.3 C263,422.6 261.3,420.3 259.3,418 L255.5,414 L259.5,417.8 C261.8,419.8 264,421.5 264.4,421.5 C264.9,421.5 267.9,424.4 271.2,428 C276.8,434.1 277.4,434.5 281.6,434.5 C285.4,434.5 286.6,435.1 289.5,438 C291.4,439.9 293,441.9 293,442.4 C293,443.3 288.9,445.5 285,446.8 C284.2,447 282.5,446.9 281.3,446.4 Z" id="Path"></path>
                <path d="M847.5,445.5 C847.2,445 846.1,444.5 845.2,444.5 C842.4,444.5 835.5,439.3 826.5,430.6 L818,422.3 L819.1,418.1 C820,414.4 819.8,413.2 817.7,408.3 C815,402.2 813.6,401.1 807.6,400.2 C802.5,399.4 793.8,395.1 792.3,392.6 C791.4,391.1 791.4,390.3 792.5,388.9 C795.4,384.9 808.9,387.9 818.7,394.7 C823,397.6 823.2,398 822.6,401.4 C822.3,403.4 822.7,407 823.4,409.5 C824.6,413.6 825.1,414.1 828.6,414.8 C838,416.7 840.1,417.7 845.9,423.2 C851,427.9 852,429.4 852,432.1 C852,434.8 852.6,435.7 855,437 C858.2,438.6 858.2,440.5 855.1,440.5 C854,440.5 852.7,441.7 852,443.5 C850.8,446.5 848.7,447.4 847.5,445.5 Z" id="Path"></path>
                <path d="M716,423.4 C716,422.9 716.5,422.7 717,423 C717.6,423.3 718,423.8 718,424.1 C718,424.3 717.6,424.5 717,424.5 C716.5,424.5 716,424 716,423.4 Z" id="Path"></path>
                <path d="M1220.8,420.4 C1218.4,419 1218.5,416.5 1221,416.5 C1223,416.5 1225.4,419.7 1224.3,420.9 C1223.5,421.7 1222.8,421.6 1220.8,420.4 Z" id="Path"></path>
                <path d="M789,414.4 C789,413.9 789.5,413.7 790,414 C790.6,414.3 791,414.8 791,415.1 C791,415.3 790.6,415.5 790,415.5 C789.5,415.5 789,415 789,414.4 Z" id="Path"></path>
                <path d="M250.7,410.7 C248.7,409.2 245.6,406.3 243.9,404.2 C242.2,402.1 239.1,399.6 237,398.5 C232.4,396.2 231.4,394.7 232.9,393.2 C233.8,392.3 235.2,393.3 238.8,397.3 C241.4,400.2 244.7,403.4 246.1,404.3 C248.4,405.8 255.8,413.6 254.9,413.5 C254.7,413.4 252.8,412.2 250.7,410.7 Z" id="Path"></path>
                <path d="M844.1,409.1 C842.9,407.7 843.6,406.5 845.7,406.5 C847.2,406.5 847.5,409.1 846.1,409.9 C845.6,410.2 844.7,409.9 844.1,409.1 Z" id="Path"></path>
                <path d="M856.4,402.3 L854.5,400 L856.8,401.9 C858,403 859,404 859,404.2 C859,405 858.2,404.4 856.4,402.3 Z" id="Path"></path>
                <path d="M768.5,402.5 C768.2,401.9 768.6,401.8 769.4,402.1 C771.2,402.8 771.5,403.5 770.1,403.5 C769.5,403.5 768.8,403.1 768.5,402.5 Z" id="Path"></path>
                <path d="M852,401.5 C852,401 852.5,400.5 853,400.5 C853.6,400.5 854,401 854,401.5 C854,402.1 853.6,402.5 853,402.5 C852.5,402.5 852,402.1 852,401.5 Z" id="Path"></path>
                <path d="M851.4,396.3 L848.5,393 L851.8,395.9 C853.5,397.6 855,399 855,399.2 C855,400 854.2,399.3 851.4,396.3 Z" id="Path"></path>
                <path d="M762.5,397.5 C762.2,397 762.6,396.5 763.4,396.5 C764.3,396.5 765,397 765,397.5 C765,398.1 764.6,398.5 764.1,398.5 C763.5,398.5 762.8,398.1 762.5,397.5 Z" id="Path"></path>
                <path d="M1191.7,393.8 C1190.2,392.3 1191.1,390.5 1193.4,390.5 C1195.7,390.5 1197.5,392.7 1196.3,393.9 C1195.5,394.7 1192.5,394.7 1191.7,393.8 Z" id="Path"></path>
                <path d="M843.5,387.3 L839.5,383 L843.8,387 C846.1,389.1 848,391 848,391.2 C848,392 847.1,391.2 843.5,387.3 Z" id="Path"></path>
                <path d="M698,389.6 C693.2,388.1 689,385.4 689,383.8 C689,381.5 695.2,382.7 700.2,386 C705.5,389.5 704.3,391.5 698,389.6 Z" id="Path"></path>
                <path d="M226.5,388.5 C226.8,388 227.3,387.5 227.6,387.5 C227.8,387.5 228,388 228,388.5 C228,389.1 227.5,389.5 226.9,389.5 C226.4,389.5 226.2,389.1 226.5,388.5 Z" id="Path"></path>
                <path d="M275.7,386.9 C274.3,385.5 275,383.4 276.8,383.7 C277.7,383.9 278.5,384.7 278.5,385.4 C278.5,387 276.7,387.9 275.7,386.9 Z" id="Path"></path>
                <path d="M782.3,385.5 C779.4,384.3 779.4,382.9 782.3,382.3 C783.9,382 785.1,382.6 786.3,384.2 C788,386.4 788,386.5 786.3,386.4 C785.3,386.4 783.5,386 782.3,385.5 Z" id="Path"></path>
                <path d="M767,384.5 C767,384 767.4,383.5 767.9,383.5 C768.5,383.5 769.2,384 769.5,384.5 C769.8,385.1 769.4,385.5 768.6,385.5 C767.7,385.5 767,385.1 767,384.5 Z" id="Path"></path>
                <path d="M808.6,382.2 C806.4,377.1 807.1,375.1 809.4,379.9 C810.3,381.9 810.9,384.1 810.7,384.8 C810.4,385.5 809.5,384.3 808.6,382.2 Z" id="Path"></path>
                <path d="M494,381.4 C494,380.9 494.5,380.7 495,381 C495.6,381.3 496,381.8 496,382.1 C496,382.3 495.6,382.5 495,382.5 C494.5,382.5 494,382 494,381.4 Z" id="Path"></path>
                <path d="M489.5,378.5 C489.2,378 489.4,377.5 489.9,377.5 C490.5,377.5 491,378 491,378.5 C491,379.1 490.8,379.5 490.6,379.5 C490.3,379.5 489.8,379.1 489.5,378.5 Z" id="Path"></path>
                <path d="M484.5,375.6 C483.9,374.5 485.4,373.3 486.4,374.2 C487.3,375.1 487.1,376.5 486.1,376.5 C485.5,376.5 484.9,376.1 484.5,375.6 Z" id="Path"></path>
                <path d="M585.5,373.1 C581.5,371.4 579.3,368.8 580.8,367.3 C582.3,365.8 586.3,367 589.9,370.1 C594.7,374.1 592,375.9 585.5,373.1 Z" id="Path"></path>
                <path d="M514.3,371.8 C512.5,371.2 512.7,368.5 514.4,368.5 C516.3,368.5 517.5,370.4 516.4,371.5 C515.9,371.9 514.9,372 514.3,371.8 Z" id="Path"></path>
                <path d="M1170,366.5 C1170,366 1170.5,365.5 1171,365.5 C1171.6,365.5 1172,366 1172,366.5 C1172,367.1 1171.6,367.5 1171,367.5 C1170.5,367.5 1170,367.1 1170,366.5 Z" id="Path"></path>
                <path d="M512.5,365.5 C512.2,365 512.4,364.5 512.9,364.5 C513.5,364.5 514,365 514,365.5 C514,366.1 513.8,366.5 513.6,366.5 C513.3,366.5 512.8,366.1 512.5,365.5 Z" id="Path"></path>
                <path d="M748,365.5 C747.2,365 746.8,364.3 747.2,364 C748.2,363 752.1,364.5 751.5,365.6 C750.7,366.7 749.9,366.7 748,365.5 Z" id="Path"></path>
                <path d="M795.2,360.4 C795.4,359.8 796,359.4 796.5,359.4 C797,359.4 797.6,359.8 797.8,360.4 C798,361 797.4,361.5 796.5,361.5 C795.6,361.5 795,361 795.2,360.4 Z" id="Path"></path>
                <path d="M186.4,354 C185.4,351.5 187.4,350.1 190,351.5 C192.6,352.9 192.2,354.9 189.2,355.3 C187.9,355.5 186.7,355 186.4,354 Z" id="Path"></path>
                <path d="M182.6,353.8 C181.5,352.7 182,351.5 183.5,351.5 C184.3,351.5 185,351.9 185,352.4 C185,353.7 183.4,354.6 182.6,353.8 Z" id="Path"></path>
                <path d="M451.4,352.4 C451.1,351.8 451.5,350.6 452.4,349.7 C453.9,348.2 454.1,348.2 455.6,349.7 C457.5,351.6 456.7,353.5 454,353.5 C453,353.5 451.8,353 451.4,352.4 Z" id="Path"></path>
                <path d="M724.7,351.2 C722.9,350 722.9,349.8 724.5,348.5 C726,347.3 726.6,347.3 728.8,348.5 C730.2,349.3 731.3,350.5 731.2,351 C731,352.6 726.7,352.7 724.7,351.2 Z" id="Path"></path>
                <path d="M653.9,348.2 C652,347 650.4,345.2 650.2,344.2 C649.6,341.4 654.3,342.1 657.3,345.3 C662.2,350.4 660,352.3 653.9,348.2 Z" id="Path"></path>
                <path d="M318.6,346.3 C317.7,345.1 317,343.7 317,343.2 C317,341.9 319.9,344.4 321.1,346.7 C322.5,349.3 320.5,349 318.6,346.3 Z" id="Path"></path>
                <path d="M498.4,345.4 C497.4,343.7 499.7,341.8 501.1,343.2 C502.3,344.4 501.5,346.5 500,346.5 C499.5,346.5 498.8,346 498.4,345.4 Z" id="Path"></path>
                <path d="M162.5,343.8 C160.4,341.7 161.1,340 164.1,340 C165.8,340 166.6,340.6 166.8,342.1 C167.2,344.8 164.5,345.9 162.5,343.8 Z" id="Path"></path>
                <path d="M545,342.3 C539.2,341 532.8,336.7 531.6,333.2 C530,328.9 531.7,328.3 538.5,330.8 C549.4,334.9 554.8,338.9 553.7,342 C553,343.7 551.5,343.7 545,342.3 Z" id="Path"></path>
                <path d="M691,337.5 C691,337 691.5,336.5 692,336.5 C692.6,336.5 693,337 693,337.5 C693,338.1 692.6,338.5 692,338.5 C691.5,338.5 691,338.1 691,337.5 Z" id="Path"></path>
                <path d="M309.7,333.8 C309.3,333.5 309,332.7 309,332.1 C309,331.5 309.5,331.6 310.2,332.3 C310.8,332.9 311.1,333.7 310.9,334 C310.6,334.3 310,334.2 309.7,333.8 Z" id="Path"></path>
                <path d="M411.3,325.8 C410.6,325.5 410,324.5 410,323.4 C410,321.1 413.5,320.8 414.3,322.9 C415,324.6 413,326.4 411.3,325.8 Z" id="Path"></path>
                <path d="M657.2,321.4 C657.4,320.8 658,320.4 658.5,320.4 C659,320.4 659.6,320.8 659.8,321.4 C660,322 659.4,322.5 658.5,322.5 C657.6,322.5 657,322 657.2,321.4 Z" id="Path"></path>
                <path d="M642,315.5 C642,315 642.7,314.5 643.5,314.5 C644.3,314.5 645,315 645,315.5 C645,316.1 644.3,316.5 643.5,316.5 C642.7,316.5 642,316.1 642,315.5 Z" id="Path"></path>
                <path d="M977.5,314.9 C969.8,313 964.5,309.8 958.8,303.7 C948.3,292.5 953.1,286.4 968.3,291.4 C977.1,294.3 981,294.5 982.3,292 C982.9,290.9 984.2,288.8 985.2,287.3 C987.3,284.2 987.6,275.6 985.9,272.2 C985.3,271 983.7,268.9 982.5,267.5 C981.3,266.1 980,263.2 979.7,261 C979,256.6 972,245.8 970.1,246.3 C969.5,246.4 968.7,245.8 968.3,244.9 C968,244 966.9,242.3 965.8,241.1 C964.8,240 960.8,235.3 956.9,230.7 C953,226.2 948.3,221.3 946.3,219.7 C944.3,218.2 942,216.1 941.1,215 C936.9,209.8 927.4,201.4 923.7,199.7 C921.4,198.6 918.5,196.3 917.3,194.7 C915.9,192.8 914,191.5 912.3,191.3 C910.6,191.1 909.4,190.3 909.2,189.3 C908.7,186.7 911.3,187.1 914,189.9 C915.4,191.5 917.6,192.5 919.9,192.7 C922.7,192.9 923.8,193.6 924.8,195.7 C926.5,199.3 935.4,207 940.8,209.6 C943.5,210.9 946.1,213.3 947.7,215.8 C950.5,220.2 954.1,223.9 958.2,226.5 C963.8,229.9 972,238.4 972,240.7 C972,243.7 980.8,254.5 986.1,258 C990.1,260.6 990.2,260.8 989.7,265 C989.2,268.6 989.5,269.9 992.3,274 C997.2,281.4 1002.9,290.7 1004,293.3 C1005.2,296.1 1004.4,299.9 1002.3,301.7 C1001.5,302.4 999.8,305.2 998.6,308 C997.3,310.7 995.6,313.6 994.6,314.4 C992.2,316.4 984.4,316.7 977.5,314.9 Z" id="Path"></path>
                <path d="M647,312.9 C647,312 647.7,311.5 648.7,311.7 C651.2,312.2 651.5,314.5 649.1,314.5 C647.9,314.5 647,313.9 647,312.9 Z" id="Path"></path>
                <path d="M33.5,310.5 C33.8,310 34.5,309.5 35.1,309.5 C35.6,309.5 36,310 36,310.5 C36,311.1 35.3,311.5 34.4,311.5 C33.6,311.5 33.2,311.1 33.5,310.5 Z" id="Path"></path>
                <path d="M1097,306.5 C1097,306 1097.5,305.5 1098,305.5 C1098.6,305.5 1099,306 1099,306.5 C1099,307.1 1098.6,307.5 1098,307.5 C1097.5,307.5 1097,307.1 1097,306.5 Z" id="Path"></path>
                <path d="M588.3,301.8 C587.6,301.5 587,300.4 587,299.3 C587,297.9 587.6,297.4 589.2,297.7 C590.5,297.9 591.6,298.7 591.8,299.6 C592.1,301.4 590.3,302.5 588.3,301.8 Z" id="Path"></path>
                <path d="M1269.5,299.5 C1269.2,299 1269.4,298.5 1269.9,298.5 C1270.5,298.5 1271,299 1271,299.5 C1271,300.1 1270.8,300.5 1270.6,300.5 C1270.3,300.5 1269.8,300.1 1269.5,299.5 Z" id="Path"></path>
                <path d="M333.5,280.4 C332.5,278.9 333.6,278.1 335.5,278.9 C336.4,279.2 336.8,279.9 336.5,280.5 C335.7,281.8 334.3,281.8 333.5,280.4 Z" id="Path"></path>
                <path d="M575.2,279.9 C572.9,278.3 572.5,274.7 573.9,269.5 C574.5,267.3 575,267.1 579,267.3 C582.3,267.5 584.1,268.3 585.8,270.1 C588.7,273.3 588.6,276 585.5,279 C582.7,281.9 578.5,282.2 575.2,279.9 Z" id="Path"></path>
                <path d="M537,271.5 C537,271 537.5,270.5 538,270.5 C538.6,270.5 539,271 539,271.5 C539,272.1 538.6,272.5 538,272.5 C537.5,272.5 537,272.1 537,271.5 Z" id="Path"></path>
                <path d="M1110.9,266.2 C1103.1,262.2 1097.7,255.2 1095.9,246.6 C1094.4,239.6 1092.2,235.2 1087.5,229.8 C1082.6,224.1 1066.8,210.9 1056.7,204.1 C1052.2,201.1 1043.6,194.8 1037.6,190.2 C1031.2,185.2 1021.5,178.9 1014.1,175 C1006.8,171.1 997.1,164.8 991,160.1 C973.4,146.2 965.2,141.6 945,134 C938.1,131.4 929.8,127.8 926.5,126.1 C923.2,124.3 918.4,122.5 915.7,122.2 C913.1,121.8 909.2,120.6 907,119.5 C904.9,118.4 902.1,117.5 901,117.5 C898.5,117.5 893,112.4 893,110.1 C893,109.2 891.2,107.7 888.8,106.6 C881.3,103.3 857.2,93.5 856.5,93.5 C856,93.5 852.4,91.9 848.4,90 C844.4,88.1 839.7,86.5 837.8,86.5 C834.4,86.5 825.7,82 817.2,75.8 C814.9,74.1 811,72.3 808.7,72 C803.5,71.1 801.9,70.3 795.4,65.4 C789.2,60.6 785,58.9 777,57.6 C772.4,56.8 769.6,55.7 766.8,53.5 C761.2,49 756.6,47.3 747,46.6 C742.3,46.2 737.2,45.1 735.5,44.2 C726.5,39.3 720.9,37.2 705.8,33 C674.5,24.4 642.9,18.5 627.5,18.4 C616.6,18.3 610,19.6 597.2,24.6 C585.3,29.2 575.3,30.6 563.4,29.4 C556.5,28.7 551.2,28.7 546,29.4 C536.6,30.8 529.8,30.5 529.2,28.6 C528.8,27.5 529.5,27.4 532.3,27.9 C534.4,28.3 536.1,28.1 536.5,27.5 C536.8,27 538.5,26.5 540.1,26.5 C543.3,26.5 547,24.9 548.2,23.1 C548.6,22.5 549,20.8 549,19.4 C549,15.5 555.9,8.2 562.2,5.4 C567,3.3 568.9,3.1 581.5,3.1 C589.6,3.2 602.2,4.1 611.5,5.3 C620.3,6.5 632.8,7.9 639.2,8.5 C653.1,9.7 671.2,13.5 680.7,17.1 C693.4,21.8 713.5,28.4 720.3,30 C724,30.9 729.9,31.5 733.3,31.3 C740.5,31.1 742.1,31.8 749.5,38.5 C755.9,44.3 761.4,46.3 766.9,44.9 C771.6,43.6 774.1,44.5 779.3,49.1 C784.3,53.7 791.1,56.9 792.2,55.2 C792.8,54.3 793,54.3 793,55.2 C793,55.9 794.6,56.7 796.5,57 C798.4,57.3 801.5,57.7 803.4,58 C805.7,58.4 808.4,60.1 811.3,63 C813.8,65.4 817.1,67.7 818.7,68.1 C835,71.8 837.6,72.9 841.8,78.3 C843.5,80.4 846.8,83 849.2,84 C851.6,85.1 855.4,87.2 857.8,88.8 C862.8,92.1 879.2,100 883.2,101 C885.2,101.5 885.9,101.3 886.3,99.8 C886.7,98.4 886.8,98.5 886.9,100.3 C887,101.7 887.9,102.9 889.6,103.5 C891.9,104.4 892.7,104.1 896.5,100.6 C904.8,93 913.6,93 920.4,100.5 C923.4,103.9 924,105.2 924,109.1 C924,117.1 924.3,117.4 944,124.5 C949.8,126.6 961.7,131.1 970.5,134.5 C979.3,137.9 991.6,142 997.8,143.6 C1012.5,147.4 1018.7,150.6 1029,160 C1034.5,165 1040.3,169.1 1045.5,171.7 C1060.4,179.2 1067.5,183.8 1076.5,191.9 C1084.9,199.5 1098.3,209.9 1109,217.2 C1111.5,218.9 1118.5,222.4 1124.6,224.9 C1142.2,232.3 1147.4,238.1 1147.5,250.6 C1147.5,256.2 1147.1,257.6 1144.8,260.7 C1140.5,266.3 1133.1,269.5 1124.4,269.5 C1118.2,269.5 1116.3,269 1110.9,266.2 Z" id="Path"></path>
                <path d="M198,264.9 C198,264 198.7,263.5 199.7,263.7 C202.2,264.2 202.5,266.5 200.1,266.5 C198.9,266.5 198,265.9 198,264.9 Z" id="Path"></path>
                <path d="M535.3,257.9 C534.6,256.1 536.4,254 537.9,254.9 C539.6,256 539.2,259.5 537.5,259.5 C536.6,259.5 535.7,258.8 535.3,257.9 Z" id="Path"></path>
                <path d="M1038,255.4 C1038,254 1038.5,253.5 1039.7,253.7 C1042.3,254.2 1042.6,257.5 1040.1,257.5 C1038.6,257.5 1038,256.9 1038,255.4 Z" id="Path"></path>
                <path d="M997.6,249.4 C991.7,244.8 996.7,235.6 1003.7,238.1 C1009.3,240 1010.5,248 1005.5,250.3 C1001.9,252 1000.7,251.8 997.6,249.4 Z" id="Path"></path>
                <path d="M529,240.5 C529,240 529.5,239.5 530,239.5 C530.6,239.5 531,240 531,240.5 C531,241.1 530.6,241.5 530,241.5 C529.5,241.5 529,241.1 529,240.5 Z" id="Path"></path>
                <path d="M512.3,237.9 C512,237.1 512.2,235.9 512.8,235.3 C514.4,233.7 517,235.1 517,237.5 C517,239.9 513.2,240.3 512.3,237.9 Z" id="Path"></path>
                <path d="M194.5,229.7 C184.9,223.2 180,219.2 180,217.9 C180,217.1 180.3,216.5 180.6,216.5 C181.9,216.5 189.8,222.6 190.3,224 C190.7,224.8 191.8,225.5 192.8,225.5 C195,225.5 199,229 199,231 C199,232.9 199.2,233 194.5,229.7 Z" id="Path"></path>
                <path d="M432,215 C432,213.3 432.2,213.2 434.4,214.1 C436.7,215 436.4,216.5 434,216.5 C432.9,216.5 432,215.8 432,215 Z" id="Path"></path>
                <path d="M845.6,215.6 C845.3,215.1 845.7,214.2 846.5,213.5 C847.7,212.5 848,212.5 848,213.8 C848,215.7 846.4,216.9 845.6,215.6 Z" id="Path"></path>
                <path d="M466.7,209.8 C465.5,208.7 465.9,207.5 467.5,207.5 C468.3,207.5 469,208.2 469,209 C469,210.6 467.8,211 466.7,209.8 Z" id="Path"></path>
                <path d="M328,202.9 C328,202 328.5,201.5 329.2,201.7 C331,202.3 331.3,204.5 329.6,204.5 C328.7,204.5 328,203.8 328,202.9 Z" id="Path"></path>
                <path d="M955.2,202.9 C955.6,200.8 957.4,200.6 957.8,202.8 C958,203.8 957.5,204.5 956.5,204.5 C955.5,204.5 955,203.9 955.2,202.9 Z" id="Path"></path>
                <path d="M423.1,194.2 C422.5,193.6 422,192.5 422,191.7 C422,189.8 426.4,190.6 426.8,192.6 C427.2,194.6 424.6,195.7 423.1,194.2 Z" id="Path"></path>
                <path d="M483,194.5 C483,194 483.5,193.5 484,193.5 C484.6,193.5 485,194 485,194.5 C485,195.1 484.6,195.5 484,195.5 C483.5,195.5 483,195.1 483,194.5 Z" id="Path"></path>
                <path d="M951,193.5 C951,193 951.5,192.5 952,192.5 C952.6,192.5 953,193 953,193.5 C953,194.1 952.6,194.5 952,194.5 C951.5,194.5 951,194.1 951,193.5 Z" id="Path"></path>
                <path d="M959,191.4 C959,190.9 959.5,190.7 960,191 C960.6,191.3 961,191.8 961,192.1 C961,192.3 960.6,192.5 960,192.5 C959.5,192.5 959,192 959,191.4 Z" id="Path"></path>
                <path d="M312.2,190.3 C310.8,188.9 310.6,186.5 311.8,186.5 C313,186.5 315,188.8 315,190.2 C315,191.8 313.8,191.9 312.2,190.3 Z" id="Path"></path>
                <path d="M443.1,186.6 C441.4,185.5 442.6,183.5 445,183.5 C447.4,183.5 448.6,185.5 446.9,186.6 C446.1,187.1 445.3,187.5 445,187.5 C444.7,187.5 443.9,187.1 443.1,186.6 Z" id="Path"></path>
                <path d="M890,183 C890,182.2 890.5,181.5 891,181.5 C891.6,181.5 892,182.2 892,183 C892,183.8 891.6,184.5 891,184.5 C890.5,184.5 890,183.8 890,183 Z" id="Path"></path>
                <path d="M308.8,182.4 C305.3,180.4 308,175.7 312,177 C314.2,177.7 314.7,180.4 312.8,182.3 C311.4,183.7 311,183.7 308.8,182.4 Z" id="Path"></path>
                <path d="M406.3,181.9 C405.7,180.3 407.4,178.5 409.6,178.5 C411.3,178.5 413.3,181.2 412.5,182.5 C411.5,184.1 407,183.7 406.3,181.9 Z" id="Path"></path>
                <path d="M878.5,181.6 C877.9,180.5 879.4,179.3 880.4,180.2 C881.3,181.1 881.1,182.5 880.1,182.5 C879.5,182.5 878.9,182.1 878.5,181.6 Z" id="Path"></path>
                <path d="M945.7,181.9 C944.8,180.9 945.9,179.5 947.6,179.5 C948.4,179.5 949,180.2 949,181 C949,182.5 946.9,183.1 945.7,181.9 Z" id="Path"></path>
                <path d="M299.8,179.8 C300.5,179.5 301.4,179.6 301.7,179.9 C302.1,180.2 301.5,180.5 300.4,180.4 C299.3,180.4 299,180.1 299.8,179.8 Z" id="Path"></path>
                <path d="M425.5,174.5 C425.2,174 425.6,173.5 426.5,173.5 C427.4,173.5 427.8,174 427.5,174.5 C427.2,175.1 426.7,175.5 426.5,175.5 C426.3,175.5 425.8,175.1 425.5,174.5 Z" id="Path"></path>
                <path d="M925.3,159.5 C918.8,155.6 916.6,147.9 921,144.3 C923.9,142 926.7,142 930.7,144.5 C934.7,146.9 936.9,150.2 937.7,155 C938.2,158 937.9,159.1 936.5,160.1 C933.8,162.1 929,161.8 925.3,159.5 Z" id="Path"></path>
                <path d="M385.6,130.6 C385.3,130.2 383.4,129.5 381.4,129.2 C377.1,128.5 375,126.9 375,124.3 C375,120.1 381.9,120.8 383.9,125.2 C384.6,126.8 385.6,128.8 386.1,129.8 C387,131.5 386.6,132.2 385.6,130.6 Z" id="Path"></path>
                <path d="M478.7,126.8 C478.3,126.5 478,125.6 478,124.8 C478,123.1 480.6,123.1 481.3,124.9 C482.1,127 480.2,128.4 478.7,126.8 Z" id="Path"></path>
                <path d="M46.7,118.7 C44.7,116.5 44.5,113.5 46.3,113.5 C48.2,113.5 52.3,118.2 51.5,119.4 C50.5,121 48.5,120.7 46.7,118.7 Z" id="Path"></path>
                <path d="M501.3,116.7 C496.7,114.8 494.9,113.5 497.1,113.6 C499.1,113.6 508.8,118.3 507,118.4 C506.2,118.4 503.6,117.6 501.3,116.7 Z" id="Path"></path>
                <path d="M233.3,111.6 C220.4,104.5 207.2,91.9 201.4,81.2 C198.5,75.9 193.6,70 182.6,58.5 C163.8,38.9 157.1,31.2 154,25.3 L151.6,20.6 L154,17.9 C156.4,15.4 156.8,15.3 164.5,15.9 C168.9,16.2 175,16.8 178.1,17.1 L183.8,17.7 L186.2,12.9 C189.1,7 192.4,5.4 197.3,7.4 C203.5,9.9 203.9,9.9 204.9,7.2 C206.4,3.3 209,2.5 219.2,2.5 C231.7,2.6 240.2,6.2 237,10 C235,12.4 228.1,13.8 219,13.7 C212.1,13.6 210,13.9 208.1,15.4 C206.7,16.5 205.9,17.9 206.3,18.8 C206.8,20.2 217.7,24.5 220.8,24.5 C221.5,24.5 223.7,25.7 225.6,27.1 C228.3,29.2 229.7,29.6 232.4,29.1 C236.2,28.4 239.3,30.5 238.8,33.4 C238.3,36.1 234,36 231.6,33.1 C230.4,31.7 227,29.7 224,28.7 C221,27.6 216.1,25.8 213.3,24.6 L208,22.5 L208,25.5 C208,27.9 207.5,28.6 205.3,29.1 C203.2,29.7 202.3,29.3 201.2,27.7 C200.1,26 198.8,25.5 195.5,25.5 C192,25.5 190.6,24.9 188.4,22.6 C185.3,19.3 182.5,18.6 170.4,18 C163,17.6 161.7,17.8 160,19.5 C156.8,22.7 157.6,26.1 162.9,33.2 C169.6,42.1 193,62.9 199.8,66 C223.2,76.7 251.3,104.4 247,112.5 C245.4,115.5 239.7,115.1 233.3,111.6 Z" id="Path"></path>
                <path d="M354.5,109.4 C353.5,107.9 354.8,106.9 356.1,108.2 C356.8,108.9 356.8,109.5 356.2,109.9 C355.6,110.2 354.8,110 354.5,109.4 Z" id="Path"></path>
                <path d="M169.4,102 C168.7,100.2 169.7,98.5 171.5,98.5 C173.1,98.5 175.3,101.9 174.3,102.9 C173.1,104 169.9,103.5 169.4,102 Z" id="Path"></path>
                <path d="M343,99 C341.6,97.3 342.5,95.5 344.9,95.5 C347.1,95.5 349.4,98 348.5,99.5 C347.6,101 344.4,100.7 343,99 Z" id="Path"></path>
                <path d="M150.7,98.8 C149.3,97.5 150.1,95.5 151.9,95.5 C153.8,95.5 155.4,97.8 154.3,98.9 C153.5,99.7 151.5,99.7 150.7,98.8 Z" id="Path"></path>
                <path d="M143,96 C143,95.2 143.5,94.5 144,94.5 C144.6,94.5 145,95.2 145,96 C145,96.8 144.6,97.5 144,97.5 C143.5,97.5 143,96.8 143,96 Z" id="Path"></path>
                <path d="M129,90.5 C128.1,89.9 128,89.5 128.7,89.5 C129.3,89.5 130.2,90 130.5,90.5 C131.3,91.7 130.9,91.7 129,90.5 Z" id="Path"></path>
                <path d="M405.7,80.1 C397.8,77.9 392.4,72.7 396.5,71.1 C397.5,70.7 399.9,71.8 402.7,73.8 C405.1,75.5 408.8,78 410.8,79.2 C415.1,81.8 413.3,82.1 405.7,80.1 Z" id="Path"></path>
                <path d="M303.1,73.1 C302.2,72.1 302.3,71.5 303.4,70.6 C304.4,69.7 305,69.8 305.9,70.9 C306.8,71.9 306.7,72.5 305.6,73.4 C304.6,74.3 304,74.2 303.1,73.1 Z" id="Path"></path>
                <path d="M76.9,59.7 C71.6,56.2 68.5,52.9 69.8,52.1 C72.1,50.7 86,58.9 86,61.7 C86,63.4 81.2,62.4 76.9,59.7 Z" id="Path"></path>
                <path d="M269.7,52.9 C268.8,51.9 269.9,50.5 271.6,50.5 C272.4,50.5 273,51.2 273,52 C273,53.5 270.9,54.1 269.7,52.9 Z" id="Path"></path>
                <path d="M58.5,47.5 C58.2,47 58.3,46.5 58.9,46.5 C59.4,46.5 60.2,47 60.5,47.5 C60.8,48.1 60.7,48.5 60.1,48.5 C59.6,48.5 58.8,48.1 58.5,47.5 Z" id="Path"></path>
                <path d="M245.5,38.6 C244.9,37.5 246.4,36.3 247.4,37.2 C248.3,38.1 248.1,39.5 247.1,39.5 C246.5,39.5 245.9,39.1 245.5,38.6 Z" id="Path"></path>
                <path d="M205,34.4 C205,33.9 205.5,33.7 206,34 C206.6,34.3 207,34.8 207,35.1 C207,35.3 206.6,35.5 206,35.5 C205.5,35.5 205,35 205,34.4 Z" id="Path"></path>
                <path d="M55.4,30 C54.6,27.9 55.7,26.6 58,27.2 C60.7,27.9 60.7,31.5 58,31.5 C56.9,31.5 55.7,30.8 55.4,30 Z" id="Path"></path>
                <path d="M77,30.4 C77,29.9 77.5,29.7 78,30 C78.6,30.3 79,30.8 79,31.1 C79,31.3 78.6,31.5 78,31.5 C77.5,31.5 77,31 77,30.4 Z" id="Path"></path>
                <path d="M522,28 C520.9,26.7 521.2,26.5 523.3,26.5 C526.3,26.5 527.7,28 525.4,28.9 C523.3,29.7 523.4,29.7 522,28 Z" id="Path"></path>
                <path d="M16.8,15.3 C14.2,14.6 11.2,12.3 6.6,7.3 C3,3.5 0,0.2 0,0.1 C0,-0.1 3.7,1.1 8.2,2.6 C12.7,4.2 16.5,5.5 16.7,5.5 C16.9,5.5 18.8,7.1 21,9.1 C24.3,12.1 24.8,13 23.9,14.6 C22.8,16.7 22.2,16.8 16.8,15.3 Z" id="Path"></path>
            </g>
        </g>
    </g>
</svg>